{"glyphs":{"0":{"ha":1151,"x_min":0,"x_max":0,"o":"m 575 -21 b 1068 531 899 -21 1068 167 b 575 1076 1068 894 899 1076 b 83 531 253 1076 83 894 b 575 -21 83 167 253 -21 z m 965 543 l 599 100 b 435 143 546 38 457 71 l 247 742 b 406 900 207 872 294 944 l 932 689 b 965 543 999 663 1013 600 z "},"1":{"ha":629,"x_min":0,"x_max":0,"o":"m 519 207 l 515 917 b 394 1056 515 1029 456 1056 l 161 1056 b 14 907 58 1056 10 986 b 260 846 19 785 172 740 l 360 967 b 444 892 403 1019 479 985 l 208 251 b 339 -21 158 115 193 -21 b 519 207 467 -21 521 44 z "},"2":{"ha":1157,"x_min":0,"x_max":0,"o":"m 1022 715 b 639 1075 1022 950 967 1075 b 90 760 375 1075 90 894 b 299 708 90 663 193 611 l 578 963 b 801 986 632 1011 731 1014 b 856 867 885 954 919 910 l 254 460 b 99 210 160 396 99 338 b 374 0 99 82 213 0 l 676 0 b 1067 321 847 0 1067 89 b 972 453 1067 399 1038 453 b 924 321 929 453 863 411 l 972 249 b 878 150 1004 201 971 133 l 315 254 b 297 415 228 271 207 347 b 597 488 393 488 476 515 l 747 453 b 1022 715 919 413 1022 544 z "},"3":{"ha":1138,"x_min":0,"x_max":0,"o":"m 814 511 l 536 397 b 500 461 472 371 444 422 l 914 749 b 1013 896 976 793 1013 844 b 792 1056 1013 988 939 1056 l 276 1056 b 78 901 161 1056 71 1013 b 374 807 89 714 275 778 l 858 950 b 936 908 893 960 935 953 b 860 825 936 874 925 846 l 318 653 b 176 497 196 614 176 549 b 318 354 176 431 213 367 l 815 293 b 932 214 900 282 932 254 b 815 144 932 175 896 138 l 204 199 b 76 122 100 208 76 167 b 410 -22 76 35 161 -22 b 1068 374 765 -22 1068 121 b 814 511 1068 500 950 567 z "},"4":{"ha":1121,"x_min":0,"x_max":0,"o":"m 906 -21 b 1079 142 1032 -21 1079 51 b 1053 274 1079 183 1069 229 l 982 464 b 790 554 950 551 872 592 l 321 336 b 288 328 308 331 297 328 b 247 365 264 328 247 343 b 290 429 247 385 260 408 l 801 786 b 872 914 849 819 872 867 b 708 1076 872 1010 799 1076 b 474 907 622 1076 531 1008 l 81 204 b 42 79 54 156 42 114 b 143 -21 42 17 82 -21 b 308 50 183 -21 256 6 l 774 447 b 869 500 822 489 846 513 b 857 386 901 483 881 444 l 790 221 b 774 121 782 200 774 161 b 906 -21 774 53 800 -21 z "},"5":{"ha":1107,"x_min":0,"x_max":0,"o":"m 833 1054 l 442 1054 b 135 878 190 1054 138 1001 l 128 599 b 296 389 124 457 153 378 l 869 436 b 910 350 938 442 949 385 l 601 81 b 464 83 549 35 503 32 l 324 267 b 122 236 271 336 164 343 b 464 -21 61 79 226 -21 b 1010 365 793 -21 1010 97 b 679 660 1010 588 940 789 l 267 456 b 214 515 229 438 192 474 l 418 886 b 582 935 468 976 493 1014 l 707 824 b 993 901 851 694 993 792 b 833 1054 993 986 956 1054 z "},"6":{"ha":1189,"x_min":0,"x_max":0,"o":"m 525 994 l 201 556 b 83 281 122 449 83 367 b 599 -21 83 81 279 -21 b 1119 361 840 -21 1119 82 b 856 642 1119 507 1054 642 l 686 642 b 646 711 633 642 615 676 l 758 842 b 815 960 790 878 815 925 b 669 1078 815 1029 749 1078 b 525 994 622 1078 568 1053 z m 958 213 l 233 207 b 179 250 197 207 179 226 b 201 294 179 264 188 282 l 500 551 b 683 547 561 604 604 607 l 1006 306 b 1040 263 1028 289 1040 278 b 958 213 1040 238 1022 213 z "},"7":{"ha":999,"x_min":0,"x_max":0,"o":"m 657 828 l 425 542 b 240 154 336 432 228 288 b 411 -21 250 53 307 -21 b 542 199 500 -21 593 50 l 472 399 b 536 544 447 471 465 511 l 806 671 b 999 901 939 733 999 817 b 732 1056 999 1033 842 1056 l 250 1056 b 21 883 114 1056 11 1007 b 179 731 31 751 111 731 b 368 810 215 731 281 743 l 560 956 b 689 972 619 1001 664 992 b 657 828 719 947 715 899 z "},"8":{"ha":1151,"x_min":0,"x_max":0,"o":"m 121 842 b 436 594 121 718 204 653 b 472 556 458 589 472 574 b 429 519 472 538 461 522 l 276 507 b 69 267 115 494 69 401 b 638 -21 69 29 326 -18 b 1082 246 900 -21 1082 71 b 846 519 1082 435 1006 514 l 732 524 b 688 549 701 525 690 536 b 710 585 683 565 692 576 l 940 690 b 1069 843 1040 736 1069 763 b 514 1076 1069 986 928 1074 b 121 842 207 1076 121 933 z m 685 458 l 972 258 b 951 183 1014 229 1007 183 l 231 179 b 207 261 171 179 167 232 l 483 458 b 685 458 564 515 608 511 z m 506 643 l 372 931 b 490 1003 336 1007 404 1044 l 829 839 b 835 749 881 814 876 778 l 650 618 b 506 643 596 579 535 579 z "},"9":{"ha":1189,"x_min":0,"x_max":0,"o":"m 664 61 l 988 500 b 1106 775 1067 607 1106 689 b 590 1076 1106 975 910 1076 b 69 694 349 1076 69 974 b 333 414 69 549 135 414 l 503 414 b 543 344 556 414 574 379 l 431 214 b 374 96 399 178 374 131 b 519 -22 374 26 440 -22 b 664 61 567 -22 621 3 z m 231 843 l 956 849 b 1010 806 992 849 1010 829 b 988 761 1010 792 1001 774 l 689 504 b 506 508 628 451 585 449 l 183 750 b 149 793 161 767 149 778 b 231 843 149 818 167 843 z "}," ":{"ha":556,"x_min":0,"x_max":0,"o":""}," ":{"ha":556,"x_min":0,"x_max":0,"o":""},"A":{"ha":1111,"x_min":0,"x_max":0,"o":"m 622 324 l 264 315 b 42 156 142 313 42 267 b 213 -21 42 25 132 -21 b 493 136 326 -21 429 82 l 629 253 b 718 208 678 294 718 285 l 718 136 b 886 -21 718 51 772 -21 b 1047 254 1029 -21 1076 99 l 921 922 b 763 1076 903 1017 846 1076 b 501 944 672 1076 622 1040 l 222 722 b 117 557 158 671 117 617 b 265 403 117 471 183 403 b 439 513 317 403 394 421 l 607 857 b 736 1017 628 900 678 1006 b 822 903 794 1028 832 979 l 763 411 b 622 324 754 340 701 325 z "},"a":{"ha":1111,"x_min":0,"x_max":0,"o":"m 622 324 l 264 315 b 42 156 142 313 42 267 b 213 -21 42 25 132 -21 b 493 136 326 -21 429 82 l 629 253 b 718 208 678 294 718 285 l 718 136 b 886 -21 718 51 772 -21 b 1047 254 1029 -21 1076 99 l 921 922 b 763 1076 903 1017 846 1076 b 501 944 672 1076 622 1040 l 222 722 b 117 557 158 671 117 617 b 265 403 117 471 183 403 b 439 513 317 403 394 421 l 607 857 b 736 1017 628 900 678 1006 b 822 903 794 1028 832 979 l 763 411 b 622 324 754 340 701 325 z "},"Á":{"ha":1111,"x_min":0,"x_max":0,"o":"m 622 324 l 264 315 b 42 156 142 313 42 267 b 213 -21 42 25 132 -21 b 493 136 326 -21 429 82 l 629 253 b 718 208 678 294 718 285 l 718 136 b 886 -21 718 51 772 -21 b 1047 254 1029 -21 1076 99 l 921 922 b 763 1076 903 1017 846 1076 b 501 944 672 1076 622 1040 l 222 722 b 117 557 158 671 117 617 b 265 403 117 471 183 403 b 439 513 317 403 394 421 l 607 857 b 736 1017 628 900 678 1006 b 822 903 794 1028 832 979 l 763 411 b 622 324 754 340 701 325 z m 685 1117 l 939 1165 b 1021 1288 1018 1181 1038 1233 b 863 1328 1001 1353 918 1374 l 660 1161 b 685 1117 642 1146 656 1111 z "},"á":{"ha":1111,"x_min":0,"x_max":0,"o":"m 622 324 l 264 315 b 42 156 142 313 42 267 b 213 -21 42 25 132 -21 b 493 136 326 -21 429 82 l 629 253 b 718 208 678 294 718 285 l 718 136 b 886 -21 718 51 772 -21 b 1047 254 1029 -21 1076 99 l 921 922 b 763 1076 903 1017 846 1076 b 501 944 672 1076 622 1040 l 222 722 b 117 557 158 671 117 617 b 265 403 117 471 183 403 b 439 513 317 403 394 421 l 607 857 b 736 1017 628 900 678 1006 b 822 903 794 1028 832 979 l 763 411 b 622 324 754 340 701 325 z m 685 1117 l 939 1165 b 1021 1288 1018 1181 1038 1233 b 863 1328 1001 1353 918 1374 l 660 1161 b 685 1117 642 1146 656 1111 z "},"Ă":{"ha":1111,"x_min":0,"x_max":0,"o":"m 622 324 l 264 315 b 42 156 142 313 42 267 b 213 -21 42 25 132 -21 b 493 136 326 -21 429 82 l 629 253 b 718 208 678 294 718 285 l 718 136 b 886 -21 718 51 772 -21 b 1047 254 1029 -21 1076 99 l 921 922 b 763 1076 903 1017 846 1076 b 501 944 672 1076 622 1040 l 222 722 b 117 557 158 671 117 617 b 265 403 117 471 183 403 b 439 513 317 403 394 421 l 607 857 b 736 1017 628 900 678 1006 b 822 903 794 1028 832 979 l 763 411 b 622 324 754 340 701 325 z m 733 1121 b 1004 1281 892 1117 1004 1157 b 933 1349 1004 1326 967 1349 b 840 1283 892 1349 861 1332 b 733 1160 811 1215 793 1160 b 626 1283 674 1160 656 1215 b 533 1349 606 1332 575 1349 b 463 1281 500 1349 463 1326 b 733 1121 463 1157 575 1117 z "},"Ǎ":{"ha":1111,"x_min":0,"x_max":0,"o":"m 622 324 l 264 315 b 42 156 142 313 42 267 b 213 -21 42 25 132 -21 b 493 136 326 -21 429 82 l 629 253 b 718 208 678 294 718 285 l 718 136 b 886 -21 718 51 772 -21 b 1047 254 1029 -21 1076 99 l 921 922 b 763 1076 903 1017 846 1076 b 501 944 672 1076 622 1040 l 222 722 b 117 557 158 671 117 617 b 265 403 117 471 183 403 b 439 513 317 403 394 421 l 607 857 b 736 1017 628 900 678 1006 b 822 903 794 1028 832 979 l 763 411 b 622 324 754 340 701 325 z m 740 1163 b 704 1185 728 1163 715 1169 l 626 1297 b 551 1349 597 1339 576 1349 b 463 1239 497 1349 463 1310 b 551 1136 463 1186 486 1142 b 740 1128 614 1131 678 1126 b 929 1136 803 1126 867 1131 b 1018 1239 994 1142 1018 1186 b 929 1349 1018 1310 983 1349 b 854 1297 904 1349 883 1339 l 776 1185 b 740 1163 765 1169 753 1163 z "},"Â":{"ha":1111,"x_min":0,"x_max":0,"o":"m 622 324 l 264 315 b 42 156 142 313 42 267 b 213 -21 42 25 132 -21 b 493 136 326 -21 429 82 l 629 253 b 718 208 678 294 718 285 l 718 136 b 886 -21 718 51 772 -21 b 1047 254 1029 -21 1076 99 l 921 922 b 763 1076 903 1017 846 1076 b 501 944 672 1076 622 1040 l 222 722 b 117 557 158 671 117 617 b 265 403 117 471 183 403 b 439 513 317 403 394 421 l 607 857 b 736 1017 628 900 678 1006 b 822 903 794 1028 832 979 l 763 411 b 622 324 754 340 701 325 z m 740 1314 b 776 1292 753 1314 765 1307 l 854 1179 b 929 1128 883 1138 904 1128 b 1018 1238 983 1128 1018 1167 b 929 1340 1018 1290 994 1335 b 740 1349 867 1346 803 1350 b 551 1340 678 1350 614 1346 b 463 1238 486 1335 463 1290 b 551 1128 463 1167 497 1128 b 626 1179 576 1128 597 1138 l 704 1292 b 740 1314 715 1307 728 1314 z "},"â":{"ha":1111,"x_min":0,"x_max":0,"o":"m 622 324 l 264 315 b 42 156 142 313 42 267 b 213 -21 42 25 132 -21 b 493 136 326 -21 429 82 l 629 253 b 718 208 678 294 718 285 l 718 136 b 886 -21 718 51 772 -21 b 1047 254 1029 -21 1076 99 l 921 922 b 763 1076 903 1017 846 1076 b 501 944 672 1076 622 1040 l 222 722 b 117 557 158 671 117 617 b 265 403 117 471 183 403 b 439 513 317 403 394 421 l 607 857 b 736 1017 628 900 678 1006 b 822 903 794 1028 832 979 l 763 411 b 622 324 754 340 701 325 z m 740 1314 b 776 1292 753 1314 765 1307 l 854 1179 b 929 1128 883 1138 904 1128 b 1018 1238 983 1128 1018 1167 b 929 1340 1018 1290 994 1335 b 740 1349 867 1346 803 1350 b 551 1340 678 1350 614 1346 b 463 1238 486 1335 463 1290 b 551 1128 463 1167 497 1128 b 626 1179 576 1128 597 1138 l 704 1292 b 740 1314 715 1307 728 1314 z "},"Ä":{"ha":1111,"x_min":0,"x_max":0,"o":"m 622 324 l 264 315 b 42 156 142 313 42 267 b 213 -21 42 25 132 -21 b 493 136 326 -21 429 82 l 629 253 b 718 208 678 294 718 285 l 718 136 b 886 -21 718 51 772 -21 b 1047 254 1029 -21 1076 99 l 921 922 b 763 1076 903 1017 846 1076 b 501 944 672 1076 622 1040 l 222 722 b 117 557 158 671 117 617 b 265 403 117 471 183 403 b 439 513 317 403 394 421 l 607 857 b 736 1017 628 900 678 1006 b 822 903 794 1028 832 979 l 763 411 b 622 324 754 340 701 325 z m 1013 1224 b 968 1332 1032 1279 1007 1314 b 782 1297 903 1361 808 1375 b 839 1183 768 1254 769 1214 b 1013 1224 903 1154 983 1142 z m 711 1288 b 615 1354 697 1346 657 1361 b 479 1224 544 1343 458 1304 b 588 1160 490 1181 514 1147 b 711 1288 658 1171 732 1204 z "},"ä":{"ha":1111,"x_min":0,"x_max":0,"o":"m 622 324 l 264 315 b 42 156 142 313 42 267 b 213 -21 42 25 132 -21 b 493 136 326 -21 429 82 l 629 253 b 718 208 678 294 718 285 l 718 136 b 886 -21 718 51 772 -21 b 1047 254 1029 -21 1076 99 l 921 922 b 763 1076 903 1017 846 1076 b 501 944 672 1076 622 1040 l 222 722 b 117 557 158 671 117 617 b 265 403 117 471 183 403 b 439 513 317 403 394 421 l 607 857 b 736 1017 628 900 678 1006 b 822 903 794 1028 832 979 l 763 411 b 622 324 754 340 701 325 z m 1013 1224 b 968 1332 1032 1279 1007 1314 b 782 1297 903 1361 808 1375 b 839 1183 768 1254 769 1214 b 1013 1224 903 1154 983 1142 z m 711 1288 b 615 1354 697 1346 657 1361 b 479 1224 544 1343 458 1304 b 588 1160 490 1181 514 1147 b 711 1288 658 1171 732 1204 z "},"À":{"ha":1111,"x_min":0,"x_max":0,"o":"m 622 324 l 264 315 b 42 156 142 313 42 267 b 213 -21 42 25 132 -21 b 493 136 326 -21 429 82 l 629 253 b 718 208 678 294 718 285 l 718 136 b 886 -21 718 51 772 -21 b 1047 254 1029 -21 1076 99 l 921 922 b 763 1076 903 1017 846 1076 b 501 944 672 1076 622 1040 l 222 722 b 117 557 158 671 117 617 b 265 403 117 471 183 403 b 439 513 317 403 394 421 l 607 857 b 736 1017 628 900 678 1006 b 822 903 794 1028 832 979 l 763 411 b 622 324 754 340 701 325 z m 526 1165 l 781 1117 b 806 1161 810 1111 824 1146 l 603 1328 b 444 1288 547 1374 464 1353 b 526 1165 428 1233 447 1181 z "},"à":{"ha":1111,"x_min":0,"x_max":0,"o":"m 622 324 l 264 315 b 42 156 142 313 42 267 b 213 -21 42 25 132 -21 b 493 136 326 -21 429 82 l 629 253 b 718 208 678 294 718 285 l 718 136 b 886 -21 718 51 772 -21 b 1047 254 1029 -21 1076 99 l 921 922 b 763 1076 903 1017 846 1076 b 501 944 672 1076 622 1040 l 222 722 b 117 557 158 671 117 617 b 265 403 117 471 183 403 b 439 513 317 403 394 421 l 607 857 b 736 1017 628 900 678 1006 b 822 903 794 1028 832 979 l 763 411 b 622 324 754 340 701 325 z m 526 1165 l 781 1117 b 806 1161 810 1111 824 1146 l 603 1328 b 444 1288 547 1374 464 1353 b 526 1165 428 1233 447 1181 z "},"Ā":{"ha":1111,"x_min":0,"x_max":0,"o":"m 622 324 l 264 315 b 42 156 142 313 42 267 b 213 -21 42 25 132 -21 b 493 136 326 -21 429 82 l 629 253 b 718 208 678 294 718 285 l 718 136 b 886 -21 718 51 772 -21 b 1047 254 1029 -21 1076 99 l 921 922 b 763 1076 903 1017 846 1076 b 501 944 672 1076 622 1040 l 222 722 b 117 557 158 671 117 617 b 265 403 117 471 183 403 b 439 513 317 403 394 421 l 607 857 b 736 1017 628 900 678 1006 b 822 903 794 1028 832 979 l 763 411 b 622 324 754 340 701 325 z m 556 1165 l 929 1156 b 1026 1256 1014 1153 1040 1200 b 875 1308 1014 1307 978 1324 l 558 1263 b 494 1210 518 1257 494 1240 b 556 1165 494 1178 514 1167 z "},"Ą":{"ha":1111,"x_min":0,"x_max":0,"o":"m 622 324 l 264 315 b 42 156 142 313 42 267 b 213 -21 42 25 132 -21 b 493 136 326 -21 429 82 l 629 253 b 718 208 678 294 718 285 l 718 136 b 794 0 718 79 743 26 l 774 -33 b 968 -278 696 -153 810 -278 b 1122 -172 1056 -278 1122 -239 b 990 -115 1122 -103 1051 -99 l 889 -142 b 825 -106 849 -153 825 -133 b 865 -51 825 -81 835 -67 l 938 -15 b 1047 254 1040 11 1072 119 l 921 922 b 763 1076 903 1017 846 1076 b 501 944 672 1076 622 1040 l 222 722 b 117 557 158 671 117 617 b 265 403 117 471 183 403 b 439 513 317 403 394 421 l 607 857 b 736 1017 628 900 678 1006 b 822 903 794 1028 832 979 l 763 411 b 622 324 754 340 701 325 z "},"Å":{"ha":1111,"x_min":0,"x_max":0,"o":"m 622 324 l 264 315 b 42 156 142 313 42 267 b 213 -21 42 25 132 -21 b 493 136 326 -21 429 82 l 629 253 b 718 208 678 294 718 285 l 718 136 b 886 -21 718 51 772 -21 b 1047 254 1029 -21 1076 99 l 921 922 b 763 1076 903 1017 846 1076 b 501 944 672 1076 622 1040 l 222 722 b 117 557 158 671 117 617 b 265 403 117 471 183 403 b 439 513 317 403 394 421 l 607 857 b 736 1017 628 900 678 1006 b 822 903 794 1028 832 979 l 763 411 b 622 324 754 340 701 325 z m 690 1135 b 914 1217 783 1118 896 1114 b 813 1335 926 1288 879 1324 b 574 1257 718 1350 592 1354 b 690 1135 564 1203 578 1156 z m 771 1182 b 675 1225 731 1171 682 1171 b 707 1288 671 1263 686 1281 b 811 1246 747 1300 804 1297 b 771 1182 815 1218 810 1193 z "},"å":{"ha":1111,"x_min":0,"x_max":0,"o":"m 622 324 l 264 315 b 42 156 142 313 42 267 b 213 -21 42 25 132 -21 b 493 136 326 -21 429 82 l 629 253 b 718 208 678 294 718 285 l 718 136 b 886 -21 718 51 772 -21 b 1047 254 1029 -21 1076 99 l 921 922 b 763 1076 903 1017 846 1076 b 501 944 672 1076 622 1040 l 222 722 b 117 557 158 671 117 617 b 265 403 117 471 183 403 b 439 513 317 403 394 421 l 607 857 b 736 1017 628 900 678 1006 b 822 903 794 1028 832 979 l 763 411 b 622 324 754 340 701 325 z m 690 1135 b 914 1217 783 1118 896 1114 b 813 1335 926 1288 879 1324 b 574 1257 718 1350 592 1354 b 690 1135 564 1203 578 1156 z m 771 1182 b 675 1225 731 1171 682 1171 b 707 1288 671 1263 686 1281 b 811 1246 747 1300 804 1297 b 771 1182 815 1218 810 1193 z "},"Ã":{"ha":1111,"x_min":0,"x_max":0,"o":"m 622 324 l 264 315 b 42 156 142 313 42 267 b 213 -21 42 25 132 -21 b 493 136 326 -21 429 82 l 629 253 b 718 208 678 294 718 285 l 718 136 b 886 -21 718 51 772 -21 b 1047 254 1029 -21 1076 99 l 921 922 b 763 1076 903 1017 846 1076 b 501 944 672 1076 622 1040 l 222 722 b 117 557 158 671 117 617 b 265 403 117 471 183 403 b 439 513 317 403 394 421 l 607 857 b 736 1017 628 900 678 1006 b 822 903 794 1028 832 979 l 763 411 b 622 324 754 340 701 325 z m 788 1218 l 764 1244 b 621 1332 708 1307 671 1332 b 415 1183 492 1332 382 1290 b 574 1164 438 1111 535 1107 l 626 1240 b 681 1240 643 1265 660 1265 l 707 1208 b 847 1126 757 1147 797 1126 b 1047 1268 976 1126 1060 1161 b 894 1294 1039 1340 942 1363 l 842 1218 b 788 1218 825 1193 808 1196 z "},"ã":{"ha":1111,"x_min":0,"x_max":0,"o":"m 622 324 l 264 315 b 42 156 142 313 42 267 b 213 -21 42 25 132 -21 b 493 136 326 -21 429 82 l 629 253 b 718 208 678 294 718 285 l 718 136 b 886 -21 718 51 772 -21 b 1047 254 1029 -21 1076 99 l 921 922 b 763 1076 903 1017 846 1076 b 501 944 672 1076 622 1040 l 222 722 b 117 557 158 671 117 617 b 265 403 117 471 183 403 b 439 513 317 403 394 421 l 607 857 b 736 1017 628 900 678 1006 b 822 903 794 1028 832 979 l 763 411 b 622 324 754 340 701 325 z m 788 1218 l 764 1244 b 621 1332 708 1307 671 1332 b 415 1183 492 1332 382 1290 b 574 1164 438 1111 535 1107 l 626 1240 b 681 1240 643 1265 660 1265 l 707 1208 b 847 1126 757 1147 797 1126 b 1047 1268 976 1126 1060 1161 b 894 1294 1039 1340 942 1363 l 842 1218 b 788 1218 825 1193 808 1196 z "},"Æ":{"ha":1925,"x_min":0,"x_max":0,"o":"m 956 744 l 921 922 b 763 1076 903 1015 846 1076 b 501 944 672 1076 622 1040 l 222 722 b 117 557 158 671 117 617 b 265 403 117 471 183 403 b 439 513 317 403 394 421 l 607 857 b 736 1017 628 900 678 1006 b 822 903 794 1028 832 979 l 763 411 b 622 324 754 340 701 325 l 264 315 b 42 156 142 313 42 267 b 213 -21 42 25 132 -21 b 493 136 326 -21 429 82 l 629 253 b 718 208 678 294 718 285 l 718 136 b 886 -21 718 51 772 -21 b 1047 254 1029 -21 1076 97 l 1040 292 b 1063 344 1033 326 1046 344 b 1114 321 1078 344 1089 340 l 1440 63 b 1625 -19 1504 13 1567 -19 b 1771 133 1711 -19 1771 51 b 1594 293 1771 224 1694 271 l 1078 407 b 1013 465 1032 417 1007 436 b 1097 496 1018 496 1043 501 l 1747 436 b 1897 554 1836 428 1897 454 b 1747 674 1897 656 1836 689 l 1074 556 b 989 586 1019 546 994 556 b 1054 644 983 615 1008 633 l 1525 760 b 1701 919 1625 785 1701 829 b 1556 1072 1701 1001 1642 1072 b 1371 986 1497 1072 1433 1042 l 1064 717 b 1001 689 1039 694 1028 689 b 956 744 978 689 963 710 z "},"æ":{"ha":1925,"x_min":0,"x_max":0,"o":"m 956 744 l 921 922 b 763 1076 903 1015 846 1076 b 501 944 672 1076 622 1040 l 222 722 b 117 557 158 671 117 617 b 265 403 117 471 183 403 b 439 513 317 403 394 421 l 607 857 b 736 1017 628 900 678 1006 b 822 903 794 1028 832 979 l 763 411 b 622 324 754 340 701 325 l 264 315 b 42 156 142 313 42 267 b 213 -21 42 25 132 -21 b 493 136 326 -21 429 82 l 629 253 b 718 208 678 294 718 285 l 718 136 b 886 -21 718 51 772 -21 b 1047 254 1029 -21 1076 97 l 1040 292 b 1063 344 1033 326 1046 344 b 1114 321 1078 344 1089 340 l 1440 63 b 1625 -19 1504 13 1567 -19 b 1771 133 1711 -19 1771 51 b 1594 293 1771 224 1694 271 l 1078 407 b 1013 465 1032 417 1007 436 b 1097 496 1018 496 1043 501 l 1747 436 b 1897 554 1836 428 1897 454 b 1747 674 1897 656 1836 689 l 1074 556 b 989 586 1019 546 994 556 b 1054 644 983 615 1008 633 l 1525 760 b 1701 919 1625 785 1701 829 b 1556 1072 1701 1001 1642 1072 b 1371 986 1497 1072 1433 1042 l 1064 717 b 1001 689 1039 694 1028 689 b 956 744 978 689 963 710 z "},"B":{"ha":1200,"x_min":0,"x_max":0,"o":"m 800 672 l 917 667 b 1136 863 1026 661 1136 738 b 764 1056 1136 1008 1025 1056 l 589 1056 b 63 522 263 1056 63 863 b 683 -21 63 210 261 -21 b 1144 328 954 -21 1144 119 b 926 554 1144 415 1110 525 l 775 578 b 736 624 749 582 736 604 b 800 672 736 649 758 674 z m 901 231 l 351 226 b 185 324 265 226 208 264 b 207 486 165 372 168 432 l 489 869 b 807 942 603 1024 742 1019 b 744 707 863 875 865 779 l 324 457 b 279 369 282 432 268 406 b 371 336 288 343 319 326 l 872 436 b 1057 339 989 460 1057 424 b 901 231 1057 283 1003 232 z "},"b":{"ha":1200,"x_min":0,"x_max":0,"o":"m 800 672 l 917 667 b 1136 863 1026 661 1136 738 b 764 1056 1136 1008 1025 1056 l 589 1056 b 63 522 263 1056 63 863 b 683 -21 63 210 261 -21 b 1144 328 954 -21 1144 119 b 926 554 1144 415 1110 525 l 775 578 b 736 624 749 582 736 604 b 800 672 736 649 758 674 z m 901 231 l 351 226 b 185 324 265 226 208 264 b 207 486 165 372 168 432 l 489 869 b 807 942 603 1024 742 1019 b 744 707 863 875 865 779 l 324 457 b 279 369 282 432 268 406 b 371 336 288 343 319 326 l 872 436 b 1057 339 989 460 1057 424 b 901 231 1057 283 1003 232 z "},"C":{"ha":1167,"x_min":0,"x_max":0,"o":"m 563 -21 b 1069 279 826 -21 1069 157 b 828 328 1069 381 936 454 l 624 89 b 449 274 497 -58 254 171 l 525 314 b 503 526 642 376 601 499 l 253 596 b 251 696 194 613 197 663 l 700 968 b 788 903 764 1007 799 965 l 764 771 b 867 558 750 692 750 571 b 1050 731 1008 543 1050 633 b 626 1076 1050 911 893 1076 b 83 508 307 1076 83 839 b 563 -21 83 211 235 -21 z "},"c":{"ha":1167,"x_min":0,"x_max":0,"o":"m 563 -21 b 1069 279 826 -21 1069 157 b 828 328 1069 381 936 454 l 624 89 b 449 274 497 -58 254 171 l 525 314 b 503 526 642 376 601 499 l 253 596 b 251 696 194 613 197 663 l 700 968 b 788 903 764 1007 799 965 l 764 771 b 867 558 750 692 750 571 b 1050 731 1008 543 1050 633 b 626 1076 1050 911 893 1076 b 83 508 307 1076 83 839 b 563 -21 83 211 235 -21 z "},"Ć":{"ha":1167,"x_min":0,"x_max":0,"o":"m 563 -21 b 1069 279 826 -21 1069 157 b 828 328 1069 381 936 454 l 624 89 b 449 274 497 -58 254 171 l 525 314 b 503 526 642 376 601 499 l 253 596 b 251 696 194 613 197 663 l 700 968 b 788 903 764 1007 799 965 l 764 771 b 867 558 750 692 750 571 b 1050 731 1008 543 1050 633 b 626 1076 1050 911 893 1076 b 83 508 307 1076 83 839 b 563 -21 83 211 235 -21 z m 578 1117 l 832 1165 b 914 1288 911 1181 931 1233 b 756 1328 894 1353 811 1374 l 553 1161 b 578 1117 535 1146 549 1111 z "},"Č":{"ha":1167,"x_min":0,"x_max":0,"o":"m 563 -21 b 1069 279 826 -21 1069 157 b 828 328 1069 381 936 454 l 624 89 b 449 274 497 -58 254 171 l 525 314 b 503 526 642 376 601 499 l 253 596 b 251 696 194 613 197 663 l 700 968 b 788 903 764 1007 799 965 l 764 771 b 867 558 750 692 750 571 b 1050 731 1008 543 1050 633 b 626 1076 1050 911 893 1076 b 83 508 307 1076 83 839 b 563 -21 83 211 235 -21 z m 626 1163 b 590 1185 614 1163 601 1169 l 513 1297 b 438 1349 483 1339 463 1349 b 349 1239 383 1349 349 1310 b 438 1136 349 1186 372 1142 b 626 1128 500 1131 564 1126 b 815 1136 689 1126 753 1131 b 904 1239 881 1142 904 1186 b 815 1349 904 1310 869 1349 b 740 1297 790 1349 769 1339 l 663 1185 b 626 1163 651 1169 639 1163 z "},"Ç":{"ha":1167,"x_min":0,"x_max":0,"o":"m 315 -157 b 467 -267 307 -214 363 -246 b 810 -147 649 -300 810 -261 b 689 -40 810 -87 746 -40 b 611 -53 653 -40 632 -53 b 603 -19 596 -53 593 -47 b 1069 279 850 -3 1069 163 b 828 328 1069 381 936 454 l 624 89 b 449 274 497 -58 254 171 l 525 314 b 503 526 642 376 601 499 l 253 596 b 251 696 194 613 197 663 l 700 968 b 788 903 764 1007 799 965 l 764 771 b 867 558 750 692 750 571 b 1050 731 1008 543 1050 633 b 626 1076 1050 911 893 1076 b 83 508 307 1076 83 839 b 528 -19 83 222 224 -4 l 483 -133 l 451 -107 b 315 -157 400 -64 325 -89 z m 624 -215 b 590 -140 571 -215 556 -162 b 688 -110 632 -114 660 -110 b 735 -150 717 -110 735 -125 b 624 -215 735 -182 688 -215 z "},"ç":{"ha":1167,"x_min":0,"x_max":0,"o":"m 315 -157 b 467 -267 307 -214 363 -246 b 810 -147 649 -300 810 -261 b 689 -40 810 -87 746 -40 b 611 -53 653 -40 632 -53 b 603 -19 596 -53 593 -47 b 1069 279 850 -3 1069 163 b 828 328 1069 381 936 454 l 624 89 b 449 274 497 -58 254 171 l 525 314 b 503 526 642 376 601 499 l 253 596 b 251 696 194 613 197 663 l 700 968 b 788 903 764 1007 799 965 l 764 771 b 867 558 750 692 750 571 b 1050 731 1008 543 1050 633 b 626 1076 1050 911 893 1076 b 83 508 307 1076 83 839 b 528 -19 83 222 224 -4 l 483 -133 l 451 -107 b 315 -157 400 -64 325 -89 z m 624 -215 b 590 -140 571 -215 556 -162 b 688 -110 632 -114 660 -110 b 735 -150 717 -110 735 -125 b 624 -215 735 -182 688 -215 z "},"Ċ":{"ha":1167,"x_min":0,"x_max":0,"o":"m 563 -21 b 1069 279 826 -21 1069 157 b 828 328 1069 381 936 454 l 624 89 b 449 274 497 -58 254 171 l 525 314 b 503 526 642 376 601 499 l 253 596 b 251 696 194 613 197 663 l 700 968 b 788 903 764 1007 799 965 l 764 771 b 867 558 750 692 750 571 b 1050 731 1008 543 1050 633 b 626 1076 1050 911 893 1076 b 83 508 307 1076 83 839 b 563 -21 83 211 235 -21 z m 776 1214 b 703 1332 789 1285 751 1319 b 492 1254 619 1353 507 1351 b 581 1132 483 1200 494 1153 b 776 1214 663 1111 760 1111 z "},"D":{"ha":1201,"x_min":0,"x_max":0,"o":"m 699 1056 l 217 1056 b 76 910 125 1056 76 982 b 190 779 76 846 113 793 b 250 699 253 768 274 747 l 199 594 b 492 -19 61 315 133 -18 b 1118 521 915 -21 1118 164 b 699 1056 1118 861 1000 1056 z m 939 714 l 699 135 b 461 149 656 32 501 6 l 318 651 b 450 831 292 746 332 808 l 797 897 b 939 714 903 918 994 849 z "},"d":{"ha":1201,"x_min":0,"x_max":0,"o":"m 699 1056 l 217 1056 b 76 910 125 1056 76 982 b 190 779 76 846 113 793 b 250 699 253 768 274 747 l 199 594 b 492 -19 61 315 133 -18 b 1118 521 915 -21 1118 164 b 699 1056 1118 861 1000 1056 z m 939 714 l 699 135 b 461 149 656 32 501 6 l 318 651 b 450 831 292 746 332 808 l 797 897 b 939 714 903 918 994 849 z "},"Ď":{"ha":1201,"x_min":0,"x_max":0,"o":"m 699 1056 l 217 1056 b 76 910 125 1056 76 982 b 190 779 76 846 113 793 b 250 699 253 768 274 747 l 199 594 b 492 -19 61 315 133 -18 b 1118 521 915 -21 1118 164 b 699 1056 1118 861 1000 1056 z m 939 714 l 699 135 b 461 149 656 32 501 6 l 318 651 b 450 831 292 746 332 808 l 797 897 b 939 714 903 918 994 849 z m 601 1163 b 565 1185 589 1163 576 1169 l 488 1297 b 413 1349 458 1339 438 1349 b 324 1239 358 1349 324 1310 b 413 1136 324 1186 347 1142 b 601 1128 475 1131 539 1126 b 790 1136 664 1126 728 1131 b 879 1239 856 1142 879 1186 b 790 1349 879 1310 844 1349 b 715 1297 765 1349 744 1339 l 638 1185 b 601 1163 626 1169 614 1163 z "},"Đ":{"ha":1204,"x_min":0,"x_max":0,"o":"m 107 551 l 168 550 b 240 503 235 550 240 522 b 208 436 240 478 232 457 b 140 314 179 411 140 381 b 494 -19 140 174 219 -18 b 1121 521 918 -21 1121 164 b 701 1056 1121 861 1003 1056 l 219 1056 b 79 910 128 1056 79 982 b 193 779 79 846 115 793 b 258 721 239 772 258 749 b 172 622 258 672 225 636 l 110 607 b 107 551 60 596 71 551 z m 276 482 b 379 546 278 513 301 542 l 647 542 b 618 725 813 539 804 768 l 438 683 l 386 675 b 314 738 335 667 314 696 b 453 826 314 779 365 808 l 800 897 b 942 714 906 918 997 849 l 701 135 b 464 149 658 32 504 6 l 429 271 b 313 422 403 363 353 403 b 276 482 288 435 276 456 z "},"Ð":{"ha":1204,"x_min":0,"x_max":0,"o":"m 107 551 l 168 550 b 240 503 235 550 240 522 b 208 436 240 478 232 457 b 140 314 179 411 140 381 b 494 -19 140 174 219 -18 b 1121 521 918 -21 1121 164 b 701 1056 1121 861 1003 1056 l 219 1056 b 79 910 128 1056 79 982 b 193 779 79 846 115 793 b 258 721 239 772 258 749 b 172 622 258 672 225 636 l 110 607 b 107 551 60 596 71 551 z m 276 482 b 379 546 278 513 301 542 l 647 542 b 618 725 813 539 804 768 l 438 683 l 386 675 b 314 738 335 667 314 696 b 453 826 314 779 365 808 l 800 897 b 942 714 906 918 997 849 l 701 135 b 464 149 658 32 504 6 l 429 271 b 313 422 403 363 353 403 b 276 482 288 435 276 456 z "},"ð":{"ha":1204,"x_min":0,"x_max":0,"o":"m 107 551 l 168 550 b 240 503 235 550 240 522 b 208 436 240 478 232 457 b 140 314 179 411 140 381 b 494 -19 140 174 219 -18 b 1121 521 918 -21 1121 164 b 701 1056 1121 861 1003 1056 l 219 1056 b 79 910 128 1056 79 982 b 193 779 79 846 115 793 b 258 721 239 772 258 749 b 172 622 258 672 225 636 l 110 607 b 107 551 60 596 71 551 z m 276 482 b 379 546 278 513 301 542 l 647 542 b 618 725 813 539 804 768 l 438 683 l 386 675 b 314 738 335 667 314 696 b 453 826 314 779 365 808 l 800 897 b 942 714 906 918 997 849 l 701 135 b 464 149 658 32 504 6 l 429 271 b 313 422 403 363 353 403 b 276 482 288 435 276 456 z "},"E":{"ha":1138,"x_min":0,"x_max":0,"o":"m 933 199 l 322 144 b 206 214 242 138 206 175 b 322 293 206 254 238 282 l 819 354 b 961 497 925 367 961 431 b 819 653 961 549 942 614 l 278 825 b 201 908 213 846 201 874 b 307 972 201 939 239 996 l 875 774 b 1061 849 994 732 1057 765 b 953 1007 1065 928 1026 972 b 478 1075 872 1044 664 1076 b 126 894 293 1075 126 1033 b 224 749 126 843 161 793 l 638 461 b 601 397 693 422 665 371 l 324 511 b 69 374 188 567 69 500 b 728 -22 69 121 372 -22 b 1061 122 976 -22 1061 35 b 933 199 1061 167 1038 208 z "},"e":{"ha":1138,"x_min":0,"x_max":0,"o":"m 933 199 l 322 144 b 206 214 242 138 206 175 b 322 293 206 254 238 282 l 819 354 b 961 497 925 367 961 431 b 819 653 961 549 942 614 l 278 825 b 201 908 213 846 201 874 b 307 972 201 939 239 996 l 875 774 b 1061 849 994 732 1057 765 b 953 1007 1065 928 1026 972 b 478 1075 872 1044 664 1076 b 126 894 293 1075 126 1033 b 224 749 126 843 161 793 l 638 461 b 601 397 693 422 665 371 l 324 511 b 69 374 188 567 69 500 b 728 -22 69 121 372 -22 b 1061 122 976 -22 1061 35 b 933 199 1061 167 1038 208 z "},"É":{"ha":1138,"x_min":0,"x_max":0,"o":"m 933 199 l 322 144 b 206 214 242 138 206 175 b 322 293 206 254 238 282 l 819 354 b 961 497 925 367 961 431 b 819 653 961 549 942 614 l 278 825 b 201 908 213 846 201 874 b 307 972 201 939 239 996 l 875 774 b 1061 849 994 732 1057 765 b 953 1007 1065 928 1026 972 b 478 1075 872 1044 664 1076 b 126 894 293 1075 126 1033 b 224 749 126 843 161 793 l 638 461 b 601 397 693 422 665 371 l 324 511 b 69 374 188 567 69 500 b 728 -22 69 121 372 -22 b 1061 122 976 -22 1061 35 b 933 199 1061 167 1038 208 z m 554 1117 l 808 1165 b 890 1288 888 1181 907 1233 b 732 1328 871 1353 788 1374 l 529 1161 b 554 1117 511 1146 525 1111 z "},"é":{"ha":1138,"x_min":0,"x_max":0,"o":"m 933 199 l 322 144 b 206 214 242 138 206 175 b 322 293 206 254 238 282 l 819 354 b 961 497 925 367 961 431 b 819 653 961 549 942 614 l 278 825 b 201 908 213 846 201 874 b 307 972 201 939 239 996 l 875 774 b 1061 849 994 732 1057 765 b 953 1007 1065 928 1026 972 b 478 1075 872 1044 664 1076 b 126 894 293 1075 126 1033 b 224 749 126 843 161 793 l 638 461 b 601 397 693 422 665 371 l 324 511 b 69 374 188 567 69 500 b 728 -22 69 121 372 -22 b 1061 122 976 -22 1061 35 b 933 199 1061 167 1038 208 z m 554 1117 l 808 1165 b 890 1288 888 1181 907 1233 b 732 1328 871 1353 788 1374 l 529 1161 b 554 1117 511 1146 525 1111 z "},"Ě":{"ha":1138,"x_min":0,"x_max":0,"o":"m 933 199 l 322 144 b 206 214 242 138 206 175 b 322 293 206 254 238 282 l 819 354 b 961 497 925 367 961 431 b 819 653 961 549 942 614 l 278 825 b 201 908 213 846 201 874 b 307 972 201 939 239 996 l 875 774 b 1061 849 994 732 1057 765 b 953 1007 1065 928 1026 972 b 478 1075 872 1044 664 1076 b 126 894 293 1075 126 1033 b 224 749 126 843 161 793 l 638 461 b 601 397 693 422 665 371 l 324 511 b 69 374 188 567 69 500 b 728 -22 69 121 372 -22 b 1061 122 976 -22 1061 35 b 933 199 1061 167 1038 208 z m 603 1163 b 567 1185 590 1163 578 1169 l 489 1297 b 414 1349 460 1339 439 1349 b 325 1239 360 1349 325 1310 b 414 1136 325 1186 349 1142 b 603 1128 476 1131 540 1126 b 792 1136 665 1126 729 1131 b 881 1239 857 1142 881 1186 b 792 1349 881 1310 846 1349 b 717 1297 767 1349 746 1339 l 639 1185 b 603 1163 628 1169 615 1163 z "},"Ê":{"ha":1138,"x_min":0,"x_max":0,"o":"m 933 199 l 322 144 b 206 214 242 138 206 175 b 322 293 206 254 238 282 l 819 354 b 961 497 925 367 961 431 b 819 653 961 549 942 614 l 278 825 b 201 908 213 846 201 874 b 307 972 201 939 239 996 l 875 774 b 1061 849 994 732 1057 765 b 953 1007 1065 928 1026 972 b 478 1075 872 1044 664 1076 b 126 894 293 1075 126 1033 b 224 749 126 843 161 793 l 638 461 b 601 397 693 422 665 371 l 324 511 b 69 374 188 567 69 500 b 728 -22 69 121 372 -22 b 1061 122 976 -22 1061 35 b 933 199 1061 167 1038 208 z m 610 1314 b 646 1292 622 1314 635 1307 l 724 1179 b 799 1128 753 1138 774 1128 b 888 1238 853 1128 888 1167 b 799 1340 888 1290 864 1335 b 610 1349 736 1346 672 1350 b 421 1340 547 1350 483 1346 b 332 1238 356 1335 332 1290 b 421 1128 332 1167 367 1128 b 496 1179 446 1128 467 1138 l 574 1292 b 610 1314 585 1307 597 1314 z "},"ê":{"ha":1138,"x_min":0,"x_max":0,"o":"m 933 199 l 322 144 b 206 214 242 138 206 175 b 322 293 206 254 238 282 l 819 354 b 961 497 925 367 961 431 b 819 653 961 549 942 614 l 278 825 b 201 908 213 846 201 874 b 307 972 201 939 239 996 l 875 774 b 1061 849 994 732 1057 765 b 953 1007 1065 928 1026 972 b 478 1075 872 1044 664 1076 b 126 894 293 1075 126 1033 b 224 749 126 843 161 793 l 638 461 b 601 397 693 422 665 371 l 324 511 b 69 374 188 567 69 500 b 728 -22 69 121 372 -22 b 1061 122 976 -22 1061 35 b 933 199 1061 167 1038 208 z m 610 1314 b 646 1292 622 1314 635 1307 l 724 1179 b 799 1128 753 1138 774 1128 b 888 1238 853 1128 888 1167 b 799 1340 888 1290 864 1335 b 610 1349 736 1346 672 1350 b 421 1340 547 1350 483 1346 b 332 1238 356 1335 332 1290 b 421 1128 332 1167 367 1128 b 496 1179 446 1128 467 1138 l 574 1292 b 610 1314 585 1307 597 1314 z "},"Ë":{"ha":1138,"x_min":0,"x_max":0,"o":"m 933 199 l 322 144 b 206 214 242 138 206 175 b 322 293 206 254 238 282 l 819 354 b 961 497 925 367 961 431 b 819 653 961 549 942 614 l 278 825 b 201 908 213 846 201 874 b 307 972 201 939 239 996 l 875 774 b 1061 849 994 732 1057 765 b 953 1007 1065 928 1026 972 b 478 1075 872 1044 664 1076 b 126 894 293 1075 126 1033 b 224 749 126 843 161 793 l 638 461 b 601 397 693 422 665 371 l 324 511 b 69 374 188 567 69 500 b 728 -22 69 121 372 -22 b 1061 122 976 -22 1061 35 b 933 199 1061 167 1038 208 z m 882 1224 b 838 1332 901 1279 876 1314 b 651 1297 772 1361 678 1375 b 708 1183 638 1254 639 1214 b 882 1224 772 1154 853 1142 z m 581 1288 b 485 1354 567 1346 526 1361 b 349 1224 414 1343 328 1304 b 457 1160 360 1181 383 1147 b 581 1288 528 1171 601 1204 z "},"ë":{"ha":1138,"x_min":0,"x_max":0,"o":"m 933 199 l 322 144 b 206 214 242 138 206 175 b 322 293 206 254 238 282 l 819 354 b 961 497 925 367 961 431 b 819 653 961 549 942 614 l 278 825 b 201 908 213 846 201 874 b 307 972 201 939 239 996 l 875 774 b 1061 849 994 732 1057 765 b 953 1007 1065 928 1026 972 b 478 1075 872 1044 664 1076 b 126 894 293 1075 126 1033 b 224 749 126 843 161 793 l 638 461 b 601 397 693 422 665 371 l 324 511 b 69 374 188 567 69 500 b 728 -22 69 121 372 -22 b 1061 122 976 -22 1061 35 b 933 199 1061 167 1038 208 z m 882 1224 b 838 1332 901 1279 876 1314 b 651 1297 772 1361 678 1375 b 708 1183 638 1254 639 1214 b 882 1224 772 1154 853 1142 z m 581 1288 b 485 1354 567 1346 526 1361 b 349 1224 414 1343 328 1304 b 457 1160 360 1181 383 1147 b 581 1288 528 1171 601 1204 z "},"Ė":{"ha":1138,"x_min":0,"x_max":0,"o":"m 933 199 l 322 144 b 206 214 242 138 206 175 b 322 293 206 254 238 282 l 819 354 b 961 497 925 367 961 431 b 819 653 961 549 942 614 l 278 825 b 201 908 213 846 201 874 b 307 972 201 939 239 996 l 875 774 b 1061 849 994 732 1057 765 b 953 1007 1065 928 1026 972 b 478 1075 872 1044 664 1076 b 126 894 293 1075 126 1033 b 224 749 126 843 161 793 l 638 461 b 601 397 693 422 665 371 l 324 511 b 69 374 188 567 69 500 b 728 -22 69 121 372 -22 b 1061 122 976 -22 1061 35 b 933 199 1061 167 1038 208 z m 753 1214 b 679 1332 765 1285 728 1319 b 468 1254 596 1353 483 1351 b 557 1132 460 1200 471 1153 b 753 1214 639 1111 736 1111 z "},"È":{"ha":1138,"x_min":0,"x_max":0,"o":"m 933 199 l 322 144 b 206 214 242 138 206 175 b 322 293 206 254 238 282 l 819 354 b 961 497 925 367 961 431 b 819 653 961 549 942 614 l 278 825 b 201 908 213 846 201 874 b 307 972 201 939 239 996 l 875 774 b 1061 849 994 732 1057 765 b 953 1007 1065 928 1026 972 b 478 1075 872 1044 664 1076 b 126 894 293 1075 126 1033 b 224 749 126 843 161 793 l 638 461 b 601 397 693 422 665 371 l 324 511 b 69 374 188 567 69 500 b 728 -22 69 121 372 -22 b 1061 122 976 -22 1061 35 b 933 199 1061 167 1038 208 z m 396 1165 l 650 1117 b 675 1161 679 1111 693 1146 l 472 1328 b 314 1288 417 1374 333 1353 b 396 1165 297 1233 317 1181 z "},"è":{"ha":1138,"x_min":0,"x_max":0,"o":"m 933 199 l 322 144 b 206 214 242 138 206 175 b 322 293 206 254 238 282 l 819 354 b 961 497 925 367 961 431 b 819 653 961 549 942 614 l 278 825 b 201 908 213 846 201 874 b 307 972 201 939 239 996 l 875 774 b 1061 849 994 732 1057 765 b 953 1007 1065 928 1026 972 b 478 1075 872 1044 664 1076 b 126 894 293 1075 126 1033 b 224 749 126 843 161 793 l 638 461 b 601 397 693 422 665 371 l 324 511 b 69 374 188 567 69 500 b 728 -22 69 121 372 -22 b 1061 122 976 -22 1061 35 b 933 199 1061 167 1038 208 z m 396 1165 l 650 1117 b 675 1161 679 1111 693 1146 l 472 1328 b 314 1288 417 1374 333 1353 b 396 1165 297 1233 317 1181 z "},"Ē":{"ha":1138,"x_min":0,"x_max":0,"o":"m 933 199 l 322 144 b 206 214 242 138 206 175 b 322 293 206 254 238 282 l 819 354 b 961 497 925 367 961 431 b 819 653 961 549 942 614 l 278 825 b 201 908 213 846 201 874 b 307 972 201 939 239 996 l 875 774 b 1061 849 994 732 1057 765 b 953 1007 1065 928 1026 972 b 478 1075 872 1044 664 1076 b 126 894 293 1075 126 1033 b 224 749 126 843 161 793 l 638 461 b 601 397 693 422 665 371 l 324 511 b 69 374 188 567 69 500 b 728 -22 69 121 372 -22 b 1061 122 976 -22 1061 35 b 933 199 1061 167 1038 208 z m 425 1165 l 799 1156 b 896 1256 883 1153 910 1200 b 744 1308 883 1307 847 1324 l 428 1263 b 364 1210 388 1257 364 1240 b 425 1165 364 1178 383 1167 z "},"Ę":{"ha":1138,"x_min":0,"x_max":0,"o":"m 933 199 l 322 144 b 206 214 242 138 206 175 b 322 293 206 254 238 282 l 819 354 b 961 497 925 367 961 431 b 819 653 961 549 942 614 l 278 825 b 201 908 213 846 201 874 b 307 972 201 939 239 996 l 875 774 b 1061 849 994 732 1057 765 b 953 1007 1065 928 1026 972 b 478 1075 872 1044 664 1076 b 126 894 293 1075 126 1033 b 224 749 126 843 161 793 l 638 461 b 601 397 693 422 665 371 l 324 511 b 69 374 188 567 69 500 b 728 -22 69 121 372 -22 l 754 -22 l 747 -33 b 942 -278 669 -153 783 -278 b 1096 -172 1029 -278 1096 -239 b 964 -115 1096 -103 1025 -99 l 863 -142 b 799 -106 822 -153 799 -133 b 839 -51 799 -81 808 -67 l 940 0 b 1061 122 1028 24 1061 67 b 933 199 1061 167 1038 208 z "},"F":{"ha":1050,"x_min":0,"x_max":0,"o":"m 822 494 l 324 817 b 283 921 274 849 268 888 b 431 944 301 956 344 983 l 682 831 b 903 750 749 800 854 750 b 1050 908 985 750 1050 789 b 871 1056 1050 1011 964 1056 l 388 1056 b 167 840 264 1056 183 979 l 85 151 b 228 -21 72 43 131 -21 b 349 207 360 -21 431 81 l 211 419 b 294 539 163 493 208 571 l 675 375 b 883 371 774 332 851 314 b 822 494 910 419 879 458 z "},"f":{"ha":1050,"x_min":0,"x_max":0,"o":"m 822 494 l 324 817 b 283 921 274 849 268 888 b 431 944 301 956 344 983 l 682 831 b 903 750 749 800 854 750 b 1050 908 985 750 1050 789 b 871 1056 1050 1011 964 1056 l 388 1056 b 167 840 264 1056 183 979 l 85 151 b 228 -21 72 43 131 -21 b 349 207 360 -21 431 81 l 211 419 b 294 539 163 493 208 571 l 675 375 b 883 371 774 332 851 314 b 822 494 910 419 879 458 z "},"G":{"ha":1243,"x_min":0,"x_max":0,"o":"m 486 739 l 446 790 b 486 1001 394 854 389 960 b 706 949 569 1038 660 1008 l 860 746 b 1099 843 947 631 1138 713 b 617 1076 1056 990 881 1076 b 83 508 301 1076 83 869 b 400 -21 83 157 236 -21 b 690 165 525 -21 583 25 l 918 463 b 1015 532 968 529 989 532 b 1051 456 1046 532 1081 500 l 903 226 b 996 -21 811 86 893 -21 b 1160 189 1099 -21 1167 39 l 1146 481 b 907 563 1140 594 1040 642 l 319 213 b 225 389 213 149 121 318 l 449 542 b 486 739 533 599 539 672 z "},"g":{"ha":1243,"x_min":0,"x_max":0,"o":"m 486 739 l 446 790 b 486 1001 394 854 389 960 b 706 949 569 1038 660 1008 l 860 746 b 1099 843 947 631 1138 713 b 617 1076 1056 990 881 1076 b 83 508 301 1076 83 869 b 400 -21 83 157 236 -21 b 690 165 525 -21 583 25 l 918 463 b 1015 532 968 529 989 532 b 1051 456 1046 532 1081 500 l 903 226 b 996 -21 811 86 893 -21 b 1160 189 1099 -21 1167 39 l 1146 481 b 907 563 1140 594 1040 642 l 319 213 b 225 389 213 149 121 318 l 449 542 b 486 739 533 599 539 672 z "},"Ğ":{"ha":1243,"x_min":0,"x_max":0,"o":"m 486 739 l 446 790 b 486 1001 394 854 389 960 b 706 949 569 1038 660 1008 l 860 746 b 1099 843 947 631 1138 713 b 617 1076 1056 990 881 1076 b 83 508 301 1076 83 869 b 400 -21 83 157 236 -21 b 690 165 525 -21 583 25 l 918 463 b 1015 532 968 529 989 532 b 1051 456 1046 532 1081 500 l 903 226 b 996 -21 811 86 893 -21 b 1160 189 1099 -21 1167 39 l 1146 481 b 907 563 1140 594 1040 642 l 319 213 b 225 389 213 149 121 318 l 449 542 b 486 739 533 599 539 672 z m 626 1121 b 897 1281 785 1117 897 1157 b 826 1349 897 1326 860 1349 b 733 1283 785 1349 754 1332 b 626 1160 704 1215 686 1160 b 519 1283 567 1160 549 1215 b 426 1349 499 1332 468 1349 b 356 1281 393 1349 356 1326 b 626 1121 356 1157 468 1117 z "},"Ģ":{"ha":1243,"x_min":0,"x_max":0,"o":"m 486 739 l 446 790 b 486 1001 394 854 389 960 b 706 949 569 1038 660 1008 l 860 746 b 1099 843 947 631 1138 713 b 617 1076 1056 990 881 1076 b 83 508 301 1076 83 869 b 400 -21 83 157 236 -21 b 690 165 525 -21 583 25 l 918 463 b 1015 532 968 529 989 532 b 1051 456 1046 532 1081 500 l 903 226 b 996 -21 811 86 893 -21 b 1160 189 1099 -21 1167 39 l 1146 481 b 907 563 1140 594 1040 642 l 319 213 b 225 389 213 149 121 318 l 449 542 b 486 739 533 599 539 672 z m 579 -110 l 571 -306 b 619 -340 569 -342 594 -356 l 814 -221 b 771 -36 893 -172 869 -71 b 579 -110 693 -8 583 -11 z "},"Ġ":{"ha":1243,"x_min":0,"x_max":0,"o":"m 486 739 l 446 790 b 486 1001 394 854 389 960 b 706 949 569 1038 660 1008 l 860 746 b 1099 843 947 631 1138 713 b 617 1076 1056 990 881 1076 b 83 508 301 1076 83 869 b 400 -21 83 157 236 -21 b 690 165 525 -21 583 25 l 918 463 b 1015 532 968 529 989 532 b 1051 456 1046 532 1081 500 l 903 226 b 996 -21 811 86 893 -21 b 1160 189 1099 -21 1167 39 l 1146 481 b 907 563 1140 594 1040 642 l 319 213 b 225 389 213 149 121 318 l 449 542 b 486 739 533 599 539 672 z m 776 1214 b 703 1332 789 1285 751 1319 b 492 1254 619 1353 507 1351 b 581 1132 483 1200 494 1153 b 776 1214 663 1111 760 1111 z "},"H":{"ha":1203,"x_min":0,"x_max":0,"o":"m 974 1076 b 810 939 861 1076 810 1015 b 878 801 810 896 835 851 l 938 733 b 982 642 964 704 992 688 b 886 588 974 601 943 588 l 296 588 b 215 644 249 588 215 607 b 264 715 215 671 222 692 l 422 806 b 506 949 471 833 506 886 b 357 1076 506 1024 451 1076 b 158 844 208 1076 169 944 l 85 160 b 225 -21 71 28 146 -21 b 389 122 308 -21 389 42 b 321 265 389 167 365 217 b 249 361 286 303 249 328 b 321 410 249 382 260 397 l 849 514 b 946 483 896 525 946 522 b 904 401 946 461 935 429 l 775 279 b 699 122 710 218 699 167 b 842 -21 699 51 749 -21 b 1036 169 990 -21 1025 69 l 1119 942 b 974 1076 1128 1025 1053 1076 z "},"h":{"ha":1203,"x_min":0,"x_max":0,"o":"m 974 1076 b 810 939 861 1076 810 1015 b 878 801 810 896 835 851 l 938 733 b 982 642 964 704 992 688 b 886 588 974 601 943 588 l 296 588 b 215 644 249 588 215 607 b 264 715 215 671 222 692 l 422 806 b 506 949 471 833 506 886 b 357 1076 506 1024 451 1076 b 158 844 208 1076 169 944 l 85 160 b 225 -21 71 28 146 -21 b 389 122 308 -21 389 42 b 321 265 389 167 365 217 b 249 361 286 303 249 328 b 321 410 249 382 260 397 l 849 514 b 946 483 896 525 946 522 b 904 401 946 461 935 429 l 775 279 b 699 122 710 218 699 167 b 842 -21 699 51 749 -21 b 1036 169 990 -21 1025 69 l 1119 942 b 974 1076 1128 1025 1053 1076 z "},"Ħ":{"ha":1203,"x_min":0,"x_max":0,"o":"m 47 692 l 79 692 b 136 640 122 692 140 681 l 85 160 b 225 -21 71 28 146 -21 b 389 106 308 -21 389 28 b 307 229 389 167 361 203 b 236 301 253 256 236 274 b 308 351 236 322 254 340 l 858 460 b 947 414 922 472 947 450 b 901 346 947 383 932 363 l 785 279 b 699 122 707 235 699 167 b 842 -21 699 51 749 -21 b 1036 169 990 -21 1025 69 l 1088 639 b 1135 682 1090 669 1099 682 l 1171 682 b 1271 771 1243 681 1271 714 b 1158 849 1271 824 1231 849 b 1113 894 1122 849 1108 864 l 1119 942 b 974 1076 1132 1025 1053 1076 b 810 939 861 1076 810 1015 b 826 875 810 919 815 900 b 799 818 842 840 833 821 l 496 789 b 469 847 451 785 444 818 b 506 949 492 874 506 908 b 357 1076 506 1024 451 1076 b 158 844 208 1076 169 942 b 83 750 150 774 121 753 l 50 747 b 17 719 26 746 17 736 b 47 692 17 701 28 692 z m 215 589 b 264 660 215 615 222 629 b 363 689 285 675 314 689 l 869 683 b 950 647 917 683 938 675 b 883 532 982 576 967 532 l 296 532 b 215 589 249 532 215 551 z "},"I":{"ha":596,"x_min":0,"x_max":0,"o":"m 56 747 b 101 703 56 722 67 703 l 161 703 b 231 660 206 703 231 692 b 226 635 231 653 229 644 l 114 224 b 308 -21 76 85 150 -21 b 517 119 415 -21 526 26 b 382 183 508 200 440 208 l 215 111 b 165 151 189 100 165 124 b 194 201 165 165 172 176 l 460 504 b 364 711 551 610 504 728 l 269 700 b 233 722 257 699 233 699 b 260 754 233 736 242 749 l 413 807 b 526 944 479 831 526 867 b 388 1076 526 1028 458 1076 b 278 1028 347 1076 307 1061 l 121 847 b 56 747 86 807 56 769 z "},"i":{"ha":596,"x_min":0,"x_max":0,"o":"m 56 747 b 101 703 56 722 67 703 l 161 703 b 231 660 206 703 231 692 b 226 635 231 653 229 644 l 114 224 b 308 -21 76 85 150 -21 b 517 119 415 -21 526 26 b 382 183 508 200 440 208 l 215 111 b 165 151 189 100 165 124 b 194 201 165 165 172 176 l 460 504 b 364 711 551 610 504 728 l 269 700 b 233 722 257 699 233 699 b 260 754 233 736 242 749 l 413 807 b 526 944 479 831 526 867 b 388 1076 526 1028 458 1076 b 278 1028 347 1076 307 1061 l 121 847 b 56 747 86 807 56 769 z "},"Í":{"ha":596,"x_min":0,"x_max":0,"o":"m 56 747 b 101 703 56 722 67 703 l 161 703 b 231 660 206 703 231 692 b 226 635 231 653 229 644 l 114 224 b 308 -21 76 85 150 -21 b 517 119 415 -21 526 26 b 382 183 508 200 440 208 l 215 111 b 165 151 189 100 165 124 b 194 201 165 165 172 176 l 460 504 b 364 711 551 610 504 728 l 269 700 b 233 722 257 699 233 699 b 260 754 233 736 242 749 l 413 807 b 526 944 479 831 526 867 b 388 1076 526 1028 458 1076 b 278 1028 347 1076 307 1061 l 121 847 b 56 747 86 807 56 769 z m 306 1117 l 560 1165 b 642 1288 639 1181 658 1233 b 483 1328 622 1353 539 1374 l 281 1161 b 306 1117 263 1146 276 1111 z "},"í":{"ha":596,"x_min":0,"x_max":0,"o":"m 56 747 b 101 703 56 722 67 703 l 161 703 b 231 660 206 703 231 692 b 226 635 231 653 229 644 l 114 224 b 308 -21 76 85 150 -21 b 517 119 415 -21 526 26 b 382 183 508 200 440 208 l 215 111 b 165 151 189 100 165 124 b 194 201 165 165 172 176 l 460 504 b 364 711 551 610 504 728 l 269 700 b 233 722 257 699 233 699 b 260 754 233 736 242 749 l 413 807 b 526 944 479 831 526 867 b 388 1076 526 1028 458 1076 b 278 1028 347 1076 307 1061 l 121 847 b 56 747 86 807 56 769 z m 306 1117 l 560 1165 b 642 1288 639 1181 658 1233 b 483 1328 622 1353 539 1374 l 281 1161 b 306 1117 263 1146 276 1111 z "},"Î":{"ha":596,"x_min":0,"x_max":0,"o":"m 56 747 b 101 703 56 722 67 703 l 161 703 b 231 660 206 703 231 692 b 226 635 231 653 229 644 l 114 224 b 308 -21 76 85 150 -21 b 517 119 415 -21 526 26 b 382 183 508 200 440 208 l 215 111 b 165 151 189 100 165 124 b 194 201 165 165 172 176 l 460 504 b 364 711 551 610 504 728 l 269 700 b 233 722 257 699 233 699 b 260 754 233 736 242 749 l 413 807 b 526 944 479 831 526 867 b 388 1076 526 1028 458 1076 b 278 1028 347 1076 307 1061 l 121 847 b 56 747 86 807 56 769 z m 361 1314 b 397 1292 374 1314 386 1307 l 475 1179 b 550 1128 504 1138 525 1128 b 639 1238 604 1128 639 1167 b 550 1340 639 1290 615 1335 b 361 1349 488 1346 424 1350 b 172 1340 299 1350 235 1346 b 83 1238 107 1335 83 1290 b 172 1128 83 1167 118 1128 b 247 1179 197 1128 218 1138 l 325 1292 b 361 1314 336 1307 349 1314 z "},"î":{"ha":596,"x_min":0,"x_max":0,"o":"m 56 747 b 101 703 56 722 67 703 l 161 703 b 231 660 206 703 231 692 b 226 635 231 653 229 644 l 114 224 b 308 -21 76 85 150 -21 b 517 119 415 -21 526 26 b 382 183 508 200 440 208 l 215 111 b 165 151 189 100 165 124 b 194 201 165 165 172 176 l 460 504 b 364 711 551 610 504 728 l 269 700 b 233 722 257 699 233 699 b 260 754 233 736 242 749 l 413 807 b 526 944 479 831 526 867 b 388 1076 526 1028 458 1076 b 278 1028 347 1076 307 1061 l 121 847 b 56 747 86 807 56 769 z m 361 1314 b 397 1292 374 1314 386 1307 l 475 1179 b 550 1128 504 1138 525 1128 b 639 1238 604 1128 639 1167 b 550 1340 639 1290 615 1335 b 361 1349 488 1346 424 1350 b 172 1340 299 1350 235 1346 b 83 1238 107 1335 83 1290 b 172 1128 83 1167 118 1128 b 247 1179 197 1128 218 1138 l 325 1292 b 361 1314 336 1307 349 1314 z "},"Ï":{"ha":596,"x_min":0,"x_max":0,"o":"m 56 747 b 101 703 56 722 67 703 l 161 703 b 231 660 206 703 231 692 b 226 635 231 653 229 644 l 114 224 b 308 -21 76 85 150 -21 b 517 119 415 -21 526 26 b 382 183 508 200 440 208 l 215 111 b 165 151 189 100 165 124 b 194 201 165 165 172 176 l 460 504 b 364 711 551 610 504 728 l 269 700 b 233 722 257 699 233 699 b 260 754 233 736 242 749 l 413 807 b 526 944 479 831 526 867 b 388 1076 526 1028 458 1076 b 278 1028 347 1076 307 1061 l 121 847 b 56 747 86 807 56 769 z m 633 1224 b 589 1332 653 1279 628 1314 b 403 1297 524 1361 429 1375 b 460 1183 389 1254 390 1214 b 633 1224 524 1154 604 1142 z m 332 1288 b 236 1354 318 1346 278 1361 b 100 1224 165 1343 79 1304 b 208 1160 111 1181 135 1147 b 332 1288 279 1171 353 1204 z "},"ï":{"ha":596,"x_min":0,"x_max":0,"o":"m 56 747 b 101 703 56 722 67 703 l 161 703 b 231 660 206 703 231 692 b 226 635 231 653 229 644 l 114 224 b 308 -21 76 85 150 -21 b 517 119 415 -21 526 26 b 382 183 508 200 440 208 l 215 111 b 165 151 189 100 165 124 b 194 201 165 165 172 176 l 460 504 b 364 711 551 610 504 728 l 269 700 b 233 722 257 699 233 699 b 260 754 233 736 242 749 l 413 807 b 526 944 479 831 526 867 b 388 1076 526 1028 458 1076 b 278 1028 347 1076 307 1061 l 121 847 b 56 747 86 807 56 769 z m 633 1224 b 589 1332 653 1279 628 1314 b 403 1297 524 1361 429 1375 b 460 1183 389 1254 390 1214 b 633 1224 524 1154 604 1142 z m 332 1288 b 236 1354 318 1346 278 1361 b 100 1224 165 1343 79 1304 b 208 1160 111 1181 135 1147 b 332 1288 279 1171 353 1204 z "},"İ":{"ha":596,"x_min":0,"x_max":0,"o":"m 56 747 b 101 703 56 722 67 703 l 161 703 b 231 660 206 703 231 692 b 226 635 231 653 229 644 l 114 224 b 308 -21 76 85 150 -21 b 517 119 415 -21 526 26 b 382 183 508 200 440 208 l 215 111 b 165 151 189 100 165 124 b 194 201 165 165 172 176 l 460 504 b 364 711 551 610 504 728 l 269 700 b 233 722 257 699 233 699 b 260 754 233 736 242 749 l 413 807 b 526 944 479 831 526 867 b 388 1076 526 1028 458 1076 b 278 1028 347 1076 307 1061 l 121 847 b 56 747 86 807 56 769 z m 504 1214 b 431 1332 517 1285 479 1319 b 219 1254 347 1353 235 1351 b 308 1132 211 1200 222 1153 b 504 1214 390 1111 488 1111 z "},"Ì":{"ha":596,"x_min":0,"x_max":0,"o":"m 56 747 b 101 703 56 722 67 703 l 161 703 b 231 660 206 703 231 692 b 226 635 231 653 229 644 l 114 224 b 308 -21 76 85 150 -21 b 517 119 415 -21 526 26 b 382 183 508 200 440 208 l 215 111 b 165 151 189 100 165 124 b 194 201 165 165 172 176 l 460 504 b 364 711 551 610 504 728 l 269 700 b 233 722 257 699 233 699 b 260 754 233 736 242 749 l 413 807 b 526 944 479 831 526 867 b 388 1076 526 1028 458 1076 b 278 1028 347 1076 307 1061 l 121 847 b 56 747 86 807 56 769 z m 147 1165 l 401 1117 b 426 1161 431 1111 444 1146 l 224 1328 b 65 1288 168 1374 85 1353 b 147 1165 49 1233 68 1181 z "},"ì":{"ha":596,"x_min":0,"x_max":0,"o":"m 56 747 b 101 703 56 722 67 703 l 161 703 b 231 660 206 703 231 692 b 226 635 231 653 229 644 l 114 224 b 308 -21 76 85 150 -21 b 517 119 415 -21 526 26 b 382 183 508 200 440 208 l 215 111 b 165 151 189 100 165 124 b 194 201 165 165 172 176 l 460 504 b 364 711 551 610 504 728 l 269 700 b 233 722 257 699 233 699 b 260 754 233 736 242 749 l 413 807 b 526 944 479 831 526 867 b 388 1076 526 1028 458 1076 b 278 1028 347 1076 307 1061 l 121 847 b 56 747 86 807 56 769 z m 147 1165 l 401 1117 b 426 1161 431 1111 444 1146 l 224 1328 b 65 1288 168 1374 85 1353 b 147 1165 49 1233 68 1181 z "},"Ī":{"ha":596,"x_min":0,"x_max":0,"o":"m 56 747 b 101 703 56 722 67 703 l 161 703 b 231 660 206 703 231 692 b 226 635 231 653 229 644 l 114 224 b 308 -21 76 85 150 -21 b 517 119 415 -21 526 26 b 382 183 508 200 440 208 l 215 111 b 165 151 189 100 165 124 b 194 201 165 165 172 176 l 460 504 b 364 711 551 610 504 728 l 269 700 b 233 722 257 699 233 699 b 260 754 233 736 242 749 l 413 807 b 526 944 479 831 526 867 b 388 1076 526 1028 458 1076 b 278 1028 347 1076 307 1061 l 121 847 b 56 747 86 807 56 769 z m 176 1165 l 550 1156 b 647 1256 635 1153 661 1200 b 496 1308 635 1307 599 1324 l 179 1263 b 115 1210 139 1257 115 1240 b 176 1165 115 1178 135 1167 z "},"J":{"ha":731,"x_min":0,"x_max":0,"o":"m 547 247 l 176 174 b 136 275 122 163 83 218 l 321 468 b 250 618 383 533 338 618 b 42 271 153 618 42 454 b 394 -21 42 126 182 -21 b 647 346 608 -21 647 100 l 647 871 b 479 1078 647 1029 557 1078 b 326 917 363 1078 326 988 b 390 715 326 857 358 769 l 579 392 b 547 247 624 315 604 258 z "},"j":{"ha":731,"x_min":0,"x_max":0,"o":"m 547 247 l 176 174 b 136 275 122 163 83 218 l 321 468 b 250 618 383 533 338 618 b 42 271 153 618 42 454 b 394 -21 42 126 182 -21 b 647 346 608 -21 647 100 l 647 871 b 479 1078 647 1029 557 1078 b 326 917 363 1078 326 988 b 390 715 326 857 358 769 l 579 392 b 547 247 624 315 604 258 z "},"K":{"ha":1197,"x_min":0,"x_max":0,"o":"m 300 1076 b 132 897 221 1076 142 1029 l 83 171 b 226 -21 76 50 126 -21 b 401 108 325 -21 389 39 b 367 263 413 175 394 221 l 193 528 b 276 585 150 594 221 650 l 657 132 b 864 -21 738 36 772 -21 b 1042 143 947 -21 1025 25 l 1092 490 b 1003 601 1103 568 1050 603 b 940 500 960 599 921 564 l 992 332 b 925 268 1004 292 965 249 l 442 500 b 389 585 394 522 383 554 b 524 646 396 626 469 635 l 958 740 b 1160 904 1085 768 1143 807 b 1039 1076 1174 988 1117 1076 b 803 972 953 1076 893 1040 l 440 697 b 286 674 371 644 322 617 b 325 797 267 704 288 751 l 347 824 b 300 1076 438 931 442 1076 z "},"k":{"ha":1197,"x_min":0,"x_max":0,"o":"m 300 1076 b 132 897 221 1076 142 1029 l 83 171 b 226 -21 76 50 126 -21 b 401 108 325 -21 389 39 b 367 263 413 175 394 221 l 193 528 b 276 585 150 594 221 650 l 657 132 b 864 -21 738 36 772 -21 b 1042 143 947 -21 1025 25 l 1092 490 b 1003 601 1103 568 1050 603 b 940 500 960 599 921 564 l 992 332 b 925 268 1004 292 965 249 l 442 500 b 389 585 394 522 383 554 b 524 646 396 626 469 635 l 958 740 b 1160 904 1085 768 1143 807 b 1039 1076 1174 988 1117 1076 b 803 972 953 1076 893 1040 l 440 697 b 286 674 371 644 322 617 b 325 797 267 704 288 751 l 347 824 b 300 1076 438 931 442 1076 z "},"Ķ":{"ha":1197,"x_min":0,"x_max":0,"o":"m 300 1076 b 132 897 221 1076 142 1029 l 83 171 b 226 -21 76 50 126 -21 b 401 108 325 -21 389 39 b 367 263 413 175 394 221 l 193 528 b 276 585 150 594 221 650 l 657 132 b 864 -21 738 36 772 -21 b 1042 143 947 -21 1025 25 l 1092 490 b 1003 601 1103 568 1050 603 b 940 500 960 599 921 564 l 992 332 b 925 268 1004 292 965 249 l 442 500 b 389 585 394 522 383 554 b 524 646 396 626 469 635 l 958 740 b 1160 904 1085 768 1143 807 b 1039 1076 1174 988 1117 1076 b 803 972 953 1076 893 1040 l 440 697 b 286 674 371 644 322 617 b 325 797 267 704 288 751 l 347 824 b 300 1076 438 931 442 1076 z m 449 -110 l 440 -306 b 489 -340 439 -342 464 -356 l 683 -221 b 640 -36 763 -172 739 -71 b 449 -110 563 -8 453 -11 z "},"L":{"ha":819,"x_min":0,"x_max":0,"o":"m 171 857 l 89 269 b 83 194 85 242 83 217 b 275 0 83 51 124 0 l 551 0 b 757 158 697 0 757 79 b 604 317 757 238 696 317 b 461 260 563 317 514 300 l 333 161 b 193 76 263 107 222 76 b 139 136 169 76 139 100 b 179 244 139 164 156 201 l 472 789 b 510 918 499 839 510 882 b 342 1076 510 1024 421 1076 b 171 857 247 1076 192 1006 z "},"l":{"ha":819,"x_min":0,"x_max":0,"o":"m 171 857 l 89 269 b 83 194 85 242 83 217 b 275 0 83 51 124 0 l 551 0 b 757 158 697 0 757 79 b 604 317 757 238 696 317 b 461 260 563 317 514 300 l 333 161 b 193 76 263 107 222 76 b 139 136 169 76 139 100 b 179 244 139 164 156 201 l 472 789 b 510 918 499 839 510 882 b 342 1076 510 1024 421 1076 b 171 857 247 1076 192 1006 z "},"Ĺ":{"ha":819,"x_min":0,"x_max":0,"o":"m 171 857 l 89 269 b 83 194 85 242 83 217 b 275 0 83 51 124 0 l 551 0 b 757 158 697 0 757 79 b 604 317 757 238 696 317 b 461 260 563 317 514 300 l 333 161 b 193 76 263 107 222 76 b 139 136 169 76 139 100 b 179 244 139 164 156 201 l 472 789 b 510 918 499 839 510 882 b 342 1076 510 1024 421 1076 b 171 857 247 1076 192 1006 z m 360 1117 l 614 1165 b 696 1288 693 1181 713 1233 b 538 1328 676 1353 593 1374 l 335 1161 b 360 1117 317 1146 331 1111 z "},"Ľ":{"ha":833,"x_min":0,"x_max":0,"o":"m 171 857 l 89 269 b 83 194 85 242 83 217 b 275 0 83 51 124 0 l 551 0 b 757 158 697 0 757 79 b 604 317 757 238 696 317 b 461 260 563 317 514 300 l 333 161 b 193 76 263 107 222 76 b 139 136 169 76 139 100 b 179 244 139 164 156 201 l 472 789 b 510 918 499 839 510 882 b 342 1076 510 1024 421 1076 b 171 857 247 1076 192 1006 z m 415 1163 b 379 1185 403 1163 390 1169 l 301 1297 b 226 1349 272 1339 251 1349 b 138 1239 172 1349 138 1310 b 226 1136 138 1186 161 1142 b 415 1128 289 1131 353 1126 b 604 1136 478 1126 542 1131 b 693 1239 669 1142 693 1186 b 604 1349 693 1310 658 1349 b 529 1297 579 1349 558 1339 l 451 1185 b 415 1163 440 1169 428 1163 z "},"Ł":{"ha":819,"x_min":0,"x_max":0,"o":"m 60 414 l 10 386 b 28 333 -35 361 -7 322 l 54 342 b 89 269 85 351 93 324 l 83 200 b 275 0 72 65 124 0 l 551 0 b 757 158 697 0 757 79 b 604 317 757 238 696 317 b 461 260 563 317 514 300 l 333 161 b 193 76 263 107 222 76 b 139 136 169 76 139 100 b 179 244 139 164 156 201 l 231 339 b 364 444 261 394 299 422 l 638 536 b 689 678 718 563 722 631 b 529 674 658 721 613 743 l 389 557 b 357 590 369 540 340 561 l 472 789 b 510 918 500 836 510 882 b 342 1076 510 1024 421 1076 b 171 857 247 1076 192 1006 l 119 500 b 60 414 113 454 99 435 z "},"M":{"ha":1578,"x_min":0,"x_max":0,"o":"m 919 657 l 956 410 b 906 264 971 308 950 264 b 831 332 879 264 851 281 l 606 878 b 344 1078 546 1022 454 1078 b 90 657 183 1078 90 969 l 90 364 b 294 -21 90 163 113 -21 b 415 264 444 -21 474 121 l 224 735 b 193 867 211 765 193 828 b 317 1004 193 946 239 1004 b 426 897 381 1004 438 968 l 414 818 b 467 494 396 703 425 578 l 628 175 b 818 -21 703 25 754 -21 b 997 203 911 -21 956 64 l 1217 928 b 1369 896 1254 1051 1401 1011 l 1213 342 b 1167 140 1197 288 1167 200 b 1319 -21 1167 69 1203 -21 b 1488 186 1397 -21 1489 28 l 1485 649 b 1238 1076 1483 985 1413 1076 b 919 657 1018 1076 882 915 z "},"m":{"ha":1578,"x_min":0,"x_max":0,"o":"m 919 657 l 956 410 b 906 264 971 308 950 264 b 831 332 879 264 851 281 l 606 878 b 344 1078 546 1022 454 1078 b 90 657 183 1078 90 969 l 90 364 b 294 -21 90 163 113 -21 b 415 264 444 -21 474 121 l 224 735 b 193 867 211 765 193 828 b 317 1004 193 946 239 1004 b 426 897 381 1004 438 968 l 414 818 b 467 494 396 703 425 578 l 628 175 b 818 -21 703 25 754 -21 b 997 203 911 -21 956 64 l 1217 928 b 1369 896 1254 1051 1401 1011 l 1213 342 b 1167 140 1197 288 1167 200 b 1319 -21 1167 69 1203 -21 b 1488 186 1397 -21 1489 28 l 1485 649 b 1238 1076 1483 985 1413 1076 b 919 657 1018 1076 882 915 z "},"N":{"ha":1225,"x_min":0,"x_max":0,"o":"m 269 -21 b 385 264 419 -21 447 110 l 196 726 b 171 858 183 757 171 819 b 294 996 171 938 217 996 b 376 889 344 996 388 960 l 364 810 b 460 494 346 694 404 571 l 690 175 b 917 -21 789 39 832 -21 b 1068 174 1007 -21 1053 40 l 1139 817 b 974 1078 1153 944 1111 1078 b 821 917 857 1078 821 988 b 853 750 821 883 818 839 l 981 421 b 1010 318 999 375 1010 343 b 958 272 1010 288 993 272 b 881 344 933 272 914 292 l 551 860 b 297 1076 468 990 407 1076 b 83 694 149 1076 83 1007 l 83 319 b 269 -21 83 118 88 -21 z "},"n":{"ha":1225,"x_min":0,"x_max":0,"o":"m 269 -21 b 385 264 419 -21 447 110 l 196 726 b 171 858 183 757 171 819 b 294 996 171 938 217 996 b 376 889 344 996 388 960 l 364 810 b 460 494 346 694 404 571 l 690 175 b 917 -21 789 39 832 -21 b 1068 174 1007 -21 1053 40 l 1139 817 b 974 1078 1153 944 1111 1078 b 821 917 857 1078 821 988 b 853 750 821 883 818 839 l 981 421 b 1010 318 999 375 1010 343 b 958 272 1010 288 993 272 b 881 344 933 272 914 292 l 551 860 b 297 1076 468 990 407 1076 b 83 694 149 1076 83 1007 l 83 319 b 269 -21 83 118 88 -21 z "},"Ń":{"ha":1225,"x_min":0,"x_max":0,"o":"m 269 -21 b 385 264 419 -21 447 110 l 196 726 b 171 858 183 757 171 819 b 294 996 171 938 217 996 b 376 889 344 996 388 960 l 364 810 b 460 494 346 694 404 571 l 690 175 b 917 -21 789 39 832 -21 b 1068 174 1007 -21 1053 40 l 1139 817 b 974 1078 1153 944 1111 1078 b 821 917 857 1078 821 988 b 853 750 821 883 818 839 l 981 421 b 1010 318 999 375 1010 343 b 958 272 1010 288 993 272 b 881 344 933 272 914 292 l 551 860 b 297 1076 468 990 407 1076 b 83 694 149 1076 83 1007 l 83 319 b 269 -21 83 118 88 -21 z m 557 1117 l 811 1165 b 893 1288 890 1181 910 1233 b 735 1328 874 1353 790 1374 l 532 1161 b 557 1117 514 1146 528 1111 z "},"Ň":{"ha":1225,"x_min":0,"x_max":0,"o":"m 269 -21 b 385 264 419 -21 447 110 l 196 726 b 171 858 183 757 171 819 b 294 996 171 938 217 996 b 376 889 344 996 388 960 l 364 810 b 460 494 346 694 404 571 l 690 175 b 917 -21 789 39 832 -21 b 1068 174 1007 -21 1053 40 l 1139 817 b 974 1078 1153 944 1111 1078 b 821 917 857 1078 821 988 b 853 750 821 883 818 839 l 981 421 b 1010 318 999 375 1010 343 b 958 272 1010 288 993 272 b 881 344 933 272 914 292 l 551 860 b 297 1076 468 990 407 1076 b 83 694 149 1076 83 1007 l 83 319 b 269 -21 83 118 88 -21 z m 606 1163 b 569 1185 593 1163 581 1169 l 492 1297 b 417 1349 463 1339 442 1349 b 328 1239 363 1349 328 1310 b 417 1136 328 1186 351 1142 b 606 1128 479 1131 543 1126 b 794 1136 668 1126 732 1131 b 883 1239 860 1142 883 1186 b 794 1349 883 1310 849 1349 b 719 1297 769 1349 749 1339 l 642 1185 b 606 1163 631 1169 618 1163 z "},"Ņ":{"ha":1225,"x_min":0,"x_max":0,"o":"m 269 -21 b 385 264 419 -21 447 110 l 196 726 b 171 858 183 757 171 819 b 294 996 171 938 217 996 b 376 889 344 996 388 960 l 364 810 b 460 494 346 694 404 571 l 690 175 b 917 -21 789 39 832 -21 b 1068 174 1007 -21 1053 40 l 1139 817 b 974 1078 1153 944 1111 1078 b 821 917 857 1078 821 988 b 853 750 821 883 818 839 l 981 421 b 1010 318 999 375 1010 343 b 958 272 1010 288 993 272 b 881 344 933 272 914 292 l 551 860 b 297 1076 468 990 407 1076 b 83 694 149 1076 83 1007 l 83 319 b 269 -21 83 118 88 -21 z m 449 -110 l 440 -306 b 489 -340 439 -342 464 -356 l 683 -221 b 640 -36 763 -172 739 -71 b 449 -110 563 -8 453 -11 z "},"Ñ":{"ha":1225,"x_min":0,"x_max":0,"o":"m 269 -21 b 385 264 419 -21 447 110 l 196 726 b 171 858 183 757 171 819 b 294 996 171 938 217 996 b 376 889 344 996 388 960 l 364 810 b 460 494 346 694 404 571 l 690 175 b 917 -21 789 39 832 -21 b 1068 174 1007 -21 1053 40 l 1139 817 b 974 1078 1153 944 1111 1078 b 821 917 857 1078 821 988 b 853 750 821 883 818 839 l 981 421 b 1010 318 999 375 1010 343 b 958 272 1010 288 993 272 b 881 344 933 272 914 292 l 551 860 b 297 1076 468 990 407 1076 b 83 694 149 1076 83 1007 l 83 319 b 269 -21 83 118 88 -21 z m 660 1218 l 636 1244 b 493 1332 581 1307 543 1332 b 288 1183 364 1332 254 1290 b 446 1164 310 1111 407 1107 l 499 1240 b 553 1240 515 1265 532 1265 l 579 1208 b 719 1126 629 1147 669 1126 b 919 1268 849 1126 932 1161 b 767 1294 911 1340 814 1363 l 714 1218 b 660 1218 697 1193 681 1196 z "},"ñ":{"ha":1225,"x_min":0,"x_max":0,"o":"m 269 -21 b 385 264 419 -21 447 110 l 196 726 b 171 858 183 757 171 819 b 294 996 171 938 217 996 b 376 889 344 996 388 960 l 364 810 b 460 494 346 694 404 571 l 690 175 b 917 -21 789 39 832 -21 b 1068 174 1007 -21 1053 40 l 1139 817 b 974 1078 1153 944 1111 1078 b 821 917 857 1078 821 988 b 853 750 821 883 818 839 l 981 421 b 1010 318 999 375 1010 343 b 958 272 1010 288 993 272 b 881 344 933 272 914 292 l 551 860 b 297 1076 468 990 407 1076 b 83 694 149 1076 83 1007 l 83 319 b 269 -21 83 118 88 -21 z m 660 1218 l 636 1244 b 493 1332 581 1307 543 1332 b 288 1183 364 1332 254 1290 b 446 1164 310 1111 407 1107 l 499 1240 b 553 1240 515 1265 532 1265 l 579 1208 b 719 1126 629 1147 669 1126 b 919 1268 849 1126 932 1161 b 767 1294 911 1340 814 1363 l 714 1218 b 660 1218 697 1193 681 1196 z "},"Ŋ":{"ha":1225,"x_min":0,"x_max":0,"o":"m 460 494 l 865 14 b 935 -106 922 -54 935 -81 b 871 -142 935 -133 910 -160 l 769 -93 b 632 -160 713 -65 632 -81 b 792 -278 632 -226 688 -278 b 1042 -33 968 -278 1024 -178 l 1139 817 b 974 1078 1153 944 1111 1078 b 821 917 857 1078 821 988 b 853 750 821 883 818 839 l 981 421 b 1010 318 999 375 1010 343 b 958 272 1010 288 993 272 b 881 344 933 272 914 292 l 551 860 b 297 1076 468 990 407 1076 b 83 694 149 1076 83 1007 l 83 319 b 269 -21 83 118 88 -21 b 385 264 419 -21 447 110 l 196 726 b 171 858 183 757 171 819 b 294 996 171 938 217 996 b 376 889 344 996 388 960 l 364 810 b 460 494 346 694 397 568 z "},"O":{"ha":1151,"x_min":0,"x_max":0,"o":"m 575 -21 b 1068 531 899 -21 1068 167 b 575 1076 1068 894 899 1076 b 83 531 253 1076 83 894 b 575 -21 83 167 253 -21 z m 965 543 l 599 100 b 435 143 546 38 457 71 l 247 742 b 406 900 207 872 294 944 l 932 689 b 965 543 999 663 1013 600 z "},"o":{"ha":1151,"x_min":0,"x_max":0,"o":"m 575 -21 b 1068 531 899 -21 1068 167 b 575 1076 1068 894 899 1076 b 83 531 253 1076 83 894 b 575 -21 83 167 253 -21 z m 965 543 l 599 100 b 435 143 546 38 457 71 l 247 742 b 406 900 207 872 294 944 l 932 689 b 965 543 999 663 1013 600 z "},"Ó":{"ha":1151,"x_min":0,"x_max":0,"o":"m 575 -21 b 1068 531 899 -21 1068 167 b 575 1076 1068 894 899 1076 b 83 531 253 1076 83 894 b 575 -21 83 167 253 -21 z m 965 543 l 599 100 b 435 143 546 38 457 71 l 247 742 b 406 900 207 872 294 944 l 932 689 b 965 543 999 663 1013 600 z m 515 1117 l 769 1165 b 851 1288 849 1181 868 1233 b 693 1328 832 1353 749 1374 l 490 1161 b 515 1117 472 1146 486 1111 z "},"ó":{"ha":1151,"x_min":0,"x_max":0,"o":"m 575 -21 b 1068 531 899 -21 1068 167 b 575 1076 1068 894 899 1076 b 83 531 253 1076 83 894 b 575 -21 83 167 253 -21 z m 965 543 l 599 100 b 435 143 546 38 457 71 l 247 742 b 406 900 207 872 294 944 l 932 689 b 965 543 999 663 1013 600 z m 515 1117 l 769 1165 b 851 1288 849 1181 868 1233 b 693 1328 832 1353 749 1374 l 490 1161 b 515 1117 472 1146 486 1111 z "},"Ô":{"ha":1151,"x_min":0,"x_max":0,"o":"m 575 -21 b 1068 531 899 -21 1068 167 b 575 1076 1068 894 899 1076 b 83 531 253 1076 83 894 b 575 -21 83 167 253 -21 z m 965 543 l 599 100 b 435 143 546 38 457 71 l 247 742 b 406 900 207 872 294 944 l 932 689 b 965 543 999 663 1013 600 z m 571 1314 b 607 1292 583 1314 596 1307 l 685 1179 b 760 1128 714 1138 735 1128 b 849 1238 814 1128 849 1167 b 760 1340 849 1290 825 1335 b 571 1349 697 1346 633 1350 b 382 1340 508 1350 444 1346 b 293 1238 317 1335 293 1290 b 382 1128 293 1167 328 1128 b 457 1179 407 1128 428 1138 l 535 1292 b 571 1314 546 1307 558 1314 z "},"ô":{"ha":1151,"x_min":0,"x_max":0,"o":"m 575 -21 b 1068 531 899 -21 1068 167 b 575 1076 1068 894 899 1076 b 83 531 253 1076 83 894 b 575 -21 83 167 253 -21 z m 965 543 l 599 100 b 435 143 546 38 457 71 l 247 742 b 406 900 207 872 294 944 l 932 689 b 965 543 999 663 1013 600 z m 571 1314 b 607 1292 583 1314 596 1307 l 685 1179 b 760 1128 714 1138 735 1128 b 849 1238 814 1128 849 1167 b 760 1340 849 1290 825 1335 b 571 1349 697 1346 633 1350 b 382 1340 508 1350 444 1346 b 293 1238 317 1335 293 1290 b 382 1128 293 1167 328 1128 b 457 1179 407 1128 428 1138 l 535 1292 b 571 1314 546 1307 558 1314 z "},"Ö":{"ha":1151,"x_min":0,"x_max":0,"o":"m 575 -21 b 1068 531 899 -21 1068 167 b 575 1076 1068 894 899 1076 b 83 531 253 1076 83 894 b 575 -21 83 167 253 -21 z m 965 543 l 599 100 b 435 143 546 38 457 71 l 247 742 b 406 900 207 872 294 944 l 932 689 b 965 543 999 663 1013 600 z m 843 1224 b 799 1332 863 1279 838 1314 b 613 1297 733 1361 639 1375 b 669 1183 599 1254 600 1214 b 843 1224 733 1154 814 1142 z m 542 1288 b 446 1354 528 1346 488 1361 b 310 1224 375 1343 289 1304 b 418 1160 321 1181 344 1147 b 542 1288 489 1171 563 1204 z "},"ö":{"ha":1151,"x_min":0,"x_max":0,"o":"m 575 -21 b 1068 531 899 -21 1068 167 b 575 1076 1068 894 899 1076 b 83 531 253 1076 83 894 b 575 -21 83 167 253 -21 z m 965 543 l 599 100 b 435 143 546 38 457 71 l 247 742 b 406 900 207 872 294 944 l 932 689 b 965 543 999 663 1013 600 z m 843 1224 b 799 1332 863 1279 838 1314 b 613 1297 733 1361 639 1375 b 669 1183 599 1254 600 1214 b 843 1224 733 1154 814 1142 z m 542 1288 b 446 1354 528 1346 488 1361 b 310 1224 375 1343 289 1304 b 418 1160 321 1181 344 1147 b 542 1288 489 1171 563 1204 z "},"Ò":{"ha":1151,"x_min":0,"x_max":0,"o":"m 575 -21 b 1068 531 899 -21 1068 167 b 575 1076 1068 894 899 1076 b 83 531 253 1076 83 894 b 575 -21 83 167 253 -21 z m 965 543 l 599 100 b 435 143 546 38 457 71 l 247 742 b 406 900 207 872 294 944 l 932 689 b 965 543 999 663 1013 600 z m 357 1165 l 611 1117 b 636 1161 640 1111 654 1146 l 433 1328 b 275 1288 378 1374 294 1353 b 357 1165 258 1233 278 1181 z "},"ò":{"ha":1151,"x_min":0,"x_max":0,"o":"m 575 -21 b 1068 531 899 -21 1068 167 b 575 1076 1068 894 899 1076 b 83 531 253 1076 83 894 b 575 -21 83 167 253 -21 z m 965 543 l 599 100 b 435 143 546 38 457 71 l 247 742 b 406 900 207 872 294 944 l 932 689 b 965 543 999 663 1013 600 z m 357 1165 l 611 1117 b 636 1161 640 1111 654 1146 l 433 1328 b 275 1288 378 1374 294 1353 b 357 1165 258 1233 278 1181 z "},"Ő":{"ha":1151,"x_min":0,"x_max":0,"o":"m 575 -21 b 1068 531 899 -21 1068 167 b 575 1076 1068 894 899 1076 b 83 531 253 1076 83 894 b 575 -21 83 167 253 -21 z m 965 543 l 599 100 b 435 143 546 38 457 71 l 247 742 b 406 900 207 872 294 944 l 932 689 b 965 543 999 663 1013 600 z m 685 1097 l 931 1178 b 996 1310 1007 1204 1019 1258 b 833 1329 968 1372 883 1382 l 654 1139 b 685 1097 638 1121 656 1089 z m 406 1114 l 613 1201 b 661 1319 678 1228 685 1276 b 519 1325 633 1372 558 1375 l 376 1147 b 406 1114 364 1131 382 1104 z "},"Ō":{"ha":1151,"x_min":0,"x_max":0,"o":"m 575 -21 b 1068 531 899 -21 1068 167 b 575 1076 1068 894 899 1076 b 83 531 253 1076 83 894 b 575 -21 83 167 253 -21 z m 965 543 l 599 100 b 435 143 546 38 457 71 l 247 742 b 406 900 207 872 294 944 l 932 689 b 965 543 999 663 1013 600 z m 386 1165 l 760 1156 b 857 1256 844 1153 871 1200 b 706 1308 844 1307 808 1324 l 389 1263 b 325 1210 349 1257 325 1240 b 386 1165 325 1178 344 1167 z "},"Ø":{"ha":1181,"x_min":0,"x_max":0,"o":"m 1006 775 b 1097 949 1006 849 1097 863 b 972 1076 1097 1017 1039 1076 b 831 1006 900 1076 885 1006 b 515 1076 767 1006 700 1076 b 83 525 233 1076 83 865 b 163 176 83 381 110 263 b 167 99 175 156 186 124 l 110 24 b 149 -8 82 -12 118 -36 l 210 46 b 297 43 238 69 258 68 b 575 -21 369 -3 464 -21 b 1081 403 860 -21 1081 125 b 1006 775 1081 663 1006 643 z m 214 281 l 435 913 b 549 994 454 969 500 994 b 694 854 619 994 694 939 b 646 729 694 818 681 775 l 285 253 b 242 222 269 232 254 222 b 214 281 214 222 203 250 z m 881 354 l 406 128 b 342 147 372 114 342 118 b 367 196 342 161 350 178 l 763 611 b 881 672 804 654 844 672 b 1003 528 951 672 1003 604 b 881 354 1003 464 968 396 z "},"ø":{"ha":1181,"x_min":0,"x_max":0,"o":"m 1006 775 b 1097 949 1006 849 1097 863 b 972 1076 1097 1017 1039 1076 b 831 1006 900 1076 885 1006 b 515 1076 767 1006 700 1076 b 83 525 233 1076 83 865 b 163 176 83 381 110 263 b 167 99 175 156 186 124 l 110 24 b 149 -8 82 -12 118 -36 l 210 46 b 297 43 238 69 258 68 b 575 -21 369 -3 464 -21 b 1081 403 860 -21 1081 125 b 1006 775 1081 663 1006 643 z m 214 281 l 435 913 b 549 994 454 969 500 994 b 694 854 619 994 694 939 b 646 729 694 818 681 775 l 285 253 b 242 222 269 232 254 222 b 214 281 214 222 203 250 z m 881 354 l 406 128 b 342 147 372 114 342 118 b 367 196 342 161 350 178 l 763 611 b 881 672 804 654 844 672 b 1003 528 951 672 1003 604 b 881 354 1003 464 968 396 z "},"Õ":{"ha":1151,"x_min":0,"x_max":0,"o":"m 575 -21 b 1068 531 899 -21 1068 167 b 575 1076 1068 894 899 1076 b 83 531 253 1076 83 894 b 575 -21 83 167 253 -21 z m 965 543 l 599 100 b 435 143 546 38 457 71 l 247 742 b 406 900 207 872 294 944 l 932 689 b 965 543 999 663 1013 600 z m 618 1218 l 594 1244 b 451 1332 539 1307 501 1332 b 246 1183 322 1332 213 1290 b 404 1164 268 1111 365 1107 l 457 1240 b 511 1240 474 1265 490 1265 l 538 1208 b 678 1126 588 1147 628 1126 b 878 1268 807 1126 890 1161 b 725 1294 869 1340 772 1363 l 672 1218 b 618 1218 656 1193 639 1196 z "},"Œ":{"ha":2050,"x_min":0,"x_max":0,"o":"m 1021 460 l 599 100 b 435 143 538 47 457 71 l 247 742 b 406 900 207 872 301 953 l 988 606 b 1021 460 1050 574 1075 507 z m 575 -21 b 1025 335 808 -21 946 56 b 1071 390 1035 369 1047 390 b 1133 363 1097 390 1108 381 l 1565 63 b 1750 -19 1635 15 1692 -19 b 1896 133 1836 -19 1896 51 b 1719 293 1896 224 1819 271 l 1203 407 b 1138 465 1157 417 1132 436 b 1222 496 1143 496 1168 501 l 1872 436 b 2022 554 1961 428 2022 454 b 1872 674 2022 656 1961 690 l 1222 557 b 1138 588 1168 547 1143 557 b 1203 646 1132 617 1157 635 l 1650 760 b 1826 919 1750 785 1826 829 b 1681 1072 1826 1001 1767 1072 b 1496 986 1622 1072 1561 1039 l 1133 690 b 1071 663 1110 671 1097 663 b 1025 718 1047 663 1035 683 b 575 1076 946 997 808 1076 b 83 531 253 1076 83 894 b 575 -21 83 167 253 -21 z "},"œ":{"ha":2050,"x_min":0,"x_max":0,"o":"m 1021 460 l 599 100 b 435 143 538 47 457 71 l 247 742 b 406 900 207 872 301 953 l 988 606 b 1021 460 1050 574 1075 507 z m 575 -21 b 1025 335 808 -21 946 56 b 1071 390 1035 369 1047 390 b 1133 363 1097 390 1108 381 l 1565 63 b 1750 -19 1635 15 1692 -19 b 1896 133 1836 -19 1896 51 b 1719 293 1896 224 1819 271 l 1203 407 b 1138 465 1157 417 1132 436 b 1222 496 1143 496 1168 501 l 1872 436 b 2022 554 1961 428 2022 454 b 1872 674 2022 656 1961 690 l 1222 557 b 1138 588 1168 547 1143 557 b 1203 646 1132 617 1157 635 l 1650 760 b 1826 919 1750 785 1826 829 b 1681 1072 1826 1001 1767 1072 b 1496 986 1622 1072 1561 1039 l 1133 690 b 1071 663 1110 671 1097 663 b 1025 718 1047 663 1035 683 b 575 1076 946 997 808 1076 b 83 531 253 1076 83 894 b 575 -21 83 167 253 -21 z "},"P":{"ha":1119,"x_min":0,"x_max":0,"o":"m 639 1056 l 356 1056 b 90 785 175 1056 90 940 l 90 186 b 274 -21 90 11 178 -21 b 440 118 381 -21 440 21 b 360 304 440 186 417 239 l 189 496 b 183 639 153 536 146 597 b 326 639 226 686 292 683 l 486 429 b 781 258 579 307 661 258 b 1078 624 990 258 1078 415 b 639 1056 1078 906 943 1056 z m 294 768 b 353 826 294 797 317 811 l 610 932 b 760 885 685 963 710 956 l 971 582 b 825 461 1043 479 965 390 l 343 706 b 294 768 308 724 294 744 z "},"p":{"ha":1119,"x_min":0,"x_max":0,"o":"m 639 1056 l 356 1056 b 90 785 175 1056 90 940 l 90 186 b 274 -21 90 11 178 -21 b 440 118 381 -21 440 21 b 360 304 440 186 417 239 l 189 496 b 183 639 153 536 146 597 b 326 639 226 686 292 683 l 486 429 b 781 258 579 307 661 258 b 1078 624 990 258 1078 415 b 639 1056 1078 906 943 1056 z m 294 768 b 353 826 294 797 317 811 l 610 932 b 760 885 685 963 710 956 l 971 582 b 825 461 1043 479 965 390 l 343 706 b 294 768 308 724 294 744 z "},"Þ":{"ha":1119,"x_min":0,"x_max":0,"o":"m 825 997 b 551 883 706 997 642 963 l 243 640 b 189 713 169 586 126 658 b 406 964 326 817 406 878 b 253 1082 406 1024 360 1082 b 90 900 157 1082 90 1007 l 90 161 b 253 -21 90 54 157 -21 b 406 97 360 -21 406 38 b 189 349 406 183 326 244 b 243 421 126 403 169 475 l 551 178 b 825 64 642 99 706 64 b 1078 343 1035 64 1078 228 l 1078 718 b 825 997 1078 833 1035 997 z m 789 454 l 950 357 b 899 243 1036 315 988 211 l 356 435 b 239 531 301 454 239 475 b 356 626 239 581 289 603 l 899 818 b 950 704 988 850 1036 746 l 789 607 b 743 531 758 589 743 560 b 789 454 743 501 758 472 z "},"þ":{"ha":1119,"x_min":0,"x_max":0,"o":"m 825 997 b 551 883 706 997 642 963 l 243 640 b 189 713 169 586 126 658 b 406 964 326 817 406 878 b 253 1082 406 1024 360 1082 b 90 900 157 1082 90 1007 l 90 161 b 253 -21 90 54 157 -21 b 406 97 360 -21 406 38 b 189 349 406 183 326 244 b 243 421 126 403 169 475 l 551 178 b 825 64 642 99 706 64 b 1078 343 1035 64 1078 228 l 1078 718 b 825 997 1078 833 1035 997 z m 789 454 l 950 357 b 899 243 1036 315 988 211 l 356 435 b 239 531 301 454 239 475 b 356 626 239 581 289 603 l 899 818 b 950 704 988 850 1036 746 l 789 607 b 743 531 758 589 743 560 b 789 454 743 501 758 472 z "},"Q":{"ha":1311,"x_min":0,"x_max":0,"o":"m 1093 19 l 733 92 b 668 153 683 101 665 119 b 743 196 671 183 692 201 l 936 175 b 1219 406 1128 154 1219 210 b 699 1076 1219 769 1022 1076 b 88 367 294 1076 117 642 b 324 -21 65 157 147 -21 b 554 93 444 -21 499 93 b 593 79 572 93 582 90 l 896 -199 b 1065 -278 943 -242 1007 -278 b 1218 -142 1167 -278 1218 -210 b 1093 19 1218 -68 1188 0 z m 367 231 l 340 701 b 538 861 333 832 386 901 l 1004 736 b 1089 626 1054 722 1089 683 b 1003 497 1089 588 1057 538 l 574 181 b 447 129 515 138 486 125 b 367 231 403 133 369 172 z "},"q":{"ha":1311,"x_min":0,"x_max":0,"o":"m 1093 19 l 733 92 b 668 153 683 101 665 119 b 743 196 671 183 692 201 l 936 175 b 1219 406 1128 154 1219 210 b 699 1076 1219 769 1022 1076 b 88 367 294 1076 117 642 b 324 -21 65 157 147 -21 b 554 93 444 -21 499 93 b 593 79 572 93 582 90 l 896 -199 b 1065 -278 943 -242 1007 -278 b 1218 -142 1167 -278 1218 -210 b 1093 19 1218 -68 1188 0 z m 367 231 l 340 701 b 538 861 333 832 386 901 l 1004 736 b 1089 626 1054 722 1089 683 b 1003 497 1089 588 1057 538 l 574 181 b 447 129 515 138 486 125 b 367 231 403 133 369 172 z "},"R":{"ha":1199,"x_min":0,"x_max":0,"o":"m 1121 154 b 960 299 1121 240 1051 297 l 686 301 b 611 344 633 301 611 313 b 671 406 611 378 638 394 l 899 486 b 1129 735 1094 556 1129 640 b 704 1076 1129 860 1047 1076 b 83 244 282 1076 83 717 b 265 -21 83 46 179 -21 b 386 229 424 -21 440 101 l 244 563 b 226 643 233 589 226 617 b 447 826 226 742 304 826 l 882 826 b 1036 706 983 826 1036 774 b 839 586 1036 633 988 567 l 417 640 b 336 601 365 647 338 638 b 381 514 336 582 350 553 l 724 99 b 929 -21 800 6 874 -21 b 1121 154 1074 -21 1121 67 z "},"r":{"ha":1199,"x_min":0,"x_max":0,"o":"m 1121 154 b 960 299 1121 240 1051 297 l 686 301 b 611 344 633 301 611 313 b 671 406 611 378 638 394 l 899 486 b 1129 735 1094 556 1129 640 b 704 1076 1129 860 1047 1076 b 83 244 282 1076 83 717 b 265 -21 83 46 179 -21 b 386 229 424 -21 440 101 l 244 563 b 226 643 233 589 226 617 b 447 826 226 742 304 826 l 882 826 b 1036 706 983 826 1036 774 b 839 586 1036 633 988 567 l 417 640 b 336 601 365 647 338 638 b 381 514 336 582 350 553 l 724 99 b 929 -21 800 6 874 -21 b 1121 154 1074 -21 1121 67 z "},"Ŕ":{"ha":1199,"x_min":0,"x_max":0,"o":"m 1121 154 b 960 299 1121 240 1051 297 l 686 301 b 611 344 633 301 611 313 b 671 406 611 378 638 394 l 899 486 b 1129 735 1094 556 1129 640 b 704 1076 1129 860 1047 1076 b 83 244 282 1076 83 717 b 265 -21 83 46 179 -21 b 386 229 424 -21 440 101 l 244 563 b 226 643 233 589 226 617 b 447 826 226 742 304 826 l 882 826 b 1036 706 983 826 1036 774 b 839 586 1036 633 988 567 l 417 640 b 336 601 365 647 338 638 b 381 514 336 582 350 553 l 724 99 b 929 -21 800 6 874 -21 b 1121 154 1074 -21 1121 67 z m 649 1117 l 903 1165 b 985 1288 982 1181 1001 1233 b 826 1328 965 1353 882 1374 l 624 1161 b 649 1117 606 1146 619 1111 z "},"Ř":{"ha":1199,"x_min":0,"x_max":0,"o":"m 1121 154 b 960 299 1121 240 1051 297 l 686 301 b 611 344 633 301 611 313 b 671 406 611 378 638 394 l 899 486 b 1129 735 1094 556 1129 640 b 704 1076 1129 860 1047 1076 b 83 244 282 1076 83 717 b 265 -21 83 46 179 -21 b 386 229 424 -21 440 101 l 244 563 b 226 643 233 589 226 617 b 447 826 226 742 304 826 l 882 826 b 1036 706 983 826 1036 774 b 839 586 1036 633 988 567 l 417 640 b 336 601 365 647 338 638 b 381 514 336 582 350 553 l 724 99 b 929 -21 800 6 874 -21 b 1121 154 1074 -21 1121 67 z m 697 1163 b 661 1185 685 1163 672 1169 l 583 1297 b 508 1349 554 1339 533 1349 b 419 1239 454 1349 419 1310 b 508 1136 419 1186 443 1142 b 697 1128 571 1131 635 1126 b 886 1136 760 1126 824 1131 b 975 1239 951 1142 975 1186 b 886 1349 975 1310 940 1349 b 811 1297 861 1349 840 1339 l 733 1185 b 697 1163 722 1169 710 1163 z "},"Ŗ":{"ha":1199,"x_min":0,"x_max":0,"o":"m 1121 154 b 960 299 1121 240 1051 297 l 686 301 b 611 344 633 301 611 313 b 671 406 611 378 638 394 l 899 486 b 1129 735 1094 556 1129 640 b 704 1076 1129 860 1047 1076 b 83 244 282 1076 83 717 b 265 -21 83 46 179 -21 b 386 229 424 -21 440 101 l 244 563 b 226 643 233 589 226 617 b 447 826 226 742 304 826 l 882 826 b 1036 706 983 826 1036 774 b 839 586 1036 633 988 567 l 417 640 b 336 601 365 647 338 638 b 381 514 336 582 350 553 l 724 99 b 929 -21 800 6 874 -21 b 1121 154 1074 -21 1121 67 z m 449 -110 l 440 -306 b 489 -340 439 -342 464 -356 l 683 -221 b 640 -36 763 -172 739 -71 b 449 -110 563 -8 453 -11 z "},"S":{"ha":1158,"x_min":0,"x_max":0,"o":"m 506 -19 b 1075 368 824 -19 1075 175 b 957 504 1075 435 1036 490 l 250 632 b 183 683 206 640 188 653 b 253 751 179 713 193 739 l 851 881 b 949 876 897 890 926 892 b 950 817 963 867 967 842 l 889 725 b 950 560 814 613 896 560 b 1069 726 1032 560 1069 628 b 592 1079 1069 976 832 1079 b 100 706 347 1079 100 947 b 194 579 100 649 138 593 l 282 558 b 361 488 338 546 360 539 l 363 435 b 588 307 365 335 456 246 l 882 443 b 986 407 929 465 972 458 b 892 306 1000 356 950 333 l 406 71 b 281 132 322 31 281 65 l 281 368 b 172 483 281 426 239 483 b 58 318 89 483 58 394 b 506 -19 58 157 172 -19 z "},"s":{"ha":1158,"x_min":0,"x_max":0,"o":"m 506 -19 b 1075 368 824 -19 1075 175 b 957 504 1075 435 1036 490 l 250 632 b 183 683 206 640 188 653 b 253 751 179 713 193 739 l 851 881 b 949 876 897 890 926 892 b 950 817 963 867 967 842 l 889 725 b 950 560 814 613 896 560 b 1069 726 1032 560 1069 628 b 592 1079 1069 976 832 1079 b 100 706 347 1079 100 947 b 194 579 100 649 138 593 l 282 558 b 361 488 338 546 360 539 l 363 435 b 588 307 365 335 456 246 l 882 443 b 986 407 929 465 972 458 b 892 306 1000 356 950 333 l 406 71 b 281 132 322 31 281 65 l 281 368 b 172 483 281 426 239 483 b 58 318 89 483 58 394 b 506 -19 58 157 172 -19 z "},"Ś":{"ha":1158,"x_min":0,"x_max":0,"o":"m 506 -19 b 1075 368 824 -19 1075 175 b 957 504 1075 435 1036 490 l 250 632 b 183 683 206 640 188 653 b 253 751 179 713 193 739 l 851 881 b 949 876 897 890 926 892 b 950 817 963 867 967 842 l 889 725 b 950 560 814 613 896 560 b 1069 726 1032 560 1069 628 b 592 1079 1069 976 832 1079 b 100 706 347 1079 100 947 b 194 579 100 649 138 593 l 282 558 b 361 488 338 546 360 539 l 363 435 b 588 307 365 335 456 246 l 882 443 b 986 407 929 465 972 458 b 892 306 1000 356 950 333 l 406 71 b 281 132 322 31 281 65 l 281 368 b 172 483 281 426 239 483 b 58 318 89 483 58 394 b 506 -19 58 157 172 -19 z m 539 1117 l 793 1165 b 875 1288 872 1181 892 1233 b 717 1328 856 1353 772 1374 l 514 1161 b 539 1117 496 1146 510 1111 z "},"Š":{"ha":1158,"x_min":0,"x_max":0,"o":"m 506 -19 b 1075 368 824 -19 1075 175 b 957 504 1075 435 1036 490 l 250 632 b 183 683 206 640 188 653 b 253 751 179 713 193 739 l 851 881 b 949 876 897 890 926 892 b 950 817 963 867 967 842 l 889 725 b 950 560 814 613 896 560 b 1069 726 1032 560 1069 628 b 592 1079 1069 976 832 1079 b 100 706 347 1079 100 947 b 194 579 100 649 138 593 l 282 558 b 361 488 338 546 360 539 l 363 435 b 588 307 365 335 456 246 l 882 443 b 986 407 929 465 972 458 b 892 306 1000 356 950 333 l 406 71 b 281 132 322 31 281 65 l 281 368 b 172 483 281 426 239 483 b 58 318 89 483 58 394 b 506 -19 58 157 172 -19 z m 588 1163 b 551 1185 575 1163 563 1169 l 474 1297 b 399 1349 444 1339 424 1349 b 310 1239 344 1349 310 1310 b 399 1136 310 1186 333 1142 b 588 1128 461 1131 525 1126 b 776 1136 650 1126 714 1131 b 865 1239 842 1142 865 1186 b 776 1349 865 1310 831 1349 b 701 1297 751 1349 731 1339 l 624 1185 b 588 1163 613 1169 600 1163 z "},"Ş":{"ha":1158,"x_min":0,"x_max":0,"o":"m 506 -19 l 528 -19 l 483 -133 l 451 -107 b 315 -157 400 -64 325 -89 b 467 -267 307 -214 363 -246 b 810 -147 649 -300 810 -261 b 689 -40 810 -87 746 -40 b 611 -53 653 -40 632 -53 b 604 -12 594 -53 593 -47 b 1075 368 875 22 1075 196 b 957 504 1075 435 1036 490 l 250 632 b 183 683 206 640 188 653 b 253 751 179 713 193 739 l 851 881 b 949 876 897 890 926 892 b 950 817 963 867 967 842 l 889 725 b 950 560 814 613 896 560 b 1069 726 1032 560 1069 628 b 592 1079 1069 976 832 1079 b 100 706 347 1079 100 947 b 194 579 100 649 138 593 l 282 558 b 361 488 338 546 360 539 l 363 435 b 588 307 365 335 456 246 l 882 443 b 986 407 929 465 972 458 b 892 306 1000 356 950 333 l 406 71 b 281 132 322 31 281 65 l 281 368 b 172 483 281 426 239 483 b 58 318 89 483 58 394 b 506 -19 58 157 172 -19 z m 624 -215 b 590 -140 571 -215 556 -162 b 688 -110 632 -114 660 -110 b 735 -150 717 -110 735 -125 b 624 -215 735 -182 688 -215 z "},"Ș":{"ha":1158,"x_min":0,"x_max":0,"o":"m 449 -146 l 440 -306 b 489 -340 439 -342 464 -356 l 683 -221 b 640 -72 763 -172 739 -107 b 449 -146 563 -44 454 -47 z m 506 -19 b 1075 368 824 -19 1075 175 b 957 504 1075 435 1036 490 l 250 632 b 183 683 206 640 188 653 b 253 751 179 713 193 739 l 851 881 b 949 876 897 890 926 892 b 950 817 963 867 967 842 l 889 725 b 950 560 814 613 896 560 b 1069 726 1032 560 1069 628 b 592 1079 1069 976 832 1079 b 100 706 347 1079 100 947 b 194 579 100 649 138 593 l 282 558 b 361 488 338 546 360 539 l 363 435 b 588 307 365 335 456 246 l 882 443 b 986 407 929 465 972 458 b 892 306 1000 356 950 333 l 406 71 b 281 132 322 31 281 65 l 281 368 b 172 483 281 426 239 483 b 58 318 89 483 58 394 b 506 -19 58 157 172 -19 z "},"T":{"ha":1063,"x_min":0,"x_max":0,"o":"m 753 238 l 529 888 b 553 999 501 967 515 999 b 594 976 565 999 581 992 l 750 803 b 1083 901 878 661 1083 742 b 893 1056 1083 972 1038 1056 l 418 1056 b 14 724 167 1056 14 917 b 169 558 14 638 81 561 b 336 838 296 554 336 646 l 336 899 b 397 1006 336 960 350 1006 b 451 882 435 1006 450 969 l 467 203 b 631 -21 469 56 497 -21 b 753 238 779 -21 810 86 z "},"t":{"ha":1063,"x_min":0,"x_max":0,"o":"m 753 238 l 529 888 b 553 999 501 967 515 999 b 594 976 565 999 581 992 l 750 803 b 1083 901 878 661 1083 742 b 893 1056 1083 972 1038 1056 l 418 1056 b 14 724 167 1056 14 917 b 169 558 14 638 81 561 b 336 838 296 554 336 646 l 336 899 b 397 1006 336 960 350 1006 b 451 882 435 1006 450 969 l 467 203 b 631 -21 469 56 497 -21 b 753 238 779 -21 810 86 z "},"Ŧ":{"ha":1063,"x_min":0,"x_max":0,"o":"m 14 724 b 169 558 14 638 81 561 b 336 838 296 554 336 646 l 336 899 b 397 1006 336 960 350 1006 b 451 882 435 1006 446 969 l 472 506 b 432 469 474 479 461 467 l 235 488 b 138 374 150 496 124 429 b 289 321 150 322 196 278 l 425 383 b 474 358 457 397 475 383 l 467 203 b 631 -21 460 56 497 -21 b 753 238 779 -21 814 88 l 696 374 b 728 424 686 400 693 428 l 886 406 b 983 519 971 396 997 464 b 832 572 971 571 924 615 l 711 515 b 636 543 667 493 646 507 l 529 888 b 553 999 504 968 515 999 b 594 976 565 999 581 992 l 750 803 b 1083 901 878 661 1083 742 b 893 1056 1083 972 1038 1056 l 418 1056 b 14 724 167 1056 14 917 z "},"Ť":{"ha":1063,"x_min":0,"x_max":0,"o":"m 753 238 l 529 888 b 553 999 501 967 515 999 b 594 976 565 999 581 992 l 750 803 b 1083 901 878 661 1083 742 b 893 1056 1083 972 1038 1056 l 418 1056 b 14 724 167 1056 14 917 b 169 558 14 638 81 561 b 336 838 296 554 336 646 l 336 899 b 397 1006 336 960 350 1006 b 451 882 435 1006 450 969 l 467 203 b 631 -21 469 56 497 -21 b 753 238 779 -21 810 86 z m 483 1163 b 447 1185 471 1163 458 1169 l 369 1297 b 294 1349 340 1339 319 1349 b 206 1239 240 1349 206 1310 b 294 1136 206 1186 229 1142 b 483 1128 357 1131 421 1126 b 672 1136 546 1126 610 1131 b 761 1239 738 1142 761 1186 b 672 1349 761 1310 726 1349 b 597 1297 647 1349 626 1339 l 519 1185 b 483 1163 508 1169 496 1163 z "},"Ţ":{"ha":1063,"x_min":0,"x_max":0,"o":"m 753 238 l 529 888 b 553 999 501 967 515 999 b 594 976 565 999 581 992 l 750 803 b 1083 901 878 661 1083 742 b 893 1056 1083 972 1038 1056 l 418 1056 b 14 724 167 1056 14 917 b 169 558 14 638 81 561 b 336 838 296 554 336 646 l 336 899 b 397 1006 336 960 350 1006 b 451 882 435 1006 450 969 l 467 203 b 611 -21 469 63 494 -12 l 567 -133 l 535 -107 b 399 -157 483 -64 408 -89 b 550 -267 390 -214 446 -246 b 893 -147 732 -300 893 -261 b 772 -40 893 -87 829 -40 b 694 -53 736 -40 715 -53 b 688 -14 678 -53 676 -47 b 753 238 786 11 801 108 z m 707 -215 b 674 -140 654 -215 639 -162 b 771 -110 715 -114 743 -110 b 818 -150 800 -110 818 -125 b 707 -215 818 -182 771 -215 z "},"Ț":{"ha":1063,"x_min":0,"x_max":0,"o":"m 528 -146 l 519 -306 b 568 -340 518 -342 543 -356 l 763 -221 b 719 -72 842 -172 818 -107 b 528 -146 642 -44 533 -47 z m 753 238 l 529 888 b 553 999 501 967 515 999 b 594 976 565 999 581 992 l 750 803 b 1083 901 878 661 1083 742 b 893 1056 1083 972 1038 1056 l 418 1056 b 14 724 167 1056 14 917 b 169 558 14 638 81 561 b 336 838 296 554 336 646 l 336 899 b 397 1006 336 960 350 1006 b 451 882 435 1006 450 969 l 467 203 b 631 -21 469 56 497 -21 b 753 238 779 -21 810 86 z "},"U":{"ha":1100,"x_min":0,"x_max":0,"o":"m 560 629 l 843 322 b 867 167 875 289 908 225 b 632 161 825 108 751 100 l 238 364 b 193 565 156 406 136 481 l 364 818 b 246 1076 431 917 394 1076 b 83 860 140 1076 83 1014 l 83 410 b 556 -21 83 146 275 -21 b 1017 372 857 -21 1017 104 l 1017 893 b 878 1076 1017 1014 978 1076 b 751 960 799 1076 751 1026 b 843 801 751 908 782 872 l 924 708 b 926 638 951 676 942 653 b 861 640 915 626 890 617 l 700 771 b 560 629 563 882 449 750 z "},"u":{"ha":1100,"x_min":0,"x_max":0,"o":"m 560 629 l 843 322 b 867 167 875 289 908 225 b 632 161 825 108 751 100 l 238 364 b 193 565 156 406 136 481 l 364 818 b 246 1076 431 917 394 1076 b 83 860 140 1076 83 1014 l 83 410 b 556 -21 83 146 275 -21 b 1017 372 857 -21 1017 104 l 1017 893 b 878 1076 1017 1014 978 1076 b 751 960 799 1076 751 1026 b 843 801 751 908 782 872 l 924 708 b 926 638 951 676 942 653 b 861 640 915 626 890 617 l 700 771 b 560 629 563 882 449 750 z "},"Ú":{"ha":1100,"x_min":0,"x_max":0,"o":"m 560 629 l 843 322 b 867 167 875 289 908 225 b 632 161 825 108 751 100 l 238 364 b 193 565 156 406 136 481 l 364 818 b 246 1076 431 917 394 1076 b 83 860 140 1076 83 1014 l 83 410 b 556 -21 83 146 275 -21 b 1017 372 857 -21 1017 104 l 1017 893 b 878 1076 1017 1014 978 1076 b 751 960 799 1076 751 1026 b 843 801 751 908 782 872 l 924 708 b 926 638 951 676 942 653 b 861 640 915 626 890 617 l 700 771 b 560 629 563 882 449 750 z m 499 1117 l 753 1165 b 835 1288 832 1181 851 1233 b 676 1328 815 1353 732 1374 l 474 1161 b 499 1117 456 1146 469 1111 z "},"ú":{"ha":1100,"x_min":0,"x_max":0,"o":"m 560 629 l 843 322 b 867 167 875 289 908 225 b 632 161 825 108 751 100 l 238 364 b 193 565 156 406 136 481 l 364 818 b 246 1076 431 917 394 1076 b 83 860 140 1076 83 1014 l 83 410 b 556 -21 83 146 275 -21 b 1017 372 857 -21 1017 104 l 1017 893 b 878 1076 1017 1014 978 1076 b 751 960 799 1076 751 1026 b 843 801 751 908 782 872 l 924 708 b 926 638 951 676 942 653 b 861 640 915 626 890 617 l 700 771 b 560 629 563 882 449 750 z m 499 1117 l 753 1165 b 835 1288 832 1181 851 1233 b 676 1328 815 1353 732 1374 l 474 1161 b 499 1117 456 1146 469 1111 z "},"Û":{"ha":1100,"x_min":0,"x_max":0,"o":"m 560 629 l 843 322 b 867 167 875 289 908 225 b 632 161 825 108 751 100 l 238 364 b 193 565 156 406 136 481 l 364 818 b 246 1076 431 917 394 1076 b 83 860 140 1076 83 1014 l 83 410 b 556 -21 83 146 275 -21 b 1017 372 857 -21 1017 104 l 1017 893 b 878 1076 1017 1014 978 1076 b 751 960 799 1076 751 1026 b 843 801 751 908 782 872 l 924 708 b 926 638 951 676 942 653 b 861 640 915 626 890 617 l 700 771 b 560 629 563 882 449 750 z m 554 1314 b 590 1292 567 1314 579 1307 l 668 1179 b 743 1128 697 1138 718 1128 b 832 1238 797 1128 832 1167 b 743 1340 832 1290 808 1335 b 554 1349 681 1346 617 1350 b 365 1340 492 1350 428 1346 b 276 1238 300 1335 276 1290 b 365 1128 276 1167 311 1128 b 440 1179 390 1128 411 1138 l 518 1292 b 554 1314 529 1307 542 1314 z "},"û":{"ha":1100,"x_min":0,"x_max":0,"o":"m 560 629 l 843 322 b 867 167 875 289 908 225 b 632 161 825 108 751 100 l 238 364 b 193 565 156 406 136 481 l 364 818 b 246 1076 431 917 394 1076 b 83 860 140 1076 83 1014 l 83 410 b 556 -21 83 146 275 -21 b 1017 372 857 -21 1017 104 l 1017 893 b 878 1076 1017 1014 978 1076 b 751 960 799 1076 751 1026 b 843 801 751 908 782 872 l 924 708 b 926 638 951 676 942 653 b 861 640 915 626 890 617 l 700 771 b 560 629 563 882 449 750 z m 554 1314 b 590 1292 567 1314 579 1307 l 668 1179 b 743 1128 697 1138 718 1128 b 832 1238 797 1128 832 1167 b 743 1340 832 1290 808 1335 b 554 1349 681 1346 617 1350 b 365 1340 492 1350 428 1346 b 276 1238 300 1335 276 1290 b 365 1128 276 1167 311 1128 b 440 1179 390 1128 411 1138 l 518 1292 b 554 1314 529 1307 542 1314 z "},"Ü":{"ha":1100,"x_min":0,"x_max":0,"o":"m 560 629 l 843 322 b 867 167 875 289 908 225 b 632 161 825 108 751 100 l 238 364 b 193 565 156 406 136 481 l 364 818 b 246 1076 431 917 394 1076 b 83 860 140 1076 83 1014 l 83 410 b 556 -21 83 146 275 -21 b 1017 372 857 -21 1017 104 l 1017 893 b 878 1076 1017 1014 978 1076 b 751 960 799 1076 751 1026 b 843 801 751 908 782 872 l 924 708 b 926 638 951 676 942 653 b 861 640 915 626 890 617 l 700 771 b 560 629 563 882 449 750 z m 826 1224 b 782 1332 846 1279 821 1314 b 596 1297 717 1361 622 1375 b 653 1183 582 1254 583 1214 b 826 1224 717 1154 797 1142 z m 525 1288 b 429 1354 511 1346 471 1361 b 293 1224 358 1343 272 1304 b 401 1160 304 1181 328 1147 b 525 1288 472 1171 546 1204 z "},"ü":{"ha":1100,"x_min":0,"x_max":0,"o":"m 560 629 l 843 322 b 867 167 875 289 908 225 b 632 161 825 108 751 100 l 238 364 b 193 565 156 406 136 481 l 364 818 b 246 1076 431 917 394 1076 b 83 860 140 1076 83 1014 l 83 410 b 556 -21 83 146 275 -21 b 1017 372 857 -21 1017 104 l 1017 893 b 878 1076 1017 1014 978 1076 b 751 960 799 1076 751 1026 b 843 801 751 908 782 872 l 924 708 b 926 638 951 676 942 653 b 861 640 915 626 890 617 l 700 771 b 560 629 563 882 449 750 z m 826 1224 b 782 1332 846 1279 821 1314 b 596 1297 717 1361 622 1375 b 653 1183 582 1254 583 1214 b 826 1224 717 1154 797 1142 z m 525 1288 b 429 1354 511 1346 471 1361 b 293 1224 358 1343 272 1304 b 401 1160 304 1181 328 1147 b 525 1288 472 1171 546 1204 z "},"Ù":{"ha":1100,"x_min":0,"x_max":0,"o":"m 560 629 l 843 322 b 867 167 875 289 908 225 b 632 161 825 108 751 100 l 238 364 b 193 565 156 406 136 481 l 364 818 b 246 1076 431 917 394 1076 b 83 860 140 1076 83 1014 l 83 410 b 556 -21 83 146 275 -21 b 1017 372 857 -21 1017 104 l 1017 893 b 878 1076 1017 1014 978 1076 b 751 960 799 1076 751 1026 b 843 801 751 908 782 872 l 924 708 b 926 638 951 676 942 653 b 861 640 915 626 890 617 l 700 771 b 560 629 563 882 449 750 z m 340 1165 l 594 1117 b 619 1161 624 1111 638 1146 l 417 1328 b 258 1288 361 1374 278 1353 b 340 1165 242 1233 261 1181 z "},"ù":{"ha":1100,"x_min":0,"x_max":0,"o":"m 560 629 l 843 322 b 867 167 875 289 908 225 b 632 161 825 108 751 100 l 238 364 b 193 565 156 406 136 481 l 364 818 b 246 1076 431 917 394 1076 b 83 860 140 1076 83 1014 l 83 410 b 556 -21 83 146 275 -21 b 1017 372 857 -21 1017 104 l 1017 893 b 878 1076 1017 1014 978 1076 b 751 960 799 1076 751 1026 b 843 801 751 908 782 872 l 924 708 b 926 638 951 676 942 653 b 861 640 915 626 890 617 l 700 771 b 560 629 563 882 449 750 z m 340 1165 l 594 1117 b 619 1161 624 1111 638 1146 l 417 1328 b 258 1288 361 1374 278 1353 b 340 1165 242 1233 261 1181 z "},"Ű":{"ha":1100,"x_min":0,"x_max":0,"o":"m 560 629 l 843 322 b 867 167 875 289 908 225 b 632 161 825 108 751 100 l 238 364 b 193 565 156 406 136 481 l 364 818 b 246 1076 431 917 394 1076 b 83 860 140 1076 83 1014 l 83 410 b 556 -21 83 146 275 -21 b 1017 372 857 -21 1017 104 l 1017 893 b 878 1076 1017 1014 978 1076 b 751 960 799 1076 751 1026 b 843 801 751 908 782 872 l 924 708 b 926 638 951 676 942 653 b 861 640 915 626 890 617 l 700 771 b 560 629 563 882 449 750 z m 668 1097 l 914 1178 b 979 1310 990 1204 1003 1258 b 817 1329 951 1372 867 1382 l 638 1139 b 668 1097 621 1121 639 1089 z m 389 1114 l 596 1201 b 644 1319 661 1228 668 1276 b 503 1325 617 1372 542 1375 l 360 1147 b 389 1114 347 1131 365 1104 z "},"Ū":{"ha":1100,"x_min":0,"x_max":0,"o":"m 560 629 l 843 322 b 867 167 875 289 908 225 b 632 161 825 108 751 100 l 238 364 b 193 565 156 406 136 481 l 364 818 b 246 1076 431 917 394 1076 b 83 860 140 1076 83 1014 l 83 410 b 556 -21 83 146 275 -21 b 1017 372 857 -21 1017 104 l 1017 893 b 878 1076 1017 1014 978 1076 b 751 960 799 1076 751 1026 b 843 801 751 908 782 872 l 924 708 b 926 638 951 676 942 653 b 861 640 915 626 890 617 l 700 771 b 560 629 563 882 449 750 z m 369 1165 l 743 1156 b 840 1256 828 1153 854 1200 b 689 1308 828 1307 792 1324 l 372 1263 b 308 1210 332 1257 308 1240 b 369 1165 308 1178 328 1167 z "},"Ų":{"ha":1100,"x_min":0,"x_max":0,"o":"m 560 629 l 843 322 b 867 167 875 289 908 225 b 632 161 825 108 751 100 l 238 364 b 193 565 156 406 136 481 l 364 818 b 246 1076 431 917 394 1076 b 83 860 140 1076 83 1014 l 83 410 b 549 -21 83 149 272 -18 l 540 -33 b 735 -278 463 -153 576 -278 b 889 -172 822 -278 889 -239 b 757 -115 889 -103 818 -99 l 656 -142 b 592 -106 615 -153 592 -133 b 632 -51 592 -81 601 -67 l 725 -4 b 1017 372 917 38 1017 160 l 1017 893 b 878 1076 1017 1014 978 1076 b 751 960 799 1076 751 1026 b 843 801 751 908 782 872 l 924 708 b 926 638 951 676 942 653 b 861 640 915 626 890 617 l 700 771 b 560 629 563 882 449 750 z "},"Ů":{"ha":1100,"x_min":0,"x_max":0,"o":"m 560 629 l 843 322 b 867 167 875 289 908 225 b 632 161 825 108 751 100 l 238 364 b 193 565 156 406 136 481 l 364 818 b 246 1076 431 917 394 1076 b 83 860 140 1076 83 1014 l 83 410 b 556 -21 83 146 275 -21 b 1017 372 857 -21 1017 104 l 1017 893 b 878 1076 1017 1014 978 1076 b 751 960 799 1076 751 1026 b 843 801 751 908 782 872 l 924 708 b 926 638 951 676 942 653 b 861 640 915 626 890 617 l 700 771 b 560 629 563 882 449 750 z m 504 1135 b 728 1217 597 1118 710 1114 b 626 1335 740 1288 693 1324 b 388 1257 532 1350 406 1354 b 504 1135 378 1203 392 1156 z m 585 1182 b 489 1225 544 1171 496 1171 b 521 1288 485 1263 500 1281 b 625 1246 561 1300 618 1297 b 585 1182 629 1218 624 1193 z "},"V":{"ha":1058,"x_min":0,"x_max":0,"o":"m 371 281 l 521 629 b 579 771 551 700 579 735 b 504 842 579 808 550 842 b 381 771 465 842 431 811 l 285 694 b 203 672 249 667 229 646 b 229 768 182 693 197 729 b 333 947 249 792 332 888 b 203 1076 335 1026 278 1076 b 42 915 119 1076 42 1013 b 64 800 42 883 53 840 l 243 111 b 403 -21 268 15 336 -21 b 590 111 474 -21 519 -3 l 993 754 b 1072 924 1028 808 1072 865 b 936 1076 1072 1025 1004 1076 b 775 951 863 1076 804 1039 l 535 231 b 408 65 514 168 483 65 b 329 154 360 65 329 96 b 371 281 329 189 353 238 z "},"v":{"ha":1058,"x_min":0,"x_max":0,"o":"m 371 281 l 521 629 b 579 771 551 700 579 735 b 504 842 579 808 550 842 b 381 771 465 842 431 811 l 285 694 b 203 672 249 667 229 646 b 229 768 182 693 197 729 b 333 947 249 792 332 888 b 203 1076 335 1026 278 1076 b 42 915 119 1076 42 1013 b 64 800 42 883 53 840 l 243 111 b 403 -21 268 15 336 -21 b 590 111 474 -21 519 -3 l 993 754 b 1072 924 1028 808 1072 865 b 936 1076 1072 1025 1004 1076 b 775 951 863 1076 804 1039 l 535 231 b 408 65 514 168 483 65 b 329 154 360 65 329 96 b 371 281 329 189 353 238 z "},"W":{"ha":1592,"x_min":0,"x_max":0,"o":"m 1222 825 l 1421 551 b 1444 490 1436 531 1444 511 b 1415 407 1444 465 1433 439 l 1361 307 b 1251 222 1322 235 1290 222 b 1147 339 1194 222 1164 268 l 1047 779 b 939 896 1026 868 992 896 b 778 782 876 896 822 849 l 461 308 b 357 217 417 242 393 217 b 282 288 307 217 282 246 b 335 407 282 325 301 356 l 536 726 b 622 938 588 807 622 878 b 401 1076 622 1021 558 1076 b 42 621 178 1076 42 813 b 99 563 42 585 74 563 b 176 647 143 563 169 588 l 210 900 b 281 974 217 953 249 974 b 325 889 315 974 335 943 l 201 269 b 194 189 196 240 194 214 b 392 -21 194 51 278 -21 b 563 74 449 -21 517 10 l 950 617 b 1000 654 964 636 982 654 b 1029 624 1022 654 1029 639 b 1022 589 1029 614 1028 600 l 918 368 b 1054 -21 804 128 847 -21 b 1522 653 1353 -21 1522 382 b 1349 1076 1522 972 1457 1076 b 1172 936 1242 1076 1172 1014 b 1222 825 1172 901 1193 865 z "},"w":{"ha":1592,"x_min":0,"x_max":0,"o":"m 1222 825 l 1421 551 b 1444 490 1436 531 1444 511 b 1415 407 1444 465 1433 439 l 1361 307 b 1251 222 1322 235 1290 222 b 1147 339 1194 222 1164 268 l 1047 779 b 939 896 1026 868 992 896 b 778 782 876 896 822 849 l 461 308 b 357 217 417 242 393 217 b 282 288 307 217 282 246 b 335 407 282 325 301 356 l 536 726 b 622 938 588 807 622 878 b 401 1076 622 1021 558 1076 b 42 621 178 1076 42 813 b 99 563 42 585 74 563 b 176 647 143 563 169 588 l 210 900 b 281 974 217 953 249 974 b 325 889 315 974 335 943 l 201 269 b 194 189 196 240 194 214 b 392 -21 194 51 278 -21 b 563 74 449 -21 517 10 l 950 617 b 1000 654 964 636 982 654 b 1029 624 1022 654 1029 639 b 1022 589 1029 614 1028 600 l 918 368 b 1054 -21 804 128 847 -21 b 1522 653 1353 -21 1522 382 b 1349 1076 1522 972 1457 1076 b 1172 936 1242 1076 1172 1014 b 1222 825 1172 901 1193 865 z "},"Ẃ":{"ha":1592,"x_min":0,"x_max":0,"o":"m 1222 825 l 1421 551 b 1444 490 1436 531 1444 511 b 1415 407 1444 465 1433 439 l 1361 307 b 1251 222 1322 235 1290 222 b 1147 339 1194 222 1164 268 l 1047 779 b 939 896 1026 868 992 896 b 778 782 876 896 822 849 l 461 308 b 357 217 417 242 393 217 b 282 288 307 217 282 246 b 335 407 282 325 301 356 l 536 726 b 622 938 588 807 622 878 b 401 1076 622 1021 558 1076 b 42 621 178 1076 42 813 b 99 563 42 585 74 563 b 176 647 143 563 169 588 l 210 900 b 281 974 217 953 249 974 b 325 889 315 974 335 943 l 201 269 b 194 189 196 240 194 214 b 392 -21 194 51 278 -21 b 563 74 449 -21 517 10 l 950 617 b 1000 654 964 636 982 654 b 1029 624 1022 654 1029 639 b 1022 589 1029 614 1028 600 l 918 368 b 1054 -21 804 128 847 -21 b 1522 653 1353 -21 1522 382 b 1349 1076 1522 972 1457 1076 b 1172 936 1242 1076 1172 1014 b 1222 825 1172 901 1193 865 z m 836 1117 l 1090 1165 b 1172 1288 1169 1181 1189 1233 b 1014 1328 1153 1353 1069 1374 l 811 1161 b 836 1117 793 1146 807 1111 z "},"ẃ":{"ha":1592,"x_min":0,"x_max":0,"o":"m 1222 825 l 1421 551 b 1444 490 1436 531 1444 511 b 1415 407 1444 465 1433 439 l 1361 307 b 1251 222 1322 235 1290 222 b 1147 339 1194 222 1164 268 l 1047 779 b 939 896 1026 868 992 896 b 778 782 876 896 822 849 l 461 308 b 357 217 417 242 393 217 b 282 288 307 217 282 246 b 335 407 282 325 301 356 l 536 726 b 622 938 588 807 622 878 b 401 1076 622 1021 558 1076 b 42 621 178 1076 42 813 b 99 563 42 585 74 563 b 176 647 143 563 169 588 l 210 900 b 281 974 217 953 249 974 b 325 889 315 974 335 943 l 201 269 b 194 189 196 240 194 214 b 392 -21 194 51 278 -21 b 563 74 449 -21 517 10 l 950 617 b 1000 654 964 636 982 654 b 1029 624 1022 654 1029 639 b 1022 589 1029 614 1028 600 l 918 368 b 1054 -21 804 128 847 -21 b 1522 653 1353 -21 1522 382 b 1349 1076 1522 972 1457 1076 b 1172 936 1242 1076 1172 1014 b 1222 825 1172 901 1193 865 z m 836 1117 l 1090 1165 b 1172 1288 1169 1181 1189 1233 b 1014 1328 1153 1353 1069 1374 l 811 1161 b 836 1117 793 1146 807 1111 z "},"Ŵ":{"ha":1592,"x_min":0,"x_max":0,"o":"m 1222 825 l 1421 551 b 1444 490 1436 531 1444 511 b 1415 407 1444 465 1433 439 l 1361 307 b 1251 222 1322 235 1290 222 b 1147 339 1194 222 1164 268 l 1047 779 b 939 896 1026 868 992 896 b 778 782 876 896 822 849 l 461 308 b 357 217 417 242 393 217 b 282 288 307 217 282 246 b 335 407 282 325 301 356 l 536 726 b 622 938 588 807 622 878 b 401 1076 622 1021 558 1076 b 42 621 178 1076 42 813 b 99 563 42 585 74 563 b 176 647 143 563 169 588 l 210 900 b 281 974 217 953 249 974 b 325 889 315 974 335 943 l 201 269 b 194 189 196 240 194 214 b 392 -21 194 51 278 -21 b 563 74 449 -21 517 10 l 950 617 b 1000 654 964 636 982 654 b 1029 624 1022 654 1029 639 b 1022 589 1029 614 1028 600 l 918 368 b 1054 -21 804 128 847 -21 b 1522 653 1353 -21 1522 382 b 1349 1076 1522 972 1457 1076 b 1172 936 1242 1076 1172 1014 b 1222 825 1172 901 1193 865 z m 892 1314 b 928 1292 904 1314 917 1307 l 1006 1179 b 1081 1128 1035 1138 1056 1128 b 1169 1238 1135 1128 1169 1167 b 1081 1340 1169 1290 1146 1335 b 892 1349 1018 1346 954 1350 b 703 1340 829 1350 765 1346 b 614 1238 638 1335 614 1290 b 703 1128 614 1167 649 1128 b 778 1179 728 1128 749 1138 l 856 1292 b 892 1314 867 1307 879 1314 z "},"ŵ":{"ha":1592,"x_min":0,"x_max":0,"o":"m 1222 825 l 1421 551 b 1444 490 1436 531 1444 511 b 1415 407 1444 465 1433 439 l 1361 307 b 1251 222 1322 235 1290 222 b 1147 339 1194 222 1164 268 l 1047 779 b 939 896 1026 868 992 896 b 778 782 876 896 822 849 l 461 308 b 357 217 417 242 393 217 b 282 288 307 217 282 246 b 335 407 282 325 301 356 l 536 726 b 622 938 588 807 622 878 b 401 1076 622 1021 558 1076 b 42 621 178 1076 42 813 b 99 563 42 585 74 563 b 176 647 143 563 169 588 l 210 900 b 281 974 217 953 249 974 b 325 889 315 974 335 943 l 201 269 b 194 189 196 240 194 214 b 392 -21 194 51 278 -21 b 563 74 449 -21 517 10 l 950 617 b 1000 654 964 636 982 654 b 1029 624 1022 654 1029 639 b 1022 589 1029 614 1028 600 l 918 368 b 1054 -21 804 128 847 -21 b 1522 653 1353 -21 1522 382 b 1349 1076 1522 972 1457 1076 b 1172 936 1242 1076 1172 1014 b 1222 825 1172 901 1193 865 z m 892 1314 b 928 1292 904 1314 917 1307 l 1006 1179 b 1081 1128 1035 1138 1056 1128 b 1169 1238 1135 1128 1169 1167 b 1081 1340 1169 1290 1146 1335 b 892 1349 1018 1346 954 1350 b 703 1340 829 1350 765 1346 b 614 1238 638 1335 614 1290 b 703 1128 614 1167 649 1128 b 778 1179 728 1128 749 1138 l 856 1292 b 892 1314 867 1307 879 1314 z "},"Ẅ":{"ha":1592,"x_min":0,"x_max":0,"o":"m 1222 825 l 1421 551 b 1444 490 1436 531 1444 511 b 1415 407 1444 465 1433 439 l 1361 307 b 1251 222 1322 235 1290 222 b 1147 339 1194 222 1164 268 l 1047 779 b 939 896 1026 868 992 896 b 778 782 876 896 822 849 l 461 308 b 357 217 417 242 393 217 b 282 288 307 217 282 246 b 335 407 282 325 301 356 l 536 726 b 622 938 588 807 622 878 b 401 1076 622 1021 558 1076 b 42 621 178 1076 42 813 b 99 563 42 585 74 563 b 176 647 143 563 169 588 l 210 900 b 281 974 217 953 249 974 b 325 889 315 974 335 943 l 201 269 b 194 189 196 240 194 214 b 392 -21 194 51 278 -21 b 563 74 449 -21 517 10 l 950 617 b 1000 654 964 636 982 654 b 1029 624 1022 654 1029 639 b 1022 589 1029 614 1028 600 l 918 368 b 1054 -21 804 128 847 -21 b 1522 653 1353 -21 1522 382 b 1349 1076 1522 972 1457 1076 b 1172 936 1242 1076 1172 1014 b 1222 825 1172 901 1193 865 z m 1164 1224 b 1119 1332 1183 1279 1158 1314 b 933 1297 1054 1361 960 1375 b 990 1183 919 1254 921 1214 b 1164 1224 1054 1154 1135 1142 z m 863 1288 b 767 1354 849 1346 808 1361 b 631 1224 696 1343 610 1304 b 739 1160 642 1181 665 1147 b 863 1288 810 1171 883 1204 z "},"ẅ":{"ha":1592,"x_min":0,"x_max":0,"o":"m 1222 825 l 1421 551 b 1444 490 1436 531 1444 511 b 1415 407 1444 465 1433 439 l 1361 307 b 1251 222 1322 235 1290 222 b 1147 339 1194 222 1164 268 l 1047 779 b 939 896 1026 868 992 896 b 778 782 876 896 822 849 l 461 308 b 357 217 417 242 393 217 b 282 288 307 217 282 246 b 335 407 282 325 301 356 l 536 726 b 622 938 588 807 622 878 b 401 1076 622 1021 558 1076 b 42 621 178 1076 42 813 b 99 563 42 585 74 563 b 176 647 143 563 169 588 l 210 900 b 281 974 217 953 249 974 b 325 889 315 974 335 943 l 201 269 b 194 189 196 240 194 214 b 392 -21 194 51 278 -21 b 563 74 449 -21 517 10 l 950 617 b 1000 654 964 636 982 654 b 1029 624 1022 654 1029 639 b 1022 589 1029 614 1028 600 l 918 368 b 1054 -21 804 128 847 -21 b 1522 653 1353 -21 1522 382 b 1349 1076 1522 972 1457 1076 b 1172 936 1242 1076 1172 1014 b 1222 825 1172 901 1193 865 z m 1164 1224 b 1119 1332 1183 1279 1158 1314 b 933 1297 1054 1361 960 1375 b 990 1183 919 1254 921 1214 b 1164 1224 1054 1154 1135 1142 z m 863 1288 b 767 1354 849 1346 808 1361 b 631 1224 696 1343 610 1304 b 739 1160 642 1181 665 1147 b 863 1288 810 1171 883 1204 z "},"Ẁ":{"ha":1592,"x_min":0,"x_max":0,"o":"m 1222 825 l 1421 551 b 1444 490 1436 531 1444 511 b 1415 407 1444 465 1433 439 l 1361 307 b 1251 222 1322 235 1290 222 b 1147 339 1194 222 1164 268 l 1047 779 b 939 896 1026 868 992 896 b 778 782 876 896 822 849 l 461 308 b 357 217 417 242 393 217 b 282 288 307 217 282 246 b 335 407 282 325 301 356 l 536 726 b 622 938 588 807 622 878 b 401 1076 622 1021 558 1076 b 42 621 178 1076 42 813 b 99 563 42 585 74 563 b 176 647 143 563 169 588 l 210 900 b 281 974 217 953 249 974 b 325 889 315 974 335 943 l 201 269 b 194 189 196 240 194 214 b 392 -21 194 51 278 -21 b 563 74 449 -21 517 10 l 950 617 b 1000 654 964 636 982 654 b 1029 624 1022 654 1029 639 b 1022 589 1029 614 1028 600 l 918 368 b 1054 -21 804 128 847 -21 b 1522 653 1353 -21 1522 382 b 1349 1076 1522 972 1457 1076 b 1172 936 1242 1076 1172 1014 b 1222 825 1172 901 1193 865 z m 678 1165 l 932 1117 b 957 1161 961 1111 975 1146 l 754 1328 b 596 1288 699 1374 615 1353 b 678 1165 579 1233 599 1181 z "},"ẁ":{"ha":1592,"x_min":0,"x_max":0,"o":"m 1222 825 l 1421 551 b 1444 490 1436 531 1444 511 b 1415 407 1444 465 1433 439 l 1361 307 b 1251 222 1322 235 1290 222 b 1147 339 1194 222 1164 268 l 1047 779 b 939 896 1026 868 992 896 b 778 782 876 896 822 849 l 461 308 b 357 217 417 242 393 217 b 282 288 307 217 282 246 b 335 407 282 325 301 356 l 536 726 b 622 938 588 807 622 878 b 401 1076 622 1021 558 1076 b 42 621 178 1076 42 813 b 99 563 42 585 74 563 b 176 647 143 563 169 588 l 210 900 b 281 974 217 953 249 974 b 325 889 315 974 335 943 l 201 269 b 194 189 196 240 194 214 b 392 -21 194 51 278 -21 b 563 74 449 -21 517 10 l 950 617 b 1000 654 964 636 982 654 b 1029 624 1022 654 1029 639 b 1022 589 1029 614 1028 600 l 918 368 b 1054 -21 804 128 847 -21 b 1522 653 1353 -21 1522 382 b 1349 1076 1522 972 1457 1076 b 1172 936 1242 1076 1172 1014 b 1222 825 1172 901 1193 865 z m 678 1165 l 932 1117 b 957 1161 961 1111 975 1146 l 754 1328 b 596 1288 699 1374 615 1353 b 678 1165 579 1233 599 1181 z "},"X":{"ha":1108,"x_min":0,"x_max":0,"o":"m 768 890 l 756 571 b 700 550 754 536 714 529 l 442 946 b 257 1074 386 1031 344 1074 b 61 631 33 1074 8 758 b 135 592 76 593 114 583 b 171 707 176 611 192 643 l 113 879 b 178 904 97 931 142 956 l 389 604 b 369 443 442 529 429 496 l 146 250 b 215 -18 31 151 50 -18 b 382 139 318 -18 364 42 l 438 431 b 493 451 444 465 481 472 l 617 246 b 943 -24 750 24 832 -24 b 1094 118 1004 -24 1094 13 b 928 274 1094 206 1046 272 l 708 275 b 649 326 660 275 650 301 b 683 396 649 347 657 367 l 988 742 b 1078 953 1074 840 1078 893 b 931 1072 1078 1015 1024 1072 b 768 890 835 1072 774 1028 z "},"x":{"ha":1108,"x_min":0,"x_max":0,"o":"m 768 890 l 756 571 b 700 550 754 536 714 529 l 442 946 b 257 1074 386 1031 344 1074 b 61 631 33 1074 8 758 b 135 592 76 593 114 583 b 171 707 176 611 192 643 l 113 879 b 178 904 97 931 142 956 l 389 604 b 369 443 442 529 429 496 l 146 250 b 215 -18 31 151 50 -18 b 382 139 318 -18 364 42 l 438 431 b 493 451 444 465 481 472 l 617 246 b 943 -24 750 24 832 -24 b 1094 118 1004 -24 1094 13 b 928 274 1094 206 1046 272 l 708 275 b 649 326 660 275 650 301 b 683 396 649 347 657 367 l 988 742 b 1078 953 1074 840 1078 893 b 931 1072 1078 1015 1024 1072 b 768 890 835 1072 774 1028 z "},"Y":{"ha":1071,"x_min":0,"x_max":0,"o":"m 757 938 l 768 565 b 688 547 769 521 740 472 l 408 950 b 231 1076 347 1038 310 1076 b 50 643 28 1076 0 775 b 121 594 65 603 101 588 b 158 718 165 610 185 649 l 96 881 b 165 918 76 932 126 969 l 593 346 b 528 276 614 318 622 276 l 397 276 b 404 -21 176 276 200 -21 b 640 178 504 -21 585 86 l 981 736 b 1065 929 1019 799 1064 872 b 757 938 1069 1118 751 1131 z "},"y":{"ha":1071,"x_min":0,"x_max":0,"o":"m 757 938 l 768 565 b 688 547 769 521 740 472 l 408 950 b 231 1076 347 1038 310 1076 b 50 643 28 1076 0 775 b 121 594 65 603 101 588 b 158 718 165 610 185 649 l 96 881 b 165 918 76 932 126 969 l 593 346 b 528 276 614 318 622 276 l 397 276 b 404 -21 176 276 200 -21 b 640 178 504 -21 585 86 l 981 736 b 1065 929 1019 799 1064 872 b 757 938 1069 1118 751 1131 z "},"Ý":{"ha":1071,"x_min":0,"x_max":0,"o":"m 757 938 l 768 565 b 688 547 769 521 740 472 l 408 950 b 231 1076 347 1038 310 1076 b 50 643 28 1076 0 775 b 121 594 65 603 101 588 b 158 718 165 610 185 649 l 96 881 b 165 918 76 932 126 969 l 593 346 b 528 276 614 318 622 276 l 397 276 b 404 -21 176 276 200 -21 b 640 178 504 -21 585 86 l 981 736 b 1065 929 1019 799 1064 872 b 757 938 1069 1118 751 1131 z m 493 1117 l 747 1165 b 829 1288 826 1181 846 1233 b 671 1328 810 1353 726 1374 l 468 1161 b 493 1117 450 1146 464 1111 z "},"ý":{"ha":1071,"x_min":0,"x_max":0,"o":"m 757 938 l 768 565 b 688 547 769 521 740 472 l 408 950 b 231 1076 347 1038 310 1076 b 50 643 28 1076 0 775 b 121 594 65 603 101 588 b 158 718 165 610 185 649 l 96 881 b 165 918 76 932 126 969 l 593 346 b 528 276 614 318 622 276 l 397 276 b 404 -21 176 276 200 -21 b 640 178 504 -21 585 86 l 981 736 b 1065 929 1019 799 1064 872 b 757 938 1069 1118 751 1131 z m 493 1117 l 747 1165 b 829 1288 826 1181 846 1233 b 671 1328 810 1353 726 1374 l 468 1161 b 493 1117 450 1146 464 1111 z "},"Ŷ":{"ha":1071,"x_min":0,"x_max":0,"o":"m 757 938 l 768 565 b 688 547 769 521 740 472 l 408 950 b 231 1076 347 1038 310 1076 b 50 643 28 1076 0 775 b 121 594 65 603 101 588 b 158 718 165 610 185 649 l 96 881 b 165 918 76 932 126 969 l 593 346 b 528 276 614 318 622 276 l 397 276 b 404 -21 176 276 200 -21 b 640 178 504 -21 585 86 l 981 736 b 1065 929 1019 799 1064 872 b 757 938 1069 1118 751 1131 z m 549 1314 b 585 1292 561 1314 574 1307 l 663 1179 b 738 1128 692 1138 713 1128 b 826 1238 792 1128 826 1167 b 738 1340 826 1290 803 1335 b 549 1349 675 1346 611 1350 b 360 1340 486 1350 422 1346 b 271 1238 294 1335 271 1290 b 360 1128 271 1167 306 1128 b 435 1179 385 1128 406 1138 l 513 1292 b 549 1314 524 1307 536 1314 z "},"ŷ":{"ha":1071,"x_min":0,"x_max":0,"o":"m 757 938 l 768 565 b 688 547 769 521 740 472 l 408 950 b 231 1076 347 1038 310 1076 b 50 643 28 1076 0 775 b 121 594 65 603 101 588 b 158 718 165 610 185 649 l 96 881 b 165 918 76 932 126 969 l 593 346 b 528 276 614 318 622 276 l 397 276 b 404 -21 176 276 200 -21 b 640 178 504 -21 585 86 l 981 736 b 1065 929 1019 799 1064 872 b 757 938 1069 1118 751 1131 z m 549 1314 b 585 1292 561 1314 574 1307 l 663 1179 b 738 1128 692 1138 713 1128 b 826 1238 792 1128 826 1167 b 738 1340 826 1290 803 1335 b 549 1349 675 1346 611 1350 b 360 1340 486 1350 422 1346 b 271 1238 294 1335 271 1290 b 360 1128 271 1167 306 1128 b 435 1179 385 1128 406 1138 l 513 1292 b 549 1314 524 1307 536 1314 z "},"ÿ":{"ha":1071,"x_min":0,"x_max":0,"o":"m 757 938 l 768 565 b 688 547 769 521 740 472 l 408 950 b 231 1076 347 1038 310 1076 b 50 643 28 1076 0 775 b 121 594 65 603 101 588 b 158 718 165 610 185 649 l 96 881 b 165 918 76 932 126 969 l 593 346 b 528 276 614 318 622 276 l 397 276 b 404 -21 176 276 200 -21 b 640 178 504 -21 585 86 l 981 736 b 1065 929 1019 799 1064 872 b 757 938 1069 1118 751 1131 z m 821 1224 b 776 1332 840 1279 815 1314 b 590 1297 711 1361 617 1375 b 647 1183 576 1254 578 1214 b 821 1224 711 1154 792 1142 z m 519 1288 b 424 1354 506 1346 465 1361 b 288 1224 353 1343 267 1304 b 396 1160 299 1181 322 1147 b 519 1288 467 1171 540 1204 z "},"Ÿ":{"ha":1071,"x_min":0,"x_max":0,"o":"m 757 938 l 768 565 b 688 547 769 521 740 472 l 408 950 b 231 1076 347 1038 310 1076 b 50 643 28 1076 0 775 b 121 594 65 603 101 588 b 158 718 165 610 185 649 l 96 881 b 165 918 76 932 126 969 l 593 346 b 528 276 614 318 622 276 l 397 276 b 404 -21 176 276 200 -21 b 640 178 504 -21 585 86 l 981 736 b 1065 929 1019 799 1064 872 b 757 938 1069 1118 751 1131 z m 821 1224 b 776 1332 840 1279 815 1314 b 590 1297 711 1361 617 1375 b 647 1183 576 1254 578 1214 b 821 1224 711 1154 792 1142 z m 519 1288 b 424 1354 506 1346 465 1361 b 288 1224 353 1343 267 1304 b 396 1160 299 1181 322 1147 b 519 1288 467 1171 540 1204 z "},"Ỳ":{"ha":1071,"x_min":0,"x_max":0,"o":"m 757 938 l 768 565 b 688 547 769 521 740 472 l 408 950 b 231 1076 347 1038 310 1076 b 50 643 28 1076 0 775 b 121 594 65 603 101 588 b 158 718 165 610 185 649 l 96 881 b 165 918 76 932 126 969 l 593 346 b 528 276 614 318 622 276 l 397 276 b 404 -21 176 276 200 -21 b 640 178 504 -21 585 86 l 981 736 b 1065 929 1019 799 1064 872 b 757 938 1069 1118 751 1131 z m 335 1165 l 589 1117 b 614 1161 618 1111 632 1146 l 411 1328 b 253 1288 356 1374 272 1353 b 335 1165 236 1233 256 1181 z "},"ỳ":{"ha":1071,"x_min":0,"x_max":0,"o":"m 757 938 l 768 565 b 688 547 769 521 740 472 l 408 950 b 231 1076 347 1038 310 1076 b 50 643 28 1076 0 775 b 121 594 65 603 101 588 b 158 718 165 610 185 649 l 96 881 b 165 918 76 932 126 969 l 593 346 b 528 276 614 318 622 276 l 397 276 b 404 -21 176 276 200 -21 b 640 178 504 -21 585 86 l 981 736 b 1065 929 1019 799 1064 872 b 757 938 1069 1118 751 1131 z m 335 1165 l 589 1117 b 614 1161 618 1111 632 1146 l 411 1328 b 253 1288 356 1374 272 1353 b 335 1165 236 1233 256 1181 z "},"Z":{"ha":1150,"x_min":0,"x_max":0,"o":"m 961 268 l 508 406 b 508 499 456 421 458 478 l 840 639 b 1081 886 1001 707 1081 801 b 813 1056 1081 979 988 1056 l 288 1056 b 69 886 161 1056 61 1008 b 214 721 76 772 133 721 b 394 782 265 721 328 742 l 753 996 b 813 922 807 1029 854 964 l 139 251 b 75 118 93 206 75 160 b 244 -19 75 40 144 -19 b 393 190 344 -19 393 86 l 393 285 b 433 369 393 350 408 369 b 483 342 450 369 472 353 l 753 61 b 932 -22 810 1 883 -22 b 1072 132 1026 -22 1072 60 b 961 268 1072 179 1044 239 z "},"z":{"ha":1150,"x_min":0,"x_max":0,"o":"m 961 268 l 508 406 b 508 499 456 421 458 478 l 840 639 b 1081 886 1001 707 1081 801 b 813 1056 1081 979 988 1056 l 288 1056 b 69 886 161 1056 61 1008 b 214 721 76 772 133 721 b 394 782 265 721 328 742 l 753 996 b 813 922 807 1029 854 964 l 139 251 b 75 118 93 206 75 160 b 244 -19 75 40 144 -19 b 393 190 344 -19 393 86 l 393 285 b 433 369 393 350 408 369 b 483 342 450 369 472 353 l 753 61 b 932 -22 810 1 883 -22 b 1072 132 1026 -22 1072 60 b 961 268 1072 179 1044 239 z "},"Ź":{"ha":1150,"x_min":0,"x_max":0,"o":"m 961 268 l 508 406 b 508 499 456 421 458 478 l 840 639 b 1081 886 1001 707 1081 801 b 813 1056 1081 979 988 1056 l 288 1056 b 69 886 161 1056 61 1008 b 214 721 76 772 133 721 b 394 782 265 721 328 742 l 753 996 b 813 922 807 1029 854 964 l 139 251 b 75 118 93 206 75 160 b 244 -19 75 40 144 -19 b 393 190 344 -19 393 86 l 393 285 b 433 369 393 350 408 369 b 483 342 450 369 472 353 l 753 61 b 932 -22 810 1 883 -22 b 1072 132 1026 -22 1072 60 b 961 268 1072 179 1044 239 z m 518 1117 l 772 1165 b 854 1288 851 1181 871 1233 b 696 1328 835 1353 751 1374 l 493 1161 b 518 1117 475 1146 489 1111 z "},"Ž":{"ha":1150,"x_min":0,"x_max":0,"o":"m 961 268 l 508 406 b 508 499 456 421 458 478 l 840 639 b 1081 886 1001 707 1081 801 b 813 1056 1081 979 988 1056 l 288 1056 b 69 886 161 1056 61 1008 b 214 721 76 772 133 721 b 394 782 265 721 328 742 l 753 996 b 813 922 807 1029 854 964 l 139 251 b 75 118 93 206 75 160 b 244 -19 75 40 144 -19 b 393 190 344 -19 393 86 l 393 285 b 433 369 393 350 408 369 b 483 342 450 369 472 353 l 753 61 b 932 -22 810 1 883 -22 b 1072 132 1026 -22 1072 60 b 961 268 1072 179 1044 239 z m 567 1163 b 531 1185 554 1163 542 1169 l 453 1297 b 378 1349 424 1339 403 1349 b 289 1239 324 1349 289 1310 b 378 1136 289 1186 313 1142 b 567 1128 440 1131 504 1126 b 756 1136 629 1126 693 1131 b 844 1239 821 1142 844 1186 b 756 1349 844 1310 810 1349 b 681 1297 731 1349 710 1339 l 603 1185 b 567 1163 592 1169 579 1163 z "},"Ż":{"ha":1150,"x_min":0,"x_max":0,"o":"m 961 268 l 508 406 b 508 499 456 421 458 478 l 840 639 b 1081 886 1001 707 1081 801 b 813 1056 1081 979 988 1056 l 288 1056 b 69 886 161 1056 61 1008 b 214 721 76 772 133 721 b 394 782 265 721 328 742 l 753 996 b 813 922 807 1029 854 964 l 139 251 b 75 118 93 206 75 160 b 244 -19 75 40 144 -19 b 393 190 344 -19 393 86 l 393 285 b 433 369 393 350 408 369 b 483 342 450 369 472 353 l 753 61 b 932 -22 810 1 883 -22 b 1072 132 1026 -22 1072 60 b 961 268 1072 179 1044 239 z m 717 1214 b 643 1332 729 1285 692 1319 b 432 1254 560 1353 447 1351 b 521 1132 424 1200 435 1153 b 717 1214 603 1111 700 1111 z "},"ß":{"ha":1197,"x_min":0,"x_max":0,"o":"m 1074 343 l 907 501 b 939 681 842 564 851 624 l 988 713 b 1142 908 1097 786 1142 842 b 878 1056 1142 1008 1057 1056 l 503 1056 b 253 833 349 1056 297 1010 l 94 211 b 229 -19 58 68 110 -19 b 386 167 332 -19 396 56 l 335 774 b 514 907 326 883 374 942 l 829 831 b 925 756 889 817 931 786 b 838 711 919 719 889 704 b 543 628 650 738 565 714 b 699 418 524 556 568 496 l 988 251 b 938 122 1086 196 1038 71 l 690 253 b 469 151 589 307 478 256 b 728 -21 461 49 565 -21 b 1074 343 1051 -21 1243 181 z "},"º":{"ha":722,"x_min":0,"x_max":0,"o":"m 369 1076 b 89 821 196 1076 89 989 b 369 568 89 653 196 568 b 633 821 543 568 633 653 b 369 1076 633 989 543 1076 z m 489 794 l 394 692 b 294 718 361 656 308 675 l 243 875 b 332 951 219 949 272 978 l 465 892 b 489 794 511 871 522 832 z m 138 306 l 511 296 b 608 410 596 293 622 354 b 457 463 596 461 554 493 l 140 361 b 138 306 92 346 101 307 z "},"А":{"ha":1111,"x_min":0,"x_max":0,"o":"m 622 324 l 264 315 b 42 156 142 313 42 267 b 213 -21 42 25 132 -21 b 493 136 326 -21 429 82 l 629 253 b 718 208 678 294 718 285 l 718 136 b 886 -21 718 51 772 -21 b 1047 254 1029 -21 1076 99 l 921 922 b 763 1076 903 1017 846 1076 b 501 944 672 1076 622 1040 l 222 722 b 117 557 158 671 117 617 b 265 403 117 471 183 403 b 439 513 317 403 394 421 l 607 857 b 736 1017 628 900 678 1006 b 822 903 794 1028 832 979 l 763 411 b 622 324 754 340 701 325 z "},"а":{"ha":1111,"x_min":0,"x_max":0,"o":"m 622 324 l 264 315 b 42 156 142 313 42 267 b 213 -21 42 25 132 -21 b 493 136 326 -21 429 82 l 629 253 b 718 208 678 294 718 285 l 718 136 b 886 -21 718 51 772 -21 b 1047 254 1029 -21 1076 99 l 921 922 b 763 1076 903 1017 846 1076 b 501 944 672 1076 622 1040 l 222 722 b 117 557 158 671 117 617 b 265 403 117 471 183 403 b 439 513 317 403 394 421 l 607 857 b 736 1017 628 900 678 1006 b 822 903 794 1028 832 979 l 763 411 b 622 324 754 340 701 325 z "},"Б":{"ha":1196,"x_min":0,"x_max":0,"o":"m 76 396 b 674 -21 76 168 243 -21 b 1139 332 969 -21 1139 124 b 1018 561 1139 438 1082 507 l 939 629 b 571 651 810 740 703 751 l 244 404 b 171 468 179 354 132 410 l 482 939 b 632 961 526 1007 567 1014 l 810 818 b 1140 894 972 688 1140 774 b 883 1056 1140 1008 1054 1056 l 557 1056 b 76 396 197 1056 76 954 z m 261 329 l 854 493 b 1051 375 974 526 1051 464 b 878 231 1051 282 997 232 l 272 226 b 206 274 225 226 206 249 b 261 329 206 300 224 319 z "},"б":{"ha":1196,"x_min":0,"x_max":0,"o":"m 76 396 b 674 -21 76 168 243 -21 b 1139 332 969 -21 1139 124 b 1018 561 1139 438 1082 507 l 939 629 b 571 651 810 740 703 751 l 244 404 b 171 468 179 354 132 410 l 482 939 b 632 961 526 1007 567 1014 l 810 818 b 1140 894 972 688 1140 774 b 883 1056 1140 1008 1054 1056 l 557 1056 b 76 396 197 1056 76 954 z m 261 329 l 854 493 b 1051 375 974 526 1051 464 b 878 231 1051 282 997 232 l 272 226 b 206 274 225 226 206 249 b 261 329 206 300 224 319 z "},"В":{"ha":1200,"x_min":0,"x_max":0,"o":"m 800 672 l 917 667 b 1136 863 1026 661 1136 738 b 764 1056 1136 1008 1025 1056 l 589 1056 b 63 522 263 1056 63 863 b 683 -21 63 210 261 -21 b 1144 328 954 -21 1144 119 b 926 554 1144 415 1110 525 l 775 578 b 736 624 749 582 736 604 b 800 672 736 649 758 674 z m 901 231 l 351 226 b 185 324 265 226 208 264 b 207 486 165 372 168 432 l 489 869 b 807 942 603 1024 742 1019 b 744 707 863 875 865 779 l 324 457 b 279 369 282 432 268 406 b 371 336 288 343 319 326 l 872 436 b 1057 339 989 460 1057 424 b 901 231 1057 283 1003 232 z "},"в":{"ha":1200,"x_min":0,"x_max":0,"o":"m 800 672 l 917 667 b 1136 863 1026 661 1136 738 b 764 1056 1136 1008 1025 1056 l 589 1056 b 63 522 263 1056 63 863 b 683 -21 63 210 261 -21 b 1144 328 954 -21 1144 119 b 926 554 1144 415 1110 525 l 775 578 b 736 624 749 582 736 604 b 800 672 736 649 758 674 z m 901 231 l 351 226 b 185 324 265 226 208 264 b 207 486 165 372 168 432 l 489 869 b 807 942 603 1024 742 1019 b 744 707 863 875 865 779 l 324 457 b 279 369 282 432 268 406 b 371 336 288 343 319 326 l 872 436 b 1057 339 989 460 1057 424 b 901 231 1057 283 1003 232 z "},"Г":{"ha":924,"x_min":0,"x_max":0,"o":"m 99 801 l 97 196 b 267 -21 97 28 158 -21 b 408 260 383 -21 474 76 l 194 856 b 313 964 165 936 235 1001 l 785 740 b 785 653 822 722 825 679 l 663 571 b 708 396 576 514 611 396 b 856 585 792 396 836 440 l 885 797 b 693 1056 908 967 854 1056 l 336 1056 b 99 801 147 1056 99 967 z "},"г":{"ha":924,"x_min":0,"x_max":0,"o":"m 99 801 l 97 196 b 267 -21 97 28 158 -21 b 408 260 383 -21 474 76 l 194 856 b 313 964 165 936 235 1001 l 785 740 b 785 653 822 722 825 679 l 663 571 b 708 396 576 514 611 396 b 856 585 792 396 836 440 l 885 797 b 693 1056 908 967 854 1056 l 336 1056 b 99 801 147 1056 99 967 z "},"Ѓ":{"ha":924,"x_min":0,"x_max":0,"o":"m 99 801 l 97 196 b 267 -21 97 28 158 -21 b 408 260 383 -21 474 76 l 194 856 b 313 964 165 936 235 1001 l 785 740 b 785 653 822 722 825 679 l 663 571 b 708 396 576 514 611 396 b 856 585 792 396 836 440 l 885 797 b 693 1056 908 967 854 1056 l 336 1056 b 99 801 147 1056 99 967 z m 360 1117 l 614 1165 b 696 1288 693 1181 713 1233 b 538 1328 676 1353 593 1374 l 335 1161 b 360 1117 317 1146 331 1111 z "},"ѓ":{"ha":924,"x_min":0,"x_max":0,"o":"m 99 801 l 97 196 b 267 -21 97 28 158 -21 b 408 260 383 -21 474 76 l 194 856 b 313 964 165 936 235 1001 l 785 740 b 785 653 822 722 825 679 l 663 571 b 708 396 576 514 611 396 b 856 585 792 396 836 440 l 885 797 b 693 1056 908 967 854 1056 l 336 1056 b 99 801 147 1056 99 967 z m 360 1117 l 614 1165 b 696 1288 693 1181 713 1233 b 538 1328 676 1353 593 1374 l 335 1161 b 360 1117 317 1146 331 1111 z "},"Ґ":{"ha":807,"x_min":0,"x_max":0,"o":"m 92 883 l 90 196 b 265 -21 90 28 154 -21 b 401 260 379 -21 465 85 l 165 906 b 299 974 133 993 240 1050 l 467 753 b 778 860 586 596 801 671 l 746 1111 b 571 1326 725 1274 672 1326 b 528 1124 438 1326 417 1169 l 667 1067 b 631 967 736 1039 700 942 l 390 1053 b 92 883 224 1113 92 1056 z "},"ґ":{"ha":807,"x_min":0,"x_max":0,"o":"m 92 883 l 90 196 b 265 -21 90 28 154 -21 b 401 260 379 -21 465 85 l 165 906 b 299 974 133 993 240 1050 l 467 753 b 778 860 586 596 801 671 l 746 1111 b 571 1326 725 1274 672 1326 b 528 1124 438 1326 417 1169 l 667 1067 b 631 967 736 1039 700 942 l 390 1053 b 92 883 224 1113 92 1056 z "},"Д":{"ha":1467,"x_min":0,"x_max":0,"o":"m 14 289 l 39 -65 b 208 -278 50 -228 103 -278 b 257 -57 344 -278 372 -118 l 121 15 b 172 104 60 47 107 139 l 281 46 b 485 0 331 18 408 0 l 1006 0 b 1149 33 1069 0 1115 15 l 1285 108 b 1343 21 1353 146 1397 53 l 1222 -51 b 1265 -278 1106 -121 1144 -278 b 1425 -65 1365 -278 1425 -228 l 1425 281 b 1301 440 1425 385 1365 440 b 1165 329 1244 440 1194 404 l 1089 136 b 982 175 1058 60 954 104 l 1211 754 b 1047 1056 1276 918 1219 1056 l 581 1056 b 360 792 438 1056 347 971 l 404 178 b 299 169 410 100 304 99 l 289 307 b 147 457 282 408 214 457 b 14 289 76 457 6 399 z m 481 453 l 740 931 b 928 889 799 1038 929 1007 l 917 171 b 786 103 915 94 850 64 l 522 267 b 481 453 442 317 436 371 z "},"д":{"ha":1467,"x_min":0,"x_max":0,"o":"m 14 289 l 39 -65 b 208 -278 50 -228 103 -278 b 257 -57 344 -278 372 -118 l 121 15 b 172 104 60 47 107 139 l 281 46 b 485 0 331 18 408 0 l 1006 0 b 1149 33 1069 0 1115 15 l 1285 108 b 1343 21 1353 146 1397 53 l 1222 -51 b 1265 -278 1106 -121 1144 -278 b 1425 -65 1365 -278 1425 -228 l 1425 281 b 1301 440 1425 385 1365 440 b 1165 329 1244 440 1194 404 l 1089 136 b 982 175 1058 60 954 104 l 1211 754 b 1047 1056 1276 918 1219 1056 l 581 1056 b 360 792 438 1056 347 971 l 404 178 b 299 169 410 100 304 99 l 289 307 b 147 457 282 408 214 457 b 14 289 76 457 6 399 z m 481 453 l 740 931 b 928 889 799 1038 929 1007 l 917 171 b 786 103 915 94 850 64 l 522 267 b 481 453 442 317 436 371 z "},"Е":{"ha":1138,"x_min":0,"x_max":0,"o":"m 933 199 l 322 144 b 206 214 242 138 206 175 b 322 293 206 254 238 282 l 819 354 b 961 497 925 367 961 431 b 819 653 961 549 942 614 l 278 825 b 201 908 213 846 201 874 b 307 972 201 939 239 996 l 875 774 b 1061 849 994 732 1057 765 b 953 1007 1065 928 1026 972 b 478 1075 872 1044 664 1076 b 126 894 293 1075 126 1033 b 224 749 126 843 161 793 l 638 461 b 601 397 693 422 665 371 l 324 511 b 69 374 188 567 69 500 b 728 -22 69 121 372 -22 b 1061 122 976 -22 1061 35 b 933 199 1061 167 1038 208 z "},"е":{"ha":1138,"x_min":0,"x_max":0,"o":"m 933 199 l 322 144 b 206 214 242 138 206 175 b 322 293 206 254 238 282 l 819 354 b 961 497 925 367 961 431 b 819 653 961 549 942 614 l 278 825 b 201 908 213 846 201 874 b 307 972 201 939 239 996 l 875 774 b 1061 849 994 732 1057 765 b 953 1007 1065 928 1026 972 b 478 1075 872 1044 664 1076 b 126 894 293 1075 126 1033 b 224 749 126 843 161 793 l 638 461 b 601 397 693 422 665 371 l 324 511 b 69 374 188 567 69 500 b 728 -22 69 121 372 -22 b 1061 122 976 -22 1061 35 b 933 199 1061 167 1038 208 z "},"Ѐ":{"ha":1138,"x_min":0,"x_max":0,"o":"m 933 199 l 322 144 b 206 214 242 138 206 175 b 322 293 206 254 238 282 l 819 354 b 961 497 925 367 961 431 b 819 653 961 549 942 614 l 278 825 b 201 908 213 846 201 874 b 307 972 201 939 239 996 l 875 774 b 1061 849 994 732 1057 765 b 953 1007 1065 928 1026 972 b 478 1075 872 1044 664 1076 b 126 894 293 1075 126 1033 b 224 749 126 843 161 793 l 638 461 b 601 397 693 422 665 371 l 324 511 b 69 374 188 567 69 500 b 728 -22 69 121 372 -22 b 1061 122 976 -22 1061 35 b 933 199 1061 167 1038 208 z m 396 1165 l 650 1117 b 675 1161 679 1111 693 1146 l 472 1328 b 314 1288 417 1374 333 1353 b 396 1165 297 1233 317 1181 z "},"ѐ":{"ha":1138,"x_min":0,"x_max":0,"o":"m 933 199 l 322 144 b 206 214 242 138 206 175 b 322 293 206 254 238 282 l 819 354 b 961 497 925 367 961 431 b 819 653 961 549 942 614 l 278 825 b 201 908 213 846 201 874 b 307 972 201 939 239 996 l 875 774 b 1061 849 994 732 1057 765 b 953 1007 1065 928 1026 972 b 478 1075 872 1044 664 1076 b 126 894 293 1075 126 1033 b 224 749 126 843 161 793 l 638 461 b 601 397 693 422 665 371 l 324 511 b 69 374 188 567 69 500 b 728 -22 69 121 372 -22 b 1061 122 976 -22 1061 35 b 933 199 1061 167 1038 208 z m 396 1165 l 650 1117 b 675 1161 679 1111 693 1146 l 472 1328 b 314 1288 417 1374 333 1353 b 396 1165 297 1233 317 1181 z "},"Ё":{"ha":1138,"x_min":0,"x_max":0,"o":"m 933 199 l 322 144 b 206 214 242 138 206 175 b 322 293 206 254 238 282 l 819 354 b 961 497 925 367 961 431 b 819 653 961 549 942 614 l 278 825 b 201 908 213 846 201 874 b 307 972 201 939 239 996 l 875 774 b 1061 849 994 732 1057 765 b 953 1007 1065 928 1026 972 b 478 1075 872 1044 664 1076 b 126 894 293 1075 126 1033 b 224 749 126 843 161 793 l 638 461 b 601 397 693 422 665 371 l 324 511 b 69 374 188 567 69 500 b 728 -22 69 121 372 -22 b 1061 122 976 -22 1061 35 b 933 199 1061 167 1038 208 z m 882 1224 b 838 1332 901 1279 876 1314 b 651 1297 772 1361 678 1375 b 708 1183 638 1254 639 1214 b 882 1224 772 1154 853 1142 z m 581 1288 b 485 1354 567 1346 526 1361 b 349 1224 414 1343 328 1304 b 457 1160 360 1181 383 1147 b 581 1288 528 1171 601 1204 z "},"ё":{"ha":1138,"x_min":0,"x_max":0,"o":"m 933 199 l 322 144 b 206 214 242 138 206 175 b 322 293 206 254 238 282 l 819 354 b 961 497 925 367 961 431 b 819 653 961 549 942 614 l 278 825 b 201 908 213 846 201 874 b 307 972 201 939 239 996 l 875 774 b 1061 849 994 732 1057 765 b 953 1007 1065 928 1026 972 b 478 1075 872 1044 664 1076 b 126 894 293 1075 126 1033 b 224 749 126 843 161 793 l 638 461 b 601 397 693 422 665 371 l 324 511 b 69 374 188 567 69 500 b 728 -22 69 121 372 -22 b 1061 122 976 -22 1061 35 b 933 199 1061 167 1038 208 z m 882 1224 b 838 1332 901 1279 876 1314 b 651 1297 772 1361 678 1375 b 708 1183 638 1254 639 1214 b 882 1224 772 1154 853 1142 z m 581 1288 b 485 1354 567 1346 526 1361 b 349 1224 414 1343 328 1304 b 457 1160 360 1181 383 1147 b 581 1288 528 1171 601 1204 z "},"Ж":{"ha":1772,"x_min":0,"x_max":0,"o":"m 49 135 b 213 -21 49 43 115 -21 b 399 204 313 -21 399 40 l 399 482 b 513 510 399 569 478 581 l 674 183 b 888 -21 749 32 803 -21 b 1035 122 967 -21 1035 42 b 985 265 1035 181 1010 224 l 819 542 b 903 599 781 606 857 663 l 1240 132 b 1447 -21 1317 26 1358 -21 b 1618 143 1536 -21 1601 29 l 1668 490 b 1579 601 1679 568 1626 603 b 1517 500 1536 599 1497 564 l 1568 332 b 1493 272 1581 292 1540 246 l 1083 499 b 1028 579 1036 525 1024 547 b 1167 657 1033 621 1092 640 l 1535 740 b 1736 904 1661 769 1719 807 b 1600 1076 1750 988 1693 1076 b 1381 972 1524 1076 1472 1056 l 1085 707 b 929 676 1013 642 961 631 b 969 804 906 711 929 757 l 992 831 b 900 1076 1082 938 1050 1076 b 739 892 794 1076 739 1015 l 740 460 b 643 447 740 396 658 383 l 565 774 b 256 1076 515 986 406 1076 b 63 925 131 1076 63 1010 b 256 764 63 829 126 764 l 468 764 b 492 693 508 764 525 726 l 169 374 b 49 135 90 296 49 229 z "},"ж":{"ha":1772,"x_min":0,"x_max":0,"o":"m 49 135 b 213 -21 49 43 115 -21 b 399 204 313 -21 399 40 l 399 482 b 513 510 399 569 478 581 l 674 183 b 888 -21 749 32 803 -21 b 1035 122 967 -21 1035 42 b 985 265 1035 181 1010 224 l 819 542 b 903 599 781 606 857 663 l 1240 132 b 1447 -21 1317 26 1358 -21 b 1618 143 1536 -21 1601 29 l 1668 490 b 1579 601 1679 568 1626 603 b 1517 500 1536 599 1497 564 l 1568 332 b 1493 272 1581 292 1540 246 l 1083 499 b 1028 579 1036 525 1024 547 b 1167 657 1033 621 1092 640 l 1535 740 b 1736 904 1661 769 1719 807 b 1600 1076 1750 988 1693 1076 b 1381 972 1524 1076 1472 1056 l 1085 707 b 929 676 1013 642 961 631 b 969 804 906 711 929 757 l 992 831 b 900 1076 1082 938 1050 1076 b 739 892 794 1076 739 1015 l 740 460 b 643 447 740 396 658 383 l 565 774 b 256 1076 515 986 406 1076 b 63 925 131 1076 63 1010 b 256 764 63 829 126 764 l 468 764 b 492 693 508 764 525 726 l 169 374 b 49 135 90 296 49 229 z "},"З":{"ha":1168,"x_min":0,"x_max":0,"o":"m 76 307 b 525 -19 76 151 203 -19 b 1140 382 901 -19 1140 174 b 961 588 1140 518 1074 581 l 713 604 b 717 707 642 608 650 710 l 857 701 b 1082 858 1006 696 1082 771 b 668 1074 1082 957 982 1074 b 89 806 324 1074 89 949 b 371 738 89 676 243 625 l 613 949 b 753 1018 668 997 700 1018 b 781 867 813 1018 857 935 l 483 606 b 661 369 339 478 443 263 l 911 492 b 996 331 1053 561 1118 389 l 436 63 b 335 129 382 36 335 75 l 335 326 b 211 481 335 431 285 481 b 76 307 107 481 76 392 z "},"з":{"ha":1168,"x_min":0,"x_max":0,"o":"m 76 307 b 525 -19 76 151 203 -19 b 1140 382 901 -19 1140 174 b 961 588 1140 518 1074 581 l 713 604 b 717 707 642 608 650 710 l 857 701 b 1082 858 1006 696 1082 771 b 668 1074 1082 957 982 1074 b 89 806 324 1074 89 949 b 371 738 89 676 243 625 l 613 949 b 753 1018 668 997 700 1018 b 781 867 813 1018 857 935 l 483 606 b 661 369 339 478 443 263 l 911 492 b 996 331 1053 561 1118 389 l 436 63 b 335 129 382 36 335 75 l 335 326 b 211 481 335 431 285 481 b 76 307 107 481 76 392 z "},"И":{"ha":1211,"x_min":0,"x_max":0,"o":"m 110 800 l 90 176 b 229 -21 86 43 143 -21 b 431 125 307 -21 361 8 l 901 914 b 1028 851 958 1010 1064 942 l 821 335 b 919 -21 756 171 739 -21 b 1099 186 1003 -21 1093 28 l 1119 767 b 876 1076 1126 974 1047 1076 b 597 851 729 1076 639 1011 l 457 318 b 319 304 436 239 354 235 l 190 560 b 217 703 158 622 167 675 l 382 794 b 322 1076 532 878 500 1076 b 110 800 131 1076 113 886 z "},"и":{"ha":1211,"x_min":0,"x_max":0,"o":"m 110 800 l 90 176 b 229 -21 86 43 143 -21 b 431 125 307 -21 361 8 l 901 914 b 1028 851 958 1010 1064 942 l 821 335 b 919 -21 756 171 739 -21 b 1099 186 1003 -21 1093 28 l 1119 767 b 876 1076 1126 974 1047 1076 b 597 851 729 1076 639 1011 l 457 318 b 319 304 436 239 354 235 l 190 560 b 217 703 158 622 167 675 l 382 794 b 322 1076 532 878 500 1076 b 110 800 131 1076 113 886 z "},"Й":{"ha":1211,"x_min":0,"x_max":0,"o":"m 110 800 l 90 176 b 229 -21 86 43 143 -21 b 431 125 307 -21 361 8 l 901 914 b 1028 851 958 1010 1064 942 l 821 335 b 919 -21 756 171 739 -21 b 1099 186 1003 -21 1093 28 l 1119 767 b 876 1076 1126 974 1047 1076 b 597 851 729 1076 639 1011 l 457 318 b 319 304 436 239 354 235 l 190 560 b 217 703 158 622 167 675 l 382 794 b 322 1076 532 878 500 1076 b 110 800 131 1076 113 886 z m 610 1121 b 881 1281 768 1117 881 1157 b 810 1349 881 1326 843 1349 b 717 1283 768 1349 738 1332 b 610 1160 688 1215 669 1160 b 503 1283 550 1160 532 1215 b 410 1349 482 1332 451 1349 b 339 1281 376 1349 339 1326 b 610 1121 339 1157 451 1117 z "},"й":{"ha":1211,"x_min":0,"x_max":0,"o":"m 110 800 l 90 176 b 229 -21 86 43 143 -21 b 431 125 307 -21 361 8 l 901 914 b 1028 851 958 1010 1064 942 l 821 335 b 919 -21 756 171 739 -21 b 1099 186 1003 -21 1093 28 l 1119 767 b 876 1076 1126 974 1047 1076 b 597 851 729 1076 639 1011 l 457 318 b 319 304 436 239 354 235 l 190 560 b 217 703 158 622 167 675 l 382 794 b 322 1076 532 878 500 1076 b 110 800 131 1076 113 886 z m 610 1121 b 881 1281 768 1117 881 1157 b 810 1349 881 1326 843 1349 b 717 1283 768 1349 738 1332 b 610 1160 688 1215 669 1160 b 503 1283 550 1160 532 1215 b 410 1349 482 1332 451 1349 b 339 1281 376 1349 339 1326 b 610 1121 339 1157 451 1117 z "},"Ѝ":{"ha":1211,"x_min":0,"x_max":0,"o":"m 110 800 l 90 176 b 229 -21 86 43 143 -21 b 431 125 307 -21 361 8 l 901 914 b 1028 851 958 1010 1064 942 l 821 335 b 919 -21 756 171 739 -21 b 1099 186 1003 -21 1093 28 l 1119 767 b 876 1076 1126 974 1047 1076 b 597 851 729 1076 639 1011 l 457 318 b 319 304 436 239 354 235 l 190 560 b 217 703 158 622 167 675 l 382 794 b 322 1076 532 878 500 1076 b 110 800 131 1076 113 886 z m 396 1165 l 650 1117 b 675 1161 679 1111 693 1146 l 472 1328 b 314 1288 417 1374 333 1353 b 396 1165 297 1233 317 1181 z "},"ѝ":{"ha":1211,"x_min":0,"x_max":0,"o":"m 110 800 l 90 176 b 229 -21 86 43 143 -21 b 431 125 307 -21 361 8 l 901 914 b 1028 851 958 1010 1064 942 l 821 335 b 919 -21 756 171 739 -21 b 1099 186 1003 -21 1093 28 l 1119 767 b 876 1076 1126 974 1047 1076 b 597 851 729 1076 639 1011 l 457 318 b 319 304 436 239 354 235 l 190 560 b 217 703 158 622 167 675 l 382 794 b 322 1076 532 878 500 1076 b 110 800 131 1076 113 886 z m 396 1165 l 650 1117 b 675 1161 679 1111 693 1146 l 472 1328 b 314 1288 417 1374 333 1353 b 396 1165 297 1233 317 1181 z "},"К":{"ha":1197,"x_min":0,"x_max":0,"o":"m 300 1076 b 132 897 221 1076 142 1029 l 83 171 b 226 -21 76 50 126 -21 b 401 108 325 -21 389 39 b 367 263 413 175 394 221 l 193 528 b 276 585 150 594 221 650 l 657 132 b 864 -21 738 36 772 -21 b 1042 143 947 -21 1025 25 l 1092 490 b 1003 601 1103 568 1050 603 b 940 500 960 599 921 564 l 992 332 b 925 268 1004 292 965 249 l 442 500 b 389 585 394 522 383 554 b 524 646 396 626 469 635 l 958 740 b 1160 904 1085 768 1143 807 b 1039 1076 1174 988 1117 1076 b 803 972 953 1076 893 1040 l 440 697 b 286 674 371 644 322 617 b 325 797 267 704 288 751 l 347 824 b 300 1076 438 931 442 1076 z "},"к":{"ha":1197,"x_min":0,"x_max":0,"o":"m 300 1076 b 132 897 221 1076 142 1029 l 83 171 b 226 -21 76 50 126 -21 b 401 108 325 -21 389 39 b 367 263 413 175 394 221 l 193 528 b 276 585 150 594 221 650 l 657 132 b 864 -21 738 36 772 -21 b 1042 143 947 -21 1025 25 l 1092 490 b 1003 601 1103 568 1050 603 b 940 500 960 599 921 564 l 992 332 b 925 268 1004 292 965 249 l 442 500 b 389 585 394 522 383 554 b 524 646 396 626 469 635 l 958 740 b 1160 904 1085 768 1143 807 b 1039 1076 1174 988 1117 1076 b 803 972 953 1076 893 1040 l 440 697 b 286 674 371 644 322 617 b 325 797 267 704 288 751 l 347 824 b 300 1076 438 931 442 1076 z "},"Ќ":{"ha":1197,"x_min":0,"x_max":0,"o":"m 300 1076 b 132 897 221 1076 142 1029 l 83 171 b 226 -21 76 50 126 -21 b 401 108 325 -21 389 39 b 367 263 413 175 394 221 l 193 528 b 276 585 150 594 221 650 l 657 132 b 864 -21 738 36 772 -21 b 1042 143 947 -21 1025 25 l 1092 490 b 1003 601 1103 568 1050 603 b 940 500 960 599 921 564 l 992 332 b 925 268 1004 292 965 249 l 442 500 b 389 585 394 522 383 554 b 524 646 396 626 469 635 l 958 740 b 1160 904 1085 768 1143 807 b 1039 1076 1174 988 1117 1076 b 803 972 953 1076 893 1040 l 440 697 b 286 674 371 644 322 617 b 325 797 267 704 288 751 l 347 824 b 300 1076 438 931 442 1076 z m 551 1117 l 806 1165 b 888 1288 885 1181 904 1233 b 729 1328 868 1353 785 1374 l 526 1161 b 551 1117 508 1146 522 1111 z "},"ќ":{"ha":1197,"x_min":0,"x_max":0,"o":"m 300 1076 b 132 897 221 1076 142 1029 l 83 171 b 226 -21 76 50 126 -21 b 401 108 325 -21 389 39 b 367 263 413 175 394 221 l 193 528 b 276 585 150 594 221 650 l 657 132 b 864 -21 738 36 772 -21 b 1042 143 947 -21 1025 25 l 1092 490 b 1003 601 1103 568 1050 603 b 940 500 960 599 921 564 l 992 332 b 925 268 1004 292 965 249 l 442 500 b 389 585 394 522 383 554 b 524 646 396 626 469 635 l 958 740 b 1160 904 1085 768 1143 807 b 1039 1076 1174 988 1117 1076 b 803 972 953 1076 893 1040 l 440 697 b 286 674 371 644 322 617 b 325 797 267 704 288 751 l 347 824 b 300 1076 438 931 442 1076 z m 551 1117 l 806 1165 b 888 1288 885 1181 904 1233 b 729 1328 868 1353 785 1374 l 526 1161 b 551 1117 508 1146 522 1111 z "},"Л":{"ha":1267,"x_min":0,"x_max":0,"o":"m 21 293 l 21 289 b 285 -21 21 65 128 -21 b 517 264 461 -21 538 97 l 476 586 b 539 732 465 672 474 696 l 929 944 b 1036 793 1060 1015 1129 846 l 725 618 b 775 460 647 574 678 454 l 1036 476 b 1069 386 1092 481 1115 424 l 933 276 b 1013 -21 790 161 853 -21 b 1183 196 1122 -21 1188 42 l 1167 801 b 956 1056 1163 950 1119 1056 l 728 1056 b 454 822 569 1056 519 978 l 197 217 b 96 263 160 129 54 171 l 181 451 b 138 601 229 560 174 600 b 21 293 92 604 21 560 z "},"л":{"ha":1267,"x_min":0,"x_max":0,"o":"m 21 293 l 21 289 b 285 -21 21 65 128 -21 b 517 264 461 -21 538 97 l 476 586 b 539 732 465 672 474 696 l 929 944 b 1036 793 1060 1015 1129 846 l 725 618 b 775 460 647 574 678 454 l 1036 476 b 1069 386 1092 481 1115 424 l 933 276 b 1013 -21 790 161 853 -21 b 1183 196 1122 -21 1188 42 l 1167 801 b 956 1056 1163 950 1119 1056 l 728 1056 b 454 822 569 1056 519 978 l 197 217 b 96 263 160 129 54 171 l 181 451 b 138 601 229 560 174 600 b 21 293 92 604 21 560 z "},"М":{"ha":1578,"x_min":0,"x_max":0,"o":"m 919 657 l 956 410 b 906 264 971 308 950 264 b 831 332 879 264 851 281 l 606 878 b 344 1078 546 1022 454 1078 b 90 657 183 1078 90 969 l 90 364 b 294 -21 90 163 113 -21 b 415 264 444 -21 474 121 l 224 735 b 193 867 211 765 193 828 b 317 1004 193 946 239 1004 b 426 897 381 1004 438 968 l 414 818 b 467 494 396 703 425 578 l 628 175 b 818 -21 703 25 754 -21 b 997 203 911 -21 956 64 l 1217 928 b 1369 896 1254 1051 1401 1011 l 1213 342 b 1167 140 1197 288 1167 200 b 1319 -21 1167 69 1203 -21 b 1488 186 1397 -21 1489 28 l 1485 649 b 1238 1076 1483 985 1413 1076 b 919 657 1018 1076 882 915 z "},"м":{"ha":1578,"x_min":0,"x_max":0,"o":"m 919 657 l 956 410 b 906 264 971 308 950 264 b 831 332 879 264 851 281 l 606 878 b 344 1078 546 1022 454 1078 b 90 657 183 1078 90 969 l 90 364 b 294 -21 90 163 113 -21 b 415 264 444 -21 474 121 l 224 735 b 193 867 211 765 193 828 b 317 1004 193 946 239 1004 b 426 897 381 1004 438 968 l 414 818 b 467 494 396 703 425 578 l 628 175 b 818 -21 703 25 754 -21 b 997 203 911 -21 956 64 l 1217 928 b 1369 896 1254 1051 1401 1011 l 1213 342 b 1167 140 1197 288 1167 200 b 1319 -21 1167 69 1203 -21 b 1488 186 1397 -21 1489 28 l 1485 649 b 1238 1076 1483 985 1413 1076 b 919 657 1018 1076 882 915 z "},"Н":{"ha":1203,"x_min":0,"x_max":0,"o":"m 974 1076 b 810 939 861 1076 810 1015 b 878 801 810 896 835 851 l 938 733 b 982 642 964 704 992 688 b 886 588 974 601 943 588 l 296 588 b 215 644 249 588 215 607 b 264 715 215 671 222 692 l 422 806 b 506 949 471 833 506 886 b 357 1076 506 1024 451 1076 b 158 844 208 1076 169 944 l 85 160 b 225 -21 71 28 146 -21 b 389 122 308 -21 389 42 b 321 265 389 167 365 217 b 249 361 286 303 249 328 b 321 410 249 382 260 397 l 849 514 b 946 483 896 525 946 522 b 904 401 946 461 935 429 l 775 279 b 699 122 710 218 699 167 b 842 -21 699 51 749 -21 b 1036 169 990 -21 1025 69 l 1119 942 b 974 1076 1128 1025 1053 1076 z "},"н":{"ha":1203,"x_min":0,"x_max":0,"o":"m 974 1076 b 810 939 861 1076 810 1015 b 878 801 810 896 835 851 l 938 733 b 982 642 964 704 992 688 b 886 588 974 601 943 588 l 296 588 b 215 644 249 588 215 607 b 264 715 215 671 222 692 l 422 806 b 506 949 471 833 506 886 b 357 1076 506 1024 451 1076 b 158 844 208 1076 169 944 l 85 160 b 225 -21 71 28 146 -21 b 389 122 308 -21 389 42 b 321 265 389 167 365 217 b 249 361 286 303 249 328 b 321 410 249 382 260 397 l 849 514 b 946 483 896 525 946 522 b 904 401 946 461 935 429 l 775 279 b 699 122 710 218 699 167 b 842 -21 699 51 749 -21 b 1036 169 990 -21 1025 69 l 1119 942 b 974 1076 1128 1025 1053 1076 z "},"О":{"ha":1151,"x_min":0,"x_max":0,"o":"m 575 -21 b 1068 531 899 -21 1068 167 b 575 1076 1068 894 899 1076 b 83 531 253 1076 83 894 b 575 -21 83 167 253 -21 z m 965 543 l 599 100 b 435 143 546 38 457 71 l 247 742 b 406 900 207 872 294 944 l 932 689 b 965 543 999 663 1013 600 z "},"о":{"ha":1151,"x_min":0,"x_max":0,"o":"m 575 -21 b 1068 531 899 -21 1068 167 b 575 1076 1068 894 899 1076 b 83 531 253 1076 83 894 b 575 -21 83 167 253 -21 z m 965 543 l 599 100 b 435 143 546 38 457 71 l 247 742 b 406 900 207 872 294 944 l 932 689 b 965 543 999 663 1013 600 z "},"П":{"ha":1140,"x_min":0,"x_max":0,"o":"m 122 801 l 85 196 b 254 -21 75 28 146 -21 b 336 276 400 -21 479 158 l 200 389 b 236 472 154 426 181 476 l 542 453 b 590 608 642 446 671 564 l 297 772 b 394 956 165 846 257 1011 l 872 764 b 975 654 951 732 975 699 b 925 543 975 622 967 593 l 757 338 b 663 122 688 253 663 196 b 818 -21 663 39 719 -21 b 1019 219 950 -21 1010 69 l 1056 818 b 865 1056 1065 976 986 1056 l 360 1056 b 122 801 196 1056 132 950 z "},"п":{"ha":1140,"x_min":0,"x_max":0,"o":"m 122 801 l 85 196 b 254 -21 75 28 146 -21 b 336 276 400 -21 479 158 l 200 389 b 236 472 154 426 181 476 l 542 453 b 590 608 642 446 671 564 l 297 772 b 394 956 165 846 257 1011 l 872 764 b 975 654 951 732 975 699 b 925 543 975 622 967 593 l 757 338 b 663 122 688 253 663 196 b 818 -21 663 39 719 -21 b 1019 219 950 -21 1010 69 l 1056 818 b 865 1056 1065 976 986 1056 l 360 1056 b 122 801 196 1056 132 950 z "},"Р":{"ha":1119,"x_min":0,"x_max":0,"o":"m 639 1056 l 356 1056 b 90 785 175 1056 90 940 l 90 186 b 274 -21 90 11 178 -21 b 440 118 381 -21 440 21 b 360 304 440 186 417 239 l 189 496 b 183 639 153 536 146 597 b 326 639 226 686 292 683 l 486 429 b 781 258 579 307 661 258 b 1078 624 990 258 1078 415 b 639 1056 1078 906 943 1056 z m 294 768 b 353 826 294 797 317 811 l 610 932 b 760 885 685 963 710 956 l 971 582 b 825 461 1043 479 965 390 l 343 706 b 294 768 308 724 294 744 z "},"р":{"ha":1119,"x_min":0,"x_max":0,"o":"m 639 1056 l 356 1056 b 90 785 175 1056 90 940 l 90 186 b 274 -21 90 11 178 -21 b 440 118 381 -21 440 21 b 360 304 440 186 417 239 l 189 496 b 183 639 153 536 146 597 b 326 639 226 686 292 683 l 486 429 b 781 258 579 307 661 258 b 1078 624 990 258 1078 415 b 639 1056 1078 906 943 1056 z m 294 768 b 353 826 294 797 317 811 l 610 932 b 760 885 685 963 710 956 l 971 582 b 825 461 1043 479 965 390 l 343 706 b 294 768 308 724 294 744 z "},"С":{"ha":1167,"x_min":0,"x_max":0,"o":"m 563 -21 b 1069 279 826 -21 1069 157 b 828 328 1069 381 936 454 l 624 89 b 449 274 497 -58 254 171 l 525 314 b 503 526 642 376 601 499 l 253 596 b 251 696 194 613 197 663 l 700 968 b 788 903 764 1007 799 965 l 764 771 b 867 558 750 692 750 571 b 1050 731 1008 543 1050 633 b 626 1076 1050 911 893 1076 b 83 508 307 1076 83 839 b 563 -21 83 211 235 -21 z "},"с":{"ha":1167,"x_min":0,"x_max":0,"o":"m 563 -21 b 1069 279 826 -21 1069 157 b 828 328 1069 381 936 454 l 624 89 b 449 274 497 -58 254 171 l 525 314 b 503 526 642 376 601 499 l 253 596 b 251 696 194 613 197 663 l 700 968 b 788 903 764 1007 799 965 l 764 771 b 867 558 750 692 750 571 b 1050 731 1008 543 1050 633 b 626 1076 1050 911 893 1076 b 83 508 307 1076 83 839 b 563 -21 83 211 235 -21 z "},"Т":{"ha":1063,"x_min":0,"x_max":0,"o":"m 753 238 l 529 888 b 553 999 501 967 515 999 b 594 976 565 999 581 992 l 750 803 b 1083 901 878 661 1083 742 b 893 1056 1083 972 1038 1056 l 418 1056 b 14 724 167 1056 14 917 b 169 558 14 638 81 561 b 336 838 296 554 336 646 l 336 899 b 397 1006 336 960 350 1006 b 451 882 435 1006 450 969 l 467 203 b 631 -21 469 56 497 -21 b 753 238 779 -21 810 86 z "},"т":{"ha":1063,"x_min":0,"x_max":0,"o":"m 753 238 l 529 888 b 553 999 501 967 515 999 b 594 976 565 999 581 992 l 750 803 b 1083 901 878 661 1083 742 b 893 1056 1083 972 1038 1056 l 418 1056 b 14 724 167 1056 14 917 b 169 558 14 638 81 561 b 336 838 296 554 336 646 l 336 899 b 397 1006 336 960 350 1006 b 451 882 435 1006 450 969 l 467 203 b 631 -21 469 56 497 -21 b 753 238 779 -21 810 86 z "},"У":{"ha":1071,"x_min":0,"x_max":0,"o":"m 757 938 l 768 565 b 688 547 769 521 740 472 l 408 950 b 231 1076 347 1038 310 1076 b 50 643 28 1076 0 775 b 121 594 65 603 101 588 b 158 718 165 610 185 649 l 96 881 b 165 918 76 932 126 969 l 593 346 b 528 276 614 318 622 276 l 397 276 b 404 -21 176 276 200 -21 b 640 178 504 -21 585 86 l 981 736 b 1065 929 1019 799 1064 872 b 757 938 1069 1118 751 1131 z "},"у":{"ha":1071,"x_min":0,"x_max":0,"o":"m 757 938 l 768 565 b 688 547 769 521 740 472 l 408 950 b 231 1076 347 1038 310 1076 b 50 643 28 1076 0 775 b 121 594 65 603 101 588 b 158 718 165 610 185 649 l 96 881 b 165 918 76 932 126 969 l 593 346 b 528 276 614 318 622 276 l 397 276 b 404 -21 176 276 200 -21 b 640 178 504 -21 585 86 l 981 736 b 1065 929 1019 799 1064 872 b 757 938 1069 1118 751 1131 z "},"Ў":{"ha":1071,"x_min":0,"x_max":0,"o":"m 757 938 l 768 565 b 688 547 769 521 740 472 l 408 950 b 231 1076 347 1038 310 1076 b 50 643 28 1076 0 775 b 121 594 65 603 101 588 b 158 718 165 610 185 649 l 96 881 b 165 918 76 932 126 969 l 593 346 b 528 276 614 318 622 276 l 397 276 b 404 -21 176 276 200 -21 b 640 178 504 -21 585 86 l 981 736 b 1065 929 1019 799 1064 872 b 757 938 1069 1118 751 1131 z m 549 1121 b 819 1281 707 1117 819 1157 b 749 1349 819 1326 782 1349 b 656 1283 707 1349 676 1332 b 549 1160 626 1215 608 1160 b 442 1283 489 1160 471 1215 b 349 1349 421 1332 390 1349 b 278 1281 315 1349 278 1326 b 549 1121 278 1157 390 1117 z "},"ў":{"ha":1071,"x_min":0,"x_max":0,"o":"m 757 938 l 768 565 b 688 547 769 521 740 472 l 408 950 b 231 1076 347 1038 310 1076 b 50 643 28 1076 0 775 b 121 594 65 603 101 588 b 158 718 165 610 185 649 l 96 881 b 165 918 76 932 126 969 l 593 346 b 528 276 614 318 622 276 l 397 276 b 404 -21 176 276 200 -21 b 640 178 504 -21 585 86 l 981 736 b 1065 929 1019 799 1064 872 b 757 938 1069 1118 751 1131 z m 549 1121 b 819 1281 707 1117 819 1157 b 749 1349 819 1326 782 1349 b 656 1283 707 1349 676 1332 b 549 1160 626 1215 608 1160 b 442 1283 489 1160 471 1215 b 349 1349 421 1332 390 1349 b 278 1281 315 1349 278 1326 b 549 1121 278 1157 390 1117 z "},"Ф":{"ha":1679,"x_min":0,"x_max":0,"o":"m 81 650 l 76 414 b 308 46 72 153 182 46 b 564 151 408 46 481 90 l 758 293 b 800 236 796 321 839 271 l 758 200 b 683 76 715 163 683 126 b 829 -22 683 19 728 -22 b 969 161 958 -22 1028 58 l 879 319 b 978 376 839 390 938 446 l 1082 193 b 1315 46 1135 100 1200 46 b 1599 415 1478 46 1594 164 l 1603 658 b 1374 1015 1607 911 1501 1015 b 1129 913 1289 1015 1224 985 l 897 738 b 856 801 854 706 806 764 l 926 856 b 1004 976 976 893 1004 928 b 843 1085 1004 1032 953 1085 b 699 896 711 1085 647 1019 l 769 726 b 653 675 804 643 689 592 l 575 858 b 358 1015 532 958 463 1015 b 81 650 218 1015 85 914 z m 261 775 l 732 532 b 738 371 793 500 793 413 l 560 239 b 385 268 485 183 428 196 l 154 654 b 261 775 106 736 178 818 z m 1393 249 l 960 521 b 965 696 885 568 888 660 l 1190 801 b 1331 747 1253 831 1297 815 l 1521 365 b 1393 249 1561 283 1472 199 z "},"ф":{"ha":1679,"x_min":0,"x_max":0,"o":"m 81 650 l 76 414 b 308 46 72 153 182 46 b 564 151 408 46 481 90 l 758 293 b 800 236 796 321 839 271 l 758 200 b 683 76 715 163 683 126 b 829 -22 683 19 728 -22 b 969 161 958 -22 1028 58 l 879 319 b 978 376 839 390 938 446 l 1082 193 b 1315 46 1135 100 1200 46 b 1599 415 1478 46 1594 164 l 1603 658 b 1374 1015 1607 911 1501 1015 b 1129 913 1289 1015 1224 985 l 897 738 b 856 801 854 706 806 764 l 926 856 b 1004 976 976 893 1004 928 b 843 1085 1004 1032 953 1085 b 699 896 711 1085 647 1019 l 769 726 b 653 675 804 643 689 592 l 575 858 b 358 1015 532 958 463 1015 b 81 650 218 1015 85 914 z m 261 775 l 732 532 b 738 371 793 500 793 413 l 560 239 b 385 268 485 183 428 196 l 154 654 b 261 775 106 736 178 818 z m 1393 249 l 960 521 b 965 696 885 568 888 660 l 1190 801 b 1331 747 1253 831 1297 815 l 1521 365 b 1393 249 1561 283 1472 199 z "},"Х":{"ha":1108,"x_min":0,"x_max":0,"o":"m 768 890 l 756 571 b 700 550 754 536 714 529 l 442 946 b 257 1074 386 1031 344 1074 b 61 631 33 1074 8 758 b 135 592 76 593 114 583 b 171 707 176 611 192 643 l 113 879 b 178 904 97 931 142 956 l 389 604 b 369 443 442 529 429 496 l 146 250 b 215 -18 31 151 50 -18 b 382 139 318 -18 364 42 l 438 431 b 493 451 444 465 481 472 l 617 246 b 943 -24 750 24 832 -24 b 1094 118 1004 -24 1094 13 b 928 274 1094 206 1046 272 l 708 275 b 649 326 660 275 650 301 b 683 396 649 347 657 367 l 988 742 b 1078 953 1074 840 1078 893 b 931 1072 1078 1015 1024 1072 b 768 890 835 1072 774 1028 z "},"х":{"ha":1108,"x_min":0,"x_max":0,"o":"m 768 890 l 756 571 b 700 550 754 536 714 529 l 442 946 b 257 1074 386 1031 344 1074 b 61 631 33 1074 8 758 b 135 592 76 593 114 583 b 171 707 176 611 192 643 l 113 879 b 178 904 97 931 142 956 l 389 604 b 369 443 442 529 429 496 l 146 250 b 215 -18 31 151 50 -18 b 382 139 318 -18 364 42 l 438 431 b 493 451 444 465 481 472 l 617 246 b 943 -24 750 24 832 -24 b 1094 118 1004 -24 1094 13 b 928 274 1094 206 1046 272 l 708 275 b 649 326 660 275 650 301 b 683 396 649 347 657 367 l 988 742 b 1078 953 1074 840 1078 893 b 931 1072 1078 1015 1024 1072 b 768 890 835 1072 774 1028 z "},"Ч":{"ha":1114,"x_min":0,"x_max":0,"o":"m 304 1076 b 117 889 199 1076 128 1010 l 79 457 b 265 206 65 296 119 206 b 571 367 386 206 490 282 l 782 592 b 931 633 829 643 881 672 b 918 486 963 607 975 547 l 733 292 b 644 114 678 232 644 183 b 788 -21 644 35 701 -21 b 986 163 919 -21 979 50 l 1031 885 b 858 1076 1039 1010 983 1076 b 743 822 721 1076 665 965 l 774 767 b 738 650 800 719 796 672 l 233 456 b 157 564 158 426 99 504 l 372 788 b 304 1076 496 917 463 1076 z "},"ч":{"ha":1114,"x_min":0,"x_max":0,"o":"m 304 1076 b 117 889 199 1076 128 1010 l 79 457 b 265 206 65 296 119 206 b 571 367 386 206 490 282 l 782 592 b 931 633 829 643 881 672 b 918 486 963 607 975 547 l 733 292 b 644 114 678 232 644 183 b 788 -21 644 35 701 -21 b 986 163 919 -21 979 50 l 1031 885 b 858 1076 1039 1010 983 1076 b 743 822 721 1076 665 965 l 774 767 b 738 650 800 719 796 672 l 233 456 b 157 564 158 426 99 504 l 372 788 b 304 1076 496 917 463 1076 z "},"Ц":{"ha":1254,"x_min":0,"x_max":0,"o":"m 290 1076 b 124 889 186 1076 131 1021 l 88 218 b 236 -21 78 49 135 -21 b 408 67 315 -21 367 13 l 590 297 b 672 274 621 336 672 322 l 672 156 b 818 0 672 57 728 0 b 953 40 876 0 911 18 l 1072 104 b 1131 17 1140 140 1185 47 l 1003 -56 b 1046 -278 886 -122 925 -278 b 1213 -65 1139 -278 1213 -228 l 1213 281 b 1093 439 1213 383 1156 439 b 958 329 1033 439 988 404 l 882 136 b 778 169 849 51 750 97 l 1022 793 b 893 1076 1086 957 1033 1076 b 732 847 781 1076 701 996 l 793 546 b 735 421 807 478 790 439 l 261 271 b 167 324 206 253 167 278 b 206 428 167 354 175 371 l 367 722 b 440 932 414 810 440 872 b 290 1076 440 1017 385 1076 z "},"Ш":{"ha":1563,"x_min":0,"x_max":0,"o":"m 122 889 l 86 219 b 279 -21 78 64 154 -21 b 522 217 410 -21 501 36 l 556 500 b 685 500 567 597 679 599 l 707 142 b 840 -21 714 32 760 -21 b 996 96 915 -21 961 26 l 1092 286 b 1189 276 1121 343 1176 342 l 1217 132 b 1382 -21 1239 19 1294 -21 b 1528 124 1474 -21 1528 36 b 1378 303 1528 219 1472 263 l 1275 347 b 1257 422 1244 361 1236 388 l 1481 794 b 1365 1076 1572 947 1496 1076 b 1192 874 1261 1076 1192 1006 l 1193 521 b 1117 399 1193 460 1175 424 l 853 283 b 764 335 806 263 764 296 b 790 436 764 365 765 379 l 964 840 b 871 1076 1018 967 974 1076 b 717 958 808 1076 767 1049 l 365 321 b 188 411 293 190 106 263 l 358 722 b 432 932 406 808 432 872 b 289 1076 432 1017 376 1076 b 122 889 185 1076 129 1021 z "},"Щ":{"ha":1703,"x_min":0,"x_max":0,"o":"m 122 889 l 86 219 b 279 -21 78 64 154 -21 b 525 217 410 -21 504 36 l 557 500 b 685 500 568 597 681 599 l 701 142 b 831 -21 707 32 756 -21 b 964 89 897 -21 936 14 l 1028 258 b 1121 242 1050 318 1121 303 l 1121 161 b 1265 0 1121 47 1178 0 b 1411 43 1324 0 1369 19 l 1521 104 b 1579 17 1589 142 1633 47 l 1451 -56 b 1494 -278 1335 -122 1374 -278 b 1661 -65 1601 -278 1661 -228 l 1661 294 b 1546 446 1661 393 1606 446 b 1411 340 1488 446 1442 417 l 1329 135 b 1222 174 1296 53 1190 94 l 1471 793 b 1342 1076 1536 956 1482 1076 b 1182 857 1231 1076 1157 1007 l 1235 546 b 1176 421 1246 478 1229 443 l 853 283 b 764 335 806 264 764 296 b 790 436 764 365 765 379 l 964 840 b 871 1076 1018 967 974 1076 b 717 958 808 1076 767 1049 l 365 321 b 188 411 294 193 106 263 l 358 722 b 432 932 406 808 432 872 b 289 1076 432 1017 376 1076 b 122 889 185 1076 129 1021 z "},"Џ":{"ha":1146,"x_min":0,"x_max":0,"o":"m 126 838 l 90 232 b 342 69 81 65 174 10 l 471 115 b 511 19 543 142 574 42 l 389 -25 b 272 -165 313 -53 272 -100 b 415 -278 272 -231 319 -278 b 606 -86 536 -278 606 -206 l 606 -44 b 686 7 606 4 644 26 l 710 -4 b 1022 207 846 -68 1010 -1 l 1061 861 b 892 1078 1071 1029 1000 1078 b 810 781 746 1078 678 911 l 946 646 b 910 563 988 604 965 558 l 604 582 b 556 426 504 589 475 468 l 856 272 b 753 92 979 208 886 24 l 274 336 b 168 450 194 376 168 404 b 221 557 168 483 178 508 l 376 731 b 483 935 451 815 483 861 b 328 1078 483 1018 426 1078 b 126 838 196 1078 135 988 z "},"џ":{"ha":1146,"x_min":0,"x_max":0,"o":"m 126 838 l 90 232 b 342 69 81 65 174 10 l 471 115 b 511 19 543 142 574 42 l 389 -25 b 272 -165 313 -53 272 -100 b 415 -278 272 -231 319 -278 b 606 -86 536 -278 606 -206 l 606 -44 b 686 7 606 4 644 26 l 710 -4 b 1022 207 846 -68 1010 -1 l 1061 861 b 892 1078 1071 1029 1000 1078 b 810 781 746 1078 678 911 l 946 646 b 910 563 988 604 965 558 l 604 582 b 556 426 504 589 475 468 l 856 272 b 753 92 979 208 886 24 l 274 336 b 168 450 194 376 168 404 b 221 557 168 483 178 508 l 376 731 b 483 935 451 815 483 861 b 328 1078 483 1018 426 1078 b 126 838 196 1078 135 988 z "},"Ь":{"ha":1119,"x_min":0,"x_max":0,"o":"m 382 0 l 621 0 b 1078 463 907 0 1076 204 b 808 824 1079 674 950 824 b 499 626 692 824 600 746 l 335 432 b 186 419 297 388 229 372 b 200 560 149 461 165 519 l 365 756 b 454 935 422 824 454 874 b 314 1076 454 1014 403 1076 b 119 835 200 1076 129 1017 l 90 286 b 382 0 82 122 186 0 z m 294 288 b 343 350 294 311 308 332 l 863 626 b 978 500 967 682 1044 590 l 732 171 b 571 124 679 100 646 89 l 353 225 b 294 288 317 242 294 258 z "},"ь":{"ha":1119,"x_min":0,"x_max":0,"o":"m 382 0 l 621 0 b 1078 463 907 0 1076 204 b 808 824 1079 674 950 824 b 499 626 692 824 600 746 l 335 432 b 186 419 297 388 229 372 b 200 560 149 461 165 519 l 365 756 b 454 935 422 824 454 874 b 314 1076 454 1014 403 1076 b 119 835 200 1076 129 1017 l 90 286 b 382 0 82 122 186 0 z m 294 288 b 343 350 294 311 308 332 l 863 626 b 978 500 967 682 1044 590 l 732 171 b 571 124 679 100 646 89 l 353 225 b 294 288 317 242 294 258 z "},"Ы":{"ha":1569,"x_min":0,"x_max":0,"o":"m 110 799 l 75 522 b 615 -21 35 197 242 -21 b 1068 328 878 -21 1068 119 b 850 554 1068 415 1035 529 l 738 569 b 683 618 700 575 683 593 b 744 668 683 643 703 661 l 1369 774 b 1413 697 1421 782 1439 746 l 1169 251 b 1279 -21 1088 101 1149 -21 b 1449 179 1415 -21 1443 78 l 1485 882 b 1178 1028 1496 1089 1319 1119 l 304 457 b 260 369 263 431 249 406 b 351 336 268 343 300 325 l 796 435 b 981 339 913 461 981 424 b 825 231 981 283 926 232 l 332 226 b 165 324 246 225 189 264 b 188 486 146 372 146 432 l 400 764 b 321 1056 519 919 453 1056 b 110 799 208 1056 135 996 z "},"ы":{"ha":1569,"x_min":0,"x_max":0,"o":"m 110 799 l 75 522 b 615 -21 35 197 242 -21 b 1068 328 878 -21 1068 119 b 850 554 1068 415 1035 529 l 738 569 b 683 618 700 575 683 593 b 744 668 683 643 703 661 l 1369 774 b 1413 697 1421 782 1439 746 l 1169 251 b 1279 -21 1088 101 1149 -21 b 1449 179 1415 -21 1443 78 l 1485 882 b 1178 1028 1496 1089 1319 1119 l 304 457 b 260 369 263 431 249 406 b 351 336 268 343 300 325 l 796 435 b 981 339 913 461 981 424 b 825 231 981 283 926 232 l 332 226 b 165 324 246 225 189 264 b 188 486 146 372 146 432 l 400 764 b 321 1056 519 919 453 1056 b 110 799 208 1056 135 996 z "},"Ъ":{"ha":1301,"x_min":0,"x_max":0,"o":"m 982 642 l 851 642 b 811 711 799 642 779 676 l 885 793 b 949 932 935 849 949 897 b 799 1056 949 1001 893 1056 l 285 1056 b 42 865 99 1056 42 988 b 354 788 42 694 225 646 l 500 949 b 626 867 576 1033 696 944 l 350 556 b 210 281 260 454 210 367 b 725 -21 210 81 406 -21 b 1246 361 967 -21 1246 82 b 982 642 1246 507 1175 642 z m 1085 213 l 360 207 b 306 250 324 207 306 226 b 328 294 306 264 314 283 l 665 551 b 849 547 726 599 769 614 l 1132 306 b 1167 263 1154 288 1167 278 b 1085 213 1167 238 1149 213 z "},"ъ":{"ha":1301,"x_min":0,"x_max":0,"o":"m 982 642 l 851 642 b 811 711 799 642 779 676 l 885 793 b 949 932 935 849 949 897 b 799 1056 949 1001 893 1056 l 285 1056 b 42 865 99 1056 42 988 b 354 788 42 694 225 646 l 500 949 b 626 867 576 1033 696 944 l 350 556 b 210 281 260 454 210 367 b 725 -21 210 81 406 -21 b 1246 361 967 -21 1246 82 b 982 642 1246 507 1175 642 z m 1085 213 l 360 207 b 306 250 324 207 306 226 b 328 294 306 264 314 283 l 665 551 b 849 547 726 599 769 614 l 1132 306 b 1167 263 1154 288 1167 278 b 1085 213 1167 238 1149 213 z "},"Љ":{"ha":1868,"x_min":0,"x_max":0,"o":"m 21 293 l 21 289 b 307 -21 21 65 128 -21 b 482 317 501 -21 571 133 l 432 419 b 451 574 399 489 394 517 l 824 953 b 913 910 872 1001 913 976 l 913 293 b 1332 -21 913 83 992 -21 b 1826 382 1653 -21 1826 138 b 1543 765 1826 615 1703 765 b 1304 693 1475 765 1418 740 l 1072 597 b 1019 699 997 567 951 651 l 1132 776 b 1226 931 1190 817 1226 874 b 1060 1056 1226 996 1171 1056 l 728 1056 b 454 822 569 1056 519 978 l 197 217 b 96 263 160 129 53 168 l 181 451 b 140 601 229 558 174 600 b 21 293 92 603 21 560 z m 1021 235 l 1293 583 b 1443 608 1342 646 1372 657 l 1721 414 b 1699 271 1792 365 1783 290 l 1094 131 b 1021 235 1013 111 974 175 z "},"љ":{"ha":1868,"x_min":0,"x_max":0,"o":"m 21 293 l 21 289 b 307 -21 21 65 128 -21 b 482 317 501 -21 571 133 l 432 419 b 451 574 399 489 394 517 l 824 953 b 913 910 872 1001 913 976 l 913 293 b 1332 -21 913 83 992 -21 b 1826 382 1653 -21 1826 138 b 1543 765 1826 615 1703 765 b 1304 693 1475 765 1418 740 l 1072 597 b 1019 699 997 567 951 651 l 1132 776 b 1226 931 1190 817 1226 874 b 1060 1056 1226 996 1171 1056 l 728 1056 b 454 822 569 1056 519 978 l 197 217 b 96 263 160 129 53 168 l 181 451 b 140 601 229 558 174 600 b 21 293 92 603 21 560 z m 1021 235 l 1293 583 b 1443 608 1342 646 1372 657 l 1721 414 b 1699 271 1792 365 1783 290 l 1094 131 b 1021 235 1013 111 974 175 z "},"Њ":{"ha":1710,"x_min":0,"x_max":0,"o":"m 158 844 l 85 160 b 238 -21 71 28 146 -21 b 406 122 344 -21 406 42 b 326 265 406 167 381 217 b 249 361 289 300 249 328 b 321 410 249 382 260 393 l 682 507 b 767 428 742 524 774 493 l 756 328 b 1192 -21 728 83 833 -21 b 1668 382 1494 -21 1668 138 b 1382 765 1668 615 1543 765 b 1146 693 1315 765 1260 742 l 944 608 b 882 707 872 578 821 660 l 1011 806 b 939 1076 1169 926 1099 1076 b 774 849 804 1076 756 1011 l 789 706 b 683 588 797 629 769 588 l 296 588 b 215 644 249 588 215 607 b 264 715 215 671 222 692 l 422 806 b 519 949 481 839 519 886 b 361 1076 519 1024 461 1076 b 158 844 208 1076 169 944 z m 863 235 l 1135 583 b 1285 608 1183 646 1214 657 l 1563 414 b 1540 271 1633 365 1625 290 l 936 131 b 863 235 854 111 815 175 z "},"њ":{"ha":1710,"x_min":0,"x_max":0,"o":"m 158 844 l 85 160 b 238 -21 71 28 146 -21 b 406 122 344 -21 406 42 b 326 265 406 167 381 217 b 249 361 289 300 249 328 b 321 410 249 382 260 393 l 682 507 b 767 428 742 524 774 493 l 756 328 b 1192 -21 728 83 833 -21 b 1668 382 1494 -21 1668 138 b 1382 765 1668 615 1543 765 b 1146 693 1315 765 1260 742 l 944 608 b 882 707 872 578 821 660 l 1011 806 b 939 1076 1169 926 1099 1076 b 774 849 804 1076 756 1011 l 789 706 b 683 588 797 629 769 588 l 296 588 b 215 644 249 588 215 607 b 264 715 215 671 222 692 l 422 806 b 519 949 481 839 519 886 b 361 1076 519 1024 461 1076 b 158 844 208 1076 169 944 z m 863 235 l 1135 583 b 1285 608 1183 646 1214 657 l 1563 414 b 1540 271 1633 365 1625 290 l 936 131 b 863 235 854 111 815 175 z "},"Ѕ":{"ha":1158,"x_min":0,"x_max":0,"o":"m 506 -19 b 1075 368 824 -19 1075 175 b 957 504 1075 435 1036 490 l 250 632 b 183 683 206 640 188 653 b 253 751 179 713 193 739 l 851 881 b 949 876 897 890 926 892 b 950 817 963 867 967 842 l 889 725 b 950 560 814 613 896 560 b 1069 726 1032 560 1069 628 b 592 1079 1069 976 832 1079 b 100 706 347 1079 100 947 b 194 579 100 649 138 593 l 282 558 b 361 488 338 546 360 539 l 363 435 b 588 307 365 335 456 246 l 882 443 b 986 407 929 465 972 458 b 892 306 1000 356 950 333 l 406 71 b 281 132 322 31 281 65 l 281 368 b 172 483 281 426 239 483 b 58 318 89 483 58 394 b 506 -19 58 157 172 -19 z "},"ѕ":{"ha":1158,"x_min":0,"x_max":0,"o":"m 506 -19 b 1075 368 824 -19 1075 175 b 957 504 1075 435 1036 490 l 250 632 b 183 683 206 640 188 653 b 253 751 179 713 193 739 l 851 881 b 949 876 897 890 926 892 b 950 817 963 867 967 842 l 889 725 b 950 560 814 613 896 560 b 1069 726 1032 560 1069 628 b 592 1079 1069 976 832 1079 b 100 706 347 1079 100 947 b 194 579 100 649 138 593 l 282 558 b 361 488 338 546 360 539 l 363 435 b 588 307 365 335 456 246 l 882 443 b 986 407 929 465 972 458 b 892 306 1000 356 950 333 l 406 71 b 281 132 322 31 281 65 l 281 368 b 172 483 281 426 239 483 b 58 318 89 483 58 394 b 506 -19 58 157 172 -19 z "},"Є":{"ha":1153,"x_min":0,"x_max":0,"o":"m 608 -21 b 1069 272 893 -21 1069 99 b 819 260 1069 432 819 449 l 819 144 b 700 88 819 63 763 46 l 219 404 b 301 517 140 457 219 569 l 500 388 b 753 465 642 294 753 347 b 593 603 753 560 706 603 l 260 603 b 236 696 193 603 176 661 l 700 968 b 788 903 764 1006 799 965 l 765 782 b 896 603 744 672 801 603 b 1050 756 994 603 1050 653 b 646 1076 1050 907 893 1076 b 83 489 314 1076 83 839 b 608 -21 83 197 296 -21 z "},"є":{"ha":1153,"x_min":0,"x_max":0,"o":"m 608 -21 b 1069 272 893 -21 1069 99 b 819 260 1069 432 819 449 l 819 144 b 700 88 819 63 763 46 l 219 404 b 301 517 140 457 219 569 l 500 388 b 753 465 642 294 753 347 b 593 603 753 560 706 603 l 260 603 b 236 696 193 603 176 661 l 700 968 b 788 903 764 1006 799 965 l 765 782 b 896 603 744 672 801 603 b 1050 756 994 603 1050 653 b 646 1076 1050 907 893 1076 b 83 489 314 1076 83 839 b 608 -21 83 197 296 -21 z "},"Э":{"ha":1153,"x_min":0,"x_max":0,"o":"m 497 -21 b 1069 565 856 -21 1069 200 b 560 1076 1069 851 849 1076 b 103 756 260 1076 103 907 b 257 603 103 653 158 603 b 388 782 351 603 408 672 l 365 903 b 453 968 354 965 389 1006 l 917 696 b 893 603 976 661 960 603 l 560 603 b 400 465 447 603 400 560 b 653 388 400 347 511 294 l 851 517 b 933 404 933 569 1013 457 l 453 88 b 333 144 390 46 333 63 l 333 260 b 83 272 333 449 83 432 b 497 -21 83 99 260 -21 z "},"э":{"ha":1153,"x_min":0,"x_max":0,"o":"m 497 -21 b 1069 565 856 -21 1069 200 b 560 1076 1069 851 849 1076 b 103 756 260 1076 103 907 b 257 603 103 653 158 603 b 388 782 351 603 408 672 l 365 903 b 453 968 354 965 389 1006 l 917 696 b 893 603 976 661 960 603 l 560 603 b 400 465 447 603 400 560 b 653 388 400 347 511 294 l 851 517 b 933 404 933 569 1013 457 l 453 88 b 333 144 390 46 333 63 l 333 260 b 83 272 333 449 83 432 b 497 -21 83 99 260 -21 z "},"І":{"ha":596,"x_min":0,"x_max":0,"o":"m 56 747 b 101 703 56 722 67 703 l 161 703 b 231 660 206 703 231 692 b 226 635 231 653 229 644 l 114 224 b 308 -21 76 85 150 -21 b 517 119 415 -21 526 26 b 382 183 508 200 440 208 l 215 111 b 165 151 189 100 165 124 b 194 201 165 165 172 176 l 460 504 b 364 711 551 610 504 728 l 269 700 b 233 722 257 699 233 699 b 260 754 233 736 242 749 l 413 807 b 526 944 479 831 526 867 b 388 1076 526 1028 458 1076 b 278 1028 347 1076 307 1061 l 121 847 b 56 747 86 807 56 769 z "},"і":{"ha":596,"x_min":0,"x_max":0,"o":"m 56 747 b 101 703 56 722 67 703 l 161 703 b 231 660 206 703 231 692 b 226 635 231 653 229 644 l 114 224 b 308 -21 76 85 150 -21 b 517 119 415 -21 526 26 b 382 183 508 200 440 208 l 215 111 b 165 151 189 100 165 124 b 194 201 165 165 172 176 l 460 504 b 364 711 551 610 504 728 l 269 700 b 233 722 257 699 233 699 b 260 754 233 736 242 749 l 413 807 b 526 944 479 831 526 867 b 388 1076 526 1028 458 1076 b 278 1028 347 1076 307 1061 l 121 847 b 56 747 86 807 56 769 z "},"Ї":{"ha":596,"x_min":0,"x_max":0,"o":"m 56 747 b 101 703 56 722 67 703 l 161 703 b 231 660 206 703 231 692 b 226 635 231 653 229 644 l 114 224 b 308 -21 76 85 150 -21 b 517 119 415 -21 526 26 b 382 183 508 200 440 208 l 215 111 b 165 151 189 100 165 124 b 194 201 165 165 172 176 l 460 504 b 364 711 551 610 504 728 l 269 700 b 233 722 257 699 233 699 b 260 754 233 736 242 749 l 413 807 b 526 944 479 831 526 867 b 388 1076 526 1028 458 1076 b 278 1028 347 1076 307 1061 l 121 847 b 56 747 86 807 56 769 z m 633 1224 b 589 1332 653 1279 628 1314 b 403 1297 524 1361 429 1375 b 460 1183 389 1254 390 1214 b 633 1224 524 1154 604 1142 z m 332 1288 b 236 1354 318 1346 278 1361 b 100 1224 165 1343 79 1304 b 208 1160 111 1181 135 1147 b 332 1288 279 1171 353 1204 z "},"ї":{"ha":596,"x_min":0,"x_max":0,"o":"m 56 747 b 101 703 56 722 67 703 l 161 703 b 231 660 206 703 231 692 b 226 635 231 653 229 644 l 114 224 b 308 -21 76 85 150 -21 b 517 119 415 -21 526 26 b 382 183 508 200 440 208 l 215 111 b 165 151 189 100 165 124 b 194 201 165 165 172 176 l 460 504 b 364 711 551 610 504 728 l 269 700 b 233 722 257 699 233 699 b 260 754 233 736 242 749 l 413 807 b 526 944 479 831 526 867 b 388 1076 526 1028 458 1076 b 278 1028 347 1076 307 1061 l 121 847 b 56 747 86 807 56 769 z m 633 1224 b 589 1332 653 1279 628 1314 b 403 1297 524 1361 429 1375 b 460 1183 389 1254 390 1214 b 633 1224 524 1154 604 1142 z m 332 1288 b 236 1354 318 1346 278 1361 b 100 1224 165 1343 79 1304 b 208 1160 111 1181 135 1147 b 332 1288 279 1171 353 1204 z "},"Ј":{"ha":731,"x_min":0,"x_max":0,"o":"m 547 247 l 176 174 b 136 275 122 163 83 218 l 321 468 b 250 618 383 533 338 618 b 42 271 153 618 42 454 b 394 -21 42 126 182 -21 b 647 346 608 -21 647 100 l 647 871 b 479 1078 647 1029 557 1078 b 326 917 363 1078 326 988 b 390 715 326 857 358 769 l 579 392 b 547 247 624 315 604 258 z "},"ј":{"ha":731,"x_min":0,"x_max":0,"o":"m 547 247 l 176 174 b 136 275 122 163 83 218 l 321 468 b 250 618 383 533 338 618 b 42 271 153 618 42 454 b 394 -21 42 126 182 -21 b 647 346 608 -21 647 100 l 647 871 b 479 1078 647 1029 557 1078 b 326 917 363 1078 326 988 b 390 715 326 857 358 769 l 579 392 b 547 247 624 315 604 258 z "},"Ћ":{"ha":1390,"x_min":0,"x_max":0,"o":"m 21 735 b 163 569 21 640 79 569 b 322 838 265 569 322 650 l 322 899 b 383 1006 322 960 336 1006 b 438 882 421 1006 440 969 l 411 203 b 592 -21 404 42 479 -21 b 672 235 750 -21 785 132 l 619 283 b 636 383 579 321 590 371 l 1113 518 b 1188 392 1196 542 1250 457 l 1071 272 b 988 107 1015 217 988 165 b 1129 -21 988 36 1040 -21 b 1311 172 1249 -21 1310 50 l 1314 336 b 1186 578 1315 454 1275 526 l 1071 644 b 717 589 932 725 826 718 l 582 431 b 489 490 533 374 457 417 l 690 958 b 801 969 711 1008 764 1014 l 890 864 b 1067 761 946 797 997 761 b 1210 901 1150 761 1210 819 b 1021 1056 1210 1008 1121 1056 l 404 1056 b 21 735 174 1056 21 917 z "},"ћ":{"ha":1390,"x_min":0,"x_max":0,"o":"m 21 735 b 163 569 21 640 79 569 b 322 838 265 569 322 650 l 322 899 b 383 1006 322 960 336 1006 b 438 882 421 1006 440 969 l 411 203 b 592 -21 404 42 479 -21 b 672 235 750 -21 785 132 l 619 283 b 636 383 579 321 590 371 l 1113 518 b 1188 392 1196 542 1250 457 l 1071 272 b 988 107 1015 217 988 165 b 1129 -21 988 36 1040 -21 b 1311 172 1249 -21 1310 50 l 1314 336 b 1186 578 1315 454 1275 526 l 1071 644 b 717 589 932 725 826 718 l 582 431 b 489 490 533 374 457 417 l 690 958 b 801 969 711 1008 764 1014 l 890 864 b 1067 761 946 797 997 761 b 1210 901 1150 761 1210 819 b 1021 1056 1210 1008 1121 1056 l 404 1056 b 21 735 174 1056 21 917 z "},"Ю":{"ha":1538,"x_min":0,"x_max":0,"o":"m 143 844 l 85 160 b 235 -21 74 28 146 -21 b 396 122 339 -21 396 42 b 321 265 396 167 368 217 b 240 361 285 301 240 328 b 313 426 240 382 254 396 l 401 474 b 500 432 453 501 488 481 l 526 335 b 976 -21 601 60 743 -21 b 1454 574 1264 -21 1454 208 b 946 1076 1454 894 1285 1076 b 533 658 672 1076 533 893 b 472 588 533 614 513 588 l 278 588 b 197 644 231 588 197 607 b 246 715 197 671 204 692 l 369 785 b 479 950 439 824 479 888 b 342 1076 479 1025 422 1076 b 143 844 193 1076 151 944 z m 932 106 l 604 407 b 626 613 522 482 553 568 l 1118 914 b 1288 774 1231 982 1322 890 l 1103 143 b 932 106 1079 64 999 43 z "},"ю":{"ha":1538,"x_min":0,"x_max":0,"o":"m 143 844 l 85 160 b 235 -21 74 28 146 -21 b 396 122 339 -21 396 42 b 321 265 396 167 368 217 b 240 361 285 301 240 328 b 313 426 240 382 254 396 l 401 474 b 500 432 453 501 488 481 l 526 335 b 976 -21 601 60 743 -21 b 1454 574 1264 -21 1454 208 b 946 1076 1454 894 1285 1076 b 533 658 672 1076 533 893 b 472 588 533 614 513 588 l 278 588 b 197 644 231 588 197 607 b 246 715 197 671 204 692 l 369 785 b 479 950 439 824 479 888 b 342 1076 479 1025 422 1076 b 143 844 193 1076 151 944 z m 932 106 l 604 407 b 626 613 522 482 553 568 l 1118 914 b 1288 774 1231 982 1322 890 l 1103 143 b 932 106 1079 64 999 43 z "},"Я":{"ha":1199,"x_min":0,"x_max":0,"o":"m 510 301 l 225 299 b 63 154 132 297 63 240 b 251 -21 63 67 110 -21 b 468 99 318 -21 388 7 l 840 519 b 888 610 878 563 888 586 b 794 651 888 643 857 661 l 367 582 b 168 706 221 558 168 631 b 324 826 168 774 224 826 l 808 826 b 1022 664 961 826 1022 760 b 982 533 1022 622 1013 582 l 796 243 b 894 -21 703 99 764 -21 b 1115 497 1022 -21 1115 65 b 658 1076 1115 907 963 1076 b 78 706 303 1076 78 868 b 307 475 78 607 129 532 l 525 406 b 585 347 560 394 585 376 b 510 301 585 319 567 301 z "},"я":{"ha":1199,"x_min":0,"x_max":0,"o":"m 510 301 l 225 299 b 63 154 132 297 63 240 b 251 -21 63 67 110 -21 b 468 99 318 -21 388 7 l 840 519 b 888 610 878 563 888 586 b 794 651 888 643 857 661 l 367 582 b 168 706 221 558 168 631 b 324 826 168 774 224 826 l 808 826 b 1022 664 961 826 1022 760 b 982 533 1022 622 1013 582 l 796 243 b 894 -21 703 99 764 -21 b 1115 497 1022 -21 1115 65 b 658 1076 1115 907 963 1076 b 78 706 303 1076 78 868 b 307 475 78 607 129 532 l 525 406 b 585 347 560 394 585 376 b 510 301 585 319 567 301 z "},"Ђ":{"ha":1376,"x_min":0,"x_max":0,"o":"m 21 735 b 163 569 21 640 79 569 b 322 838 265 569 322 650 l 322 899 b 383 1006 322 960 336 1006 b 438 882 421 1006 440 969 l 411 203 b 589 -21 404 42 479 -21 b 668 235 740 -21 778 128 l 618 283 b 636 383 579 322 590 371 l 1075 497 b 1150 257 1257 544 1306 301 l 985 210 b 813 38 868 176 813 119 b 1131 -8 813 -110 1013 -158 l 1190 68 b 1314 346 1267 165 1314 240 b 1186 578 1314 454 1275 526 l 1071 644 b 717 589 932 725 826 718 l 582 431 b 489 490 533 374 457 417 l 690 958 b 801 969 711 1008 764 1014 l 890 864 b 1067 761 946 797 997 761 b 1210 901 1150 761 1210 819 b 1021 1056 1210 1008 1121 1056 l 404 1056 b 21 735 174 1056 21 917 z "},"ђ":{"ha":1376,"x_min":0,"x_max":0,"o":"m 21 735 b 163 569 21 640 79 569 b 322 838 265 569 322 650 l 322 899 b 383 1006 322 960 336 1006 b 438 882 421 1006 440 969 l 411 203 b 589 -21 404 42 479 -21 b 668 235 740 -21 778 128 l 618 283 b 636 383 579 322 590 371 l 1075 497 b 1150 257 1257 544 1306 301 l 985 210 b 813 38 868 176 813 119 b 1131 -8 813 -110 1013 -158 l 1190 68 b 1314 346 1267 165 1314 240 b 1186 578 1314 454 1275 526 l 1071 644 b 717 589 932 725 826 718 l 582 431 b 489 490 533 374 457 417 l 690 958 b 801 969 711 1008 764 1014 l 890 864 b 1067 761 946 797 997 761 b 1210 901 1150 761 1210 819 b 1021 1056 1210 1008 1121 1056 l 404 1056 b 21 735 174 1056 21 917 z "},"ц":{"ha":1332,"x_min":0,"x_max":0,"o":"m 47 601 b 117 519 47 551 81 519 b 196 650 189 519 222 568 b 139 840 183 689 139 792 b 201 904 139 886 172 904 b 276 840 228 904 253 885 l 453 513 b 482 421 475 471 482 451 b 453 358 482 399 474 376 l 328 250 b 244 101 274 203 244 157 b 368 -21 244 26 293 -21 b 551 72 446 -21 496 10 l 675 211 b 754 185 707 247 754 232 l 754 154 b 896 0 754 44 815 0 b 1031 40 954 0 989 18 l 1150 104 b 1208 17 1218 140 1263 47 l 1081 -56 b 1124 -278 964 -122 1003 -278 b 1290 -65 1217 -278 1290 -228 l 1290 281 b 1182 440 1290 383 1240 440 b 1049 329 1129 440 1085 406 l 957 136 b 857 181 917 51 819 101 l 1119 728 b 1171 911 1147 786 1171 853 b 1029 1076 1171 1014 1118 1076 b 844 803 899 1076 851 997 l 829 378 b 753 276 826 306 803 276 l 619 276 b 539 378 561 276 539 314 l 539 797 b 346 1076 539 1022 481 1076 b 47 601 104 1076 47 906 z "},"ш":{"ha":1829,"x_min":0,"x_max":0,"o":"m 47 601 b 117 519 47 551 81 519 b 196 650 189 519 222 568 b 139 826 183 689 138 778 b 268 864 142 900 228 928 l 463 554 b 471 382 513 474 515 435 l 340 229 b 354 -21 203 68 260 -21 b 843 288 531 -21 749 188 l 953 403 b 1057 428 997 450 1026 457 b 1032 310 1089 397 1074 354 l 935 207 b 971 -21 814 79 861 -21 b 1439 344 1171 -21 1351 228 b 1532 306 1485 406 1546 374 l 1510 201 b 1639 -21 1485 83 1500 -21 b 1801 114 1753 -21 1801 38 b 1707 272 1801 186 1758 231 l 1632 332 b 1604 422 1604 354 1592 381 l 1724 803 b 1588 1076 1786 1001 1686 1076 b 1419 836 1481 1076 1436 997 l 1375 406 b 1290 304 1368 342 1342 304 l 1236 304 b 1144 406 1181 304 1147 333 l 1125 842 b 985 1076 1118 1010 1076 1076 b 844 881 901 1076 854 1011 l 810 394 b 724 303 804 325 765 303 l 643 303 b 568 404 599 303 574 332 l 536 797 b 346 1076 518 1022 481 1076 b 47 601 104 1076 47 906 z "},"щ":{"ha":1907,"x_min":0,"x_max":0,"o":"m 47 601 b 117 519 47 551 81 519 b 196 650 189 519 222 568 b 139 826 183 689 138 778 b 268 864 142 900 228 928 l 463 554 b 471 382 513 474 515 435 l 340 229 b 354 -21 203 68 260 -21 b 838 288 531 -21 742 186 l 946 403 b 1049 429 986 444 1018 458 b 1015 317 1081 399 1056 363 l 926 215 b 967 -21 813 85 856 -21 b 1189 125 1063 -21 1122 33 l 1256 215 b 1329 203 1282 251 1329 238 l 1329 154 b 1471 0 1329 44 1390 0 b 1606 40 1529 0 1564 18 l 1725 104 b 1783 17 1793 140 1838 47 l 1656 -56 b 1699 -278 1539 -122 1578 -278 b 1865 -65 1792 -278 1865 -228 l 1865 281 b 1756 440 1865 383 1815 440 b 1624 329 1704 440 1660 406 l 1532 136 b 1432 181 1492 51 1394 101 l 1694 728 b 1746 911 1722 786 1746 853 b 1604 1076 1746 1014 1693 1076 b 1419 803 1474 1076 1426 997 l 1404 406 b 1328 304 1401 333 1378 304 l 1236 304 b 1146 406 1181 304 1150 333 l 1124 842 b 985 1076 1115 1011 1076 1076 b 842 867 901 1076 851 1011 l 810 394 b 724 303 806 325 765 303 l 643 303 b 568 404 600 303 575 326 l 536 797 b 346 1076 518 1022 481 1076 b 47 601 104 1076 47 906 z "},".":{"ha":392,"x_min":0,"x_max":0,"o":"m 350 85 b 167 222 360 196 258 222 b 42 118 71 222 47 176 b 242 -19 32 13 150 -19 b 350 85 296 -19 344 8 z "},",":{"ha":400,"x_min":0,"x_max":0,"o":"m 78 128 l 28 -137 b 76 -172 21 -174 54 -189 l 313 3 b 351 58 329 15 344 32 b 269 201 365 108 351 172 b 78 128 192 229 96 225 z "},":":{"ha":419,"x_min":0,"x_max":0,"o":"m 378 740 b 194 878 388 851 286 878 b 69 774 99 878 75 832 b 269 636 60 668 178 636 b 378 740 324 636 372 664 z m 115 168 b 326 256 206 103 281 176 b 301 417 375 338 349 382 b 81 315 215 479 128 393 b 115 168 53 268 51 213 z "},";":{"ha":400,"x_min":0,"x_max":0,"o":"m 78 128 l 28 -137 b 76 -172 21 -174 54 -189 l 313 3 b 351 58 329 15 344 32 b 269 201 365 108 351 172 b 78 128 192 229 96 225 z m 97 543 b 310 629 188 476 263 550 b 285 789 360 711 332 754 b 64 689 200 853 111 768 b 97 543 36 643 35 586 z "},"…":{"ha":833,"x_min":0,"x_max":0,"o":"m 350 85 b 167 222 360 196 258 222 b 42 118 71 222 47 176 b 242 -19 32 13 150 -19 b 350 85 296 -19 344 8 z "},"!":{"ha":501,"x_min":0,"x_max":0,"o":"m 242 393 l 443 803 b 343 1076 497 913 489 1076 b 153 822 179 1076 149 956 l 168 401 b 199 357 169 371 182 358 b 242 393 213 356 228 364 z m 331 147 b 107 199 294 253 192 235 b 35 53 19 160 17 108 b 274 7 68 -47 189 -29 b 331 147 324 29 356 75 z "},"¡":{"ha":501,"x_min":0,"x_max":0,"o":"m 260 663 l 58 253 b 158 -21 4 143 13 -21 b 349 233 322 -21 353 100 l 333 654 b 303 699 332 685 319 697 b 260 663 289 700 274 692 z m 171 908 b 394 857 207 803 310 821 b 467 1003 482 896 485 947 b 228 1049 433 1103 313 1085 b 171 908 178 1026 146 981 z "},"?":{"ha":936,"x_min":0,"x_max":0,"o":"m 679 835 l 299 378 b 285 342 289 367 285 353 b 321 303 285 321 299 303 b 344 310 328 303 336 304 l 665 500 b 908 800 814 588 908 656 b 496 1079 908 1003 708 1079 b 42 832 240 1079 28 1007 b 151 719 49 742 96 719 b 286 764 189 719 240 735 l 585 953 b 668 983 614 971 643 983 b 731 932 704 983 731 965 b 679 835 731 907 717 874 z m 574 75 b 390 213 583 186 482 213 b 265 108 294 213 271 167 b 465 -29 256 3 374 -29 b 574 75 519 -29 568 -1 z "},"¿":{"ha":936,"x_min":0,"x_max":0,"o":"m 271 215 l 651 672 b 665 708 661 683 665 697 b 629 747 665 729 651 747 b 606 740 622 747 614 746 l 285 550 b 42 250 136 463 42 394 b 454 -29 42 47 242 -29 b 908 218 710 -29 922 43 b 799 331 901 308 854 331 b 664 286 761 331 710 315 l 365 97 b 282 67 336 79 307 67 b 219 118 246 67 219 85 b 271 215 219 143 233 176 z m 376 975 b 560 838 367 864 468 838 b 685 942 656 838 679 883 b 485 1079 694 1047 576 1079 b 376 975 431 1079 382 1051 z "},"·":{"ha":392,"x_min":0,"x_max":0,"o":"m 350 521 b 167 658 360 632 258 658 b 42 554 71 658 47 613 b 242 417 32 449 150 417 b 350 521 296 417 344 444 z "},"•":{"ha":515,"x_min":0,"x_max":0,"o":"m 472 475 b 217 667 486 631 344 667 b 43 521 83 667 50 603 b 322 329 29 375 194 329 b 472 475 397 329 465 368 z "},"*":{"ha":786,"x_min":0,"x_max":0,"o":"m 353 782 l 204 818 b 83 750 129 839 83 813 b 171 689 83 699 117 672 l 363 754 b 376 739 372 757 381 750 l 279 515 b 339 417 258 464 289 417 b 411 514 389 417 407 463 l 415 728 b 435 736 417 742 428 742 l 572 628 b 661 576 611 600 633 576 b 744 658 708 576 744 610 b 676 733 744 692 725 724 l 447 775 b 438 785 440 775 438 779 b 442 793 438 788 439 790 l 639 943 b 678 1001 664 964 678 982 b 606 1065 678 1039 638 1067 b 540 1017 582 1064 561 1050 l 422 824 b 413 817 419 818 417 817 b 401 825 408 817 403 819 l 376 979 b 297 1060 367 1028 349 1060 b 213 989 253 1060 213 1031 b 242 924 213 969 219 947 l 365 800 b 353 782 372 793 365 778 z "},"#":{"ha":1196,"x_min":0,"x_max":0,"o":"m 782 699 l 940 964 b 799 994 999 1063 833 1144 l 733 710 b 782 699 725 672 761 664 z m 503 347 l 351 142 b 386 -19 292 60 332 -7 b 490 79 438 -32 469 -10 l 550 326 b 503 347 561 374 522 374 z m 653 354 l 596 104 b 710 11 574 8 660 -18 b 750 122 743 31 765 65 l 701 304 b 718 374 689 351 703 364 b 799 347 733 383 771 386 l 882 238 b 958 368 993 92 1163 308 l 782 421 b 653 354 707 443 667 413 z m 183 419 l 574 431 b 581 479 610 432 611 471 l 154 603 b 44 488 71 626 32 549 b 183 419 56 431 90 417 z m 626 668 l 694 964 b 542 957 731 1122 519 1106 l 583 685 b 542 656 592 629 554 639 l 458 767 b 381 636 347 914 176 694 l 499 603 b 626 668 575 581 613 610 z m 686 507 l 1038 494 b 1003 714 1268 488 1197 811 l 679 556 b 686 507 644 538 643 508 z "},"/":{"ha":589,"x_min":0,"x_max":0,"o":"m 69 4 l 557 925 b 514 1074 596 999 583 1057 b 386 971 464 1086 422 1065 l 18 25 b 69 4 -1 -24 46 -40 z "},"\\":{"ha":589,"x_min":0,"x_max":0,"o":"m 553 131 l 65 1051 b 14 1031 42 1096 -6 1079 l 382 85 b 510 -18 418 -10 460 -31 b 553 131 579 -1 592 57 z "},"-":{"ha":619,"x_min":0,"x_max":0,"o":"m 89 476 l 463 467 b 560 581 547 464 574 525 b 408 633 547 632 506 664 l 92 532 b 89 476 43 517 53 478 z "},"–":{"ha":1078,"x_min":0,"x_max":0,"o":"m 89 476 l 921 467 b 1018 581 1006 465 1032 525 b 867 633 1006 632 968 647 l 92 532 b 89 476 42 525 53 476 z "},"—":{"ha":1411,"x_min":0,"x_max":0,"o":"m 89 476 l 1254 467 b 1351 581 1339 465 1365 525 b 1200 633 1339 632 1301 643 l 92 532 b 89 476 42 528 53 476 z "},"_":{"ha":1175,"x_min":0,"x_max":0,"o":"m 89 -178 l 921 -187 b 1018 -74 1006 -189 1032 -129 b 867 -21 1006 -22 968 -7 l 92 -122 b 89 -178 42 -129 53 -178 z "},"(":{"ha":524,"x_min":0,"x_max":0,"o":"m 150 519 b 313 828 149 618 218 717 l 458 996 b 438 1175 521 1069 499 1147 b 257 1069 379 1201 319 1174 b 97 519 146 885 97 699 b 257 -31 97 340 146 154 b 438 -136 319 -135 379 -162 b 458 43 499 -108 521 -31 l 313 211 b 150 519 218 322 149 421 z "},")":{"ha":524,"x_min":0,"x_max":0,"o":"m 426 519 b 267 1069 426 699 378 885 b 86 1175 204 1174 144 1201 b 65 996 25 1147 3 1069 l 211 828 b 374 519 306 717 375 618 b 211 211 375 421 306 322 l 65 43 b 86 -136 3 -31 25 -108 b 267 -31 144 -162 204 -135 b 426 519 378 154 426 340 z "},"{":{"ha":585,"x_min":0,"x_max":0,"o":"m 253 656 l 508 992 b 336 1054 654 1168 336 1286 l 336 911 b 251 760 336 825 296 783 l 157 708 b 28 519 67 656 28 613 b 157 331 28 426 67 383 l 251 279 b 336 128 296 256 336 214 l 336 -15 b 508 47 336 -247 654 -129 l 253 383 b 197 519 213 435 196 468 b 253 656 196 571 213 604 z "},"}":{"ha":585,"x_min":0,"x_max":0,"o":"m 76 992 l 332 656 b 388 519 372 604 389 571 b 332 383 389 468 372 435 l 76 47 b 249 -15 -69 -129 249 -247 l 249 128 b 333 279 249 214 289 256 l 428 331 b 557 519 518 383 557 426 b 428 708 557 613 518 656 l 333 760 b 249 911 289 783 249 825 l 249 1054 b 76 992 249 1286 -69 1168 z "},"[":{"ha":625,"x_min":0,"x_max":0,"o":"m 468 56 l 322 -7 b 238 67 253 -36 211 -8 b 238 971 297 235 294 800 b 322 1044 211 1046 254 1076 l 468 982 b 597 1083 540 953 597 1010 b 396 1164 597 1185 504 1201 l 282 1122 b 111 826 174 1079 111 999 l 111 211 b 282 -85 111 39 174 -42 l 396 -126 b 597 -46 504 -165 597 -147 b 468 56 597 28 540 86 z "},"]":{"ha":625,"x_min":0,"x_max":0,"o":"m 303 -7 l 157 56 b 28 -46 85 86 28 28 b 229 -126 28 -147 121 -165 l 343 -85 b 514 211 451 -42 514 39 l 514 826 b 343 1122 514 999 451 1079 l 229 1164 b 28 1083 121 1201 28 1185 b 157 982 28 1010 85 953 l 303 1044 b 388 971 371 1076 414 1046 b 388 67 331 800 328 235 b 303 -7 414 -8 372 -36 z "},"‚":{"ha":400,"x_min":0,"x_max":0,"o":"m 78 128 l 28 -137 b 76 -172 21 -174 54 -189 l 313 3 b 351 58 329 15 344 32 b 269 201 365 108 351 172 b 78 128 192 229 96 225 z "},"„":{"ha":763,"x_min":0,"x_max":0,"o":"m 76 208 l 26 -140 b 75 -175 21 -176 56 -196 l 317 83 b 350 139 331 99 343 113 b 268 282 364 189 350 253 b 76 208 190 310 90 306 z m 440 208 l 390 -57 b 439 -92 383 -93 417 -108 l 675 83 b 714 139 692 96 707 113 b 632 282 728 189 714 253 b 440 208 554 310 458 306 z "},"“":{"ha":763,"x_min":0,"x_max":0,"o":"m 686 686 l 736 1035 b 688 1069 742 1071 707 1090 l 446 811 b 413 756 432 796 419 782 b 494 613 399 706 413 642 b 686 686 572 585 672 589 z m 322 686 l 372 951 b 324 986 379 988 346 1003 l 88 811 b 49 756 71 799 56 782 b 131 613 35 706 49 642 b 322 686 208 585 304 589 z "},"”":{"ha":763,"x_min":0,"x_max":0,"o":"m 76 989 l 26 640 b 75 606 21 604 56 585 l 317 864 b 350 919 331 879 343 893 b 268 1063 364 969 350 1033 b 76 989 190 1090 90 1086 z m 440 989 l 390 724 b 439 689 383 688 417 672 l 675 864 b 714 919 692 876 707 893 b 632 1063 728 969 714 1033 b 440 989 554 1090 458 1086 z "},"‘":{"ha":400,"x_min":0,"x_max":0,"o":"m 322 771 l 372 1036 b 324 1071 379 1072 346 1088 l 88 896 b 49 840 71 883 56 867 b 131 697 35 790 49 726 b 322 771 208 669 304 674 z "},"’":{"ha":400,"x_min":0,"x_max":0,"o":"m 78 989 l 28 724 b 76 689 21 688 54 672 l 313 864 b 351 919 329 876 344 893 b 269 1063 365 969 351 1033 b 78 989 192 1090 96 1086 z "},"«":{"ha":965,"x_min":0,"x_max":0,"o":"m 560 119 l 190 531 b 211 597 171 551 181 583 l 600 768 b 638 924 681 803 676 875 b 483 913 601 969 553 972 l 90 572 b 99 369 19 511 31 414 l 533 89 b 567 90 544 82 557 76 b 560 119 576 103 568 110 z m 532 449 l 885 733 b 892 763 894 742 901 750 b 858 764 882 776 872 769 l 454 582 b 432 414 396 556 369 469 l 703 172 b 857 161 771 111 822 115 b 821 317 894 211 906 296 l 554 382 b 532 449 522 390 508 429 z "},"»":{"ha":965,"x_min":0,"x_max":0,"o":"m 753 531 l 383 119 b 376 90 375 110 367 103 b 410 89 386 76 399 82 l 844 369 b 853 572 913 414 924 511 l 460 913 b 306 924 390 972 342 969 b 343 768 267 875 263 803 l 732 597 b 753 531 763 583 772 551 z m 58 733 l 411 449 b 389 382 435 429 421 390 l 122 317 b 86 161 38 296 49 211 b 240 172 121 115 172 111 l 511 414 b 489 582 574 469 547 556 l 85 764 b 51 763 71 769 61 776 b 58 733 42 750 49 742 z "},"‹":{"ha":833,"x_min":0,"x_max":0,"o":"m 272 497 b 324 653 272 592 283 632 b 442 628 360 671 394 672 l 486 586 b 601 528 531 544 576 528 b 731 685 671 528 731 575 b 590 831 731 786 656 831 b 421 778 538 831 493 819 l 207 657 b 74 497 121 608 74 564 b 207 338 74 431 121 386 l 421 217 b 590 164 493 175 538 164 b 731 310 656 164 731 208 b 601 467 731 419 671 467 b 486 408 576 467 531 450 l 442 367 b 324 342 394 322 360 324 b 272 497 283 363 272 403 z "},"›":{"ha":833,"x_min":0,"x_max":0,"o":"m 561 497 b 510 342 561 403 550 363 b 392 367 474 324 439 322 l 347 408 b 232 467 303 450 257 467 b 103 310 163 467 103 419 b 243 164 103 208 178 164 b 413 217 296 164 340 175 l 626 338 b 760 497 713 386 760 431 b 626 657 760 564 713 608 l 413 778 b 243 831 340 819 296 831 b 103 685 178 831 103 786 b 232 528 103 575 163 528 b 347 586 257 528 303 544 l 392 628 b 510 653 439 672 474 671 b 561 497 550 632 561 592 z "},"\"":{"ha":768,"x_min":0,"x_max":0,"o":"m 446 988 l 396 722 b 444 688 389 686 422 671 l 681 863 b 719 918 697 875 713 892 b 638 1061 733 968 719 1032 b 446 988 560 1089 464 1085 z m 78 988 l 28 722 b 76 688 21 686 54 671 l 313 863 b 351 918 329 875 344 892 b 269 1061 365 968 351 1032 b 78 988 192 1089 96 1085 z "},"'":{"ha":400,"x_min":0,"x_max":0,"o":"m 78 988 l 28 722 b 76 688 21 686 54 671 l 313 863 b 351 918 329 875 344 892 b 269 1061 365 968 351 1032 b 78 988 192 1089 96 1085 z "},"@":{"ha":1339,"x_min":0,"x_max":0,"o":"m 503 347 l 646 715 b 685 757 657 746 665 757 b 718 724 701 757 710 747 l 836 379 b 1006 260 864 300 926 260 b 1256 515 1186 260 1256 378 b 718 1076 1256 765 1088 1076 b 83 401 358 1076 83 789 b 500 1 83 122 208 3 l 1044 0 b 1167 110 1124 0 1167 51 b 1003 218 1167 192 1096 232 l 349 122 b 242 235 265 110 217 144 l 410 850 b 718 918 456 1018 626 1004 l 1135 528 b 1107 365 1217 450 1158 365 b 965 476 1057 365 1017 397 l 793 743 b 683 822 760 794 736 822 b 579 743 639 822 613 797 l 394 438 b 508 282 338 343 407 242 l 675 347 b 771 450 729 368 771 397 b 618 476 771 533 669 560 l 528 331 b 503 347 519 318 493 324 z "},"&":{"ha":1293,"x_min":0,"x_max":0,"o":"m 601 444 l 764 258 b 743 183 797 219 799 183 l 231 179 b 207 261 171 179 167 229 l 442 444 b 601 444 521 506 540 514 z m 1125 189 l 838 464 b 861 535 800 500 819 522 l 1174 625 b 1293 756 1258 650 1293 703 b 1169 883 1293 819 1240 883 b 1046 821 1132 883 1089 865 l 801 564 b 671 481 740 500 722 481 b 561 590 621 481 606 511 l 372 931 b 490 1003 336 1007 422 1072 l 703 782 b 900 833 781 700 881 760 b 514 1076 931 949 831 1074 b 121 842 207 1079 121 933 b 436 594 121 718 204 653 b 472 556 458 589 472 574 b 429 519 472 538 461 522 l 276 507 b 69 267 115 494 69 401 b 442 -21 69 29 271 -21 b 758 103 569 -21 679 10 b 819 149 781 129 794 149 b 861 115 838 149 847 132 l 899 67 b 1049 -21 949 1 988 -21 b 1125 189 1144 -21 1214 103 z "},"°":{"ha":565,"x_min":0,"x_max":0,"o":"m 283 1076 b 83 885 153 1076 83 1011 b 283 694 83 758 153 694 b 482 885 414 694 482 758 b 283 1076 482 1011 414 1076 z m 183 913 l 254 989 b 329 969 279 1017 318 1001 l 368 851 b 301 794 388 796 346 775 l 201 839 b 183 913 167 854 157 885 z "},"№":{"ha":1892,"x_min":0,"x_max":0,"o":"m 269 -21 b 385 264 419 -21 447 110 l 196 726 b 171 858 183 757 171 819 b 294 996 171 938 217 996 b 376 889 344 996 388 960 l 364 810 b 460 494 346 694 404 571 l 690 175 b 917 -21 789 39 832 -21 b 1068 174 1007 -21 1053 40 l 1139 817 b 974 1078 1153 944 1111 1078 b 821 917 857 1078 821 988 b 853 750 821 883 818 839 l 981 421 b 1010 318 999 375 1010 343 b 958 272 1010 288 993 272 b 881 344 933 272 914 292 l 551 860 b 297 1076 468 990 407 1076 b 83 694 149 1076 83 1007 l 83 319 b 269 -21 83 118 88 -21 z m 1539 1076 b 1258 821 1365 1076 1258 989 b 1539 568 1258 653 1365 568 b 1803 821 1713 568 1803 653 b 1539 1076 1803 989 1713 1076 z m 1658 794 l 1564 692 b 1464 718 1531 656 1478 675 l 1413 875 b 1501 951 1389 949 1442 978 l 1635 892 b 1658 794 1681 871 1692 832 z m 1307 306 l 1681 296 b 1778 410 1765 293 1792 354 b 1626 463 1765 461 1724 493 l 1310 361 b 1307 306 1261 346 1271 307 z "},"$":{"ha":1232,"x_min":0,"x_max":0,"o":"m 961 504 l 506 703 b 469 754 483 714 469 733 b 610 810 468 796 517 839 l 892 722 b 1158 832 1117 653 1157 760 b 924 940 1160 922 1097 1004 l 690 854 b 632 900 629 832 614 871 l 724 1049 b 624 1242 790 1157 714 1242 b 519 1058 528 1242 482 1175 l 572 894 b 521 871 581 868 544 850 l 444 936 b 111 797 308 1050 111 971 b 281 596 111 718 144 629 l 494 543 b 558 478 539 532 551 515 l 572 404 b 443 169 590 306 558 244 l 340 103 b 272 161 289 69 229 97 l 397 349 b 421 428 414 375 426 403 b 261 481 410 474 340 499 b 104 275 149 453 104 365 b 393 65 104 99 254 -25 l 539 158 b 564 111 579 185 582 146 l 493 -28 b 607 -240 421 -169 515 -242 b 719 -51 689 -239 768 -178 l 629 182 b 678 208 615 218 657 232 l 756 122 b 919 32 800 72 853 32 b 1125 261 1053 32 1119 139 b 961 504 1128 339 1122 433 z m 942 357 l 774 292 b 635 394 672 253 618 281 l 644 461 b 728 504 650 504 668 521 l 958 442 b 997 404 981 436 1000 419 b 942 357 997 390 978 371 z "},"€":{"ha":1181,"x_min":0,"x_max":0,"o":"m 906 672 l 675 836 b 624 929 636 864 624 897 b 788 986 624 994 715 1056 l 1003 779 b 1146 871 1068 715 1146 786 b 813 1076 1146 974 1058 1076 b 361 853 589 1076 482 1006 b 235 760 314 793 276 775 l 122 719 b 69 674 93 710 69 704 b 126 611 69 650 85 635 b 160 565 142 603 160 583 b 115 514 160 532 139 519 l 78 504 b 21 442 49 497 21 482 b 92 379 21 418 38 404 l 154 350 b 313 207 254 304 282 275 b 740 -21 383 50 483 -21 b 1114 147 1067 -21 1111 76 b 956 225 1117 218 1036 264 l 631 69 b 579 257 501 7 425 179 l 864 401 b 914 447 903 421 914 424 b 861 486 914 469 901 488 l 353 472 b 235 560 296 471 235 494 b 360 650 235 638 296 657 l 903 586 b 956 618 943 582 956 594 b 906 672 956 640 940 647 z "},"£":{"ha":1176,"x_min":0,"x_max":0,"o":"m 371 336 l 467 261 b 421 151 508 228 508 168 l 204 110 b 153 210 143 99 118 167 l 240 315 b 371 336 282 365 326 372 z m 982 246 l 660 321 b 650 426 606 333 594 399 l 739 471 b 838 565 788 496 838 535 b 731 638 838 603 803 622 l 406 708 b 271 864 332 725 271 782 b 456 957 271 972 364 1013 l 758 774 b 975 849 878 701 969 765 b 604 1076 982 996 829 1076 b 204 874 271 1076 204 983 b 286 694 204 822 233 757 l 564 356 b 585 278 593 319 603 293 b 504 299 565 261 542 268 l 326 440 b 178 500 271 485 217 500 b 14 336 96 500 14 454 b 361 -22 14 107 158 -22 b 569 126 449 -22 529 44 l 599 186 b 683 190 619 228 650 236 l 772 65 b 940 -21 806 19 861 -21 b 1081 143 1017 -21 1057 25 l 1139 435 b 1036 554 1156 513 1090 554 b 978 422 972 554 928 496 l 1039 332 b 982 246 1072 283 1049 231 z "},"=":{"ha":893,"x_min":0,"x_max":0,"o":"m 115 265 l 744 294 b 832 417 829 299 850 363 b 676 456 815 467 776 479 l 113 322 b 115 265 65 311 79 264 z m 781 694 l 151 665 b 64 543 67 661 46 597 b 219 504 81 493 119 481 l 783 638 b 781 694 831 649 817 696 z "},"^":{"ha":833,"x_min":0,"x_max":0,"o":"m 411 1033 b 454 1007 426 1033 440 1025 l 547 872 b 638 810 582 822 607 810 b 744 942 703 810 744 857 b 638 1065 744 1006 715 1058 b 411 1075 563 1072 486 1076 b 185 1065 336 1076 260 1072 b 78 942 106 1058 78 1006 b 185 810 78 857 119 810 b 274 872 214 810 239 822 l 368 1007 b 411 1033 381 1025 396 1033 z "},"%":{"ha":1085,"x_min":0,"x_max":0,"o":"m 238 -4 l 997 888 b 897 1076 1078 982 983 1076 l 354 1075 b 314 596 -36 1075 -3 596 b 499 806 418 596 499 742 b 340 801 499 931 325 919 l 354 692 b 286 674 361 642 313 631 l 181 844 b 215 935 150 894 182 928 l 763 1036 b 793 975 786 1042 817 1017 l 185 21 b 193 -18 178 8 176 -8 b 238 -4 206 -25 224 -21 z m 817 371 b 617 179 686 371 617 306 b 817 -11 617 53 686 -11 b 1015 179 947 -11 1015 53 b 817 371 1015 306 947 371 z m 717 207 l 788 283 b 863 264 813 311 851 296 l 901 146 b 835 89 919 90 879 69 l 735 133 b 717 207 700 149 690 179 z "},"̈":{"ha":0,"x_min":0,"x_max":0,"o":"m 688 1224 b 643 1332 707 1279 682 1314 b 457 1297 578 1361 483 1375 b 514 1183 443 1254 444 1214 b 688 1224 578 1154 658 1142 z m 386 1288 b 290 1354 372 1346 332 1361 b 154 1224 219 1343 133 1304 b 263 1160 165 1181 189 1147 b 386 1288 333 1171 407 1204 z "},"̇":{"ha":0,"x_min":0,"x_max":0,"o":"m 572 1214 b 499 1332 585 1285 547 1319 b 288 1254 415 1353 303 1351 b 376 1132 279 1200 290 1153 b 572 1214 458 1111 556 1111 z "},"̀":{"ha":0,"x_min":0,"x_max":0,"o":"m 201 1165 l 456 1117 b 481 1161 485 1111 499 1146 l 278 1328 b 119 1288 222 1374 139 1353 b 201 1165 103 1233 122 1181 z "},"́":{"ha":0,"x_min":0,"x_max":0,"o":"m 360 1117 l 614 1165 b 696 1288 693 1181 713 1233 b 538 1328 676 1353 593 1374 l 335 1161 b 360 1117 317 1146 331 1111 z "},"̋":{"ha":0,"x_min":0,"x_max":0,"o":"m 529 1097 l 775 1178 b 840 1310 851 1204 864 1258 b 678 1329 813 1372 728 1382 l 499 1139 b 529 1097 482 1121 500 1089 z m 250 1114 l 457 1201 b 506 1319 522 1228 529 1276 b 364 1325 478 1372 403 1375 l 221 1147 b 250 1114 208 1131 226 1104 z "},"̂":{"ha":0,"x_min":0,"x_max":0,"o":"m 415 1314 b 451 1292 428 1314 440 1307 l 529 1179 b 604 1128 558 1138 579 1128 b 693 1238 658 1128 693 1167 b 604 1340 693 1290 669 1335 b 415 1349 542 1346 478 1350 b 226 1340 353 1350 289 1346 b 138 1238 161 1335 138 1290 b 226 1128 138 1167 172 1128 b 301 1179 251 1128 272 1138 l 379 1292 b 415 1314 390 1307 403 1314 z "},"̌":{"ha":0,"x_min":0,"x_max":0,"o":"m 415 1163 b 379 1185 403 1163 390 1169 l 301 1297 b 226 1349 272 1339 251 1349 b 138 1239 172 1349 138 1310 b 226 1136 138 1186 161 1142 b 415 1128 289 1131 353 1126 b 604 1136 478 1126 542 1131 b 693 1239 669 1142 693 1186 b 604 1349 693 1310 658 1349 b 529 1297 579 1349 558 1339 l 451 1185 b 415 1163 440 1169 428 1163 z "},"̆":{"ha":0,"x_min":0,"x_max":0,"o":"m 415 1121 b 686 1281 574 1117 686 1157 b 615 1349 686 1326 649 1349 b 522 1283 574 1349 543 1332 b 415 1160 493 1215 475 1160 b 308 1283 356 1160 338 1215 b 215 1349 288 1332 257 1349 b 144 1281 182 1349 144 1326 b 415 1121 144 1157 257 1117 z "},"̊":{"ha":0,"x_min":0,"x_max":0,"o":"m 365 1135 b 589 1217 458 1118 571 1114 b 488 1335 601 1288 554 1324 b 249 1257 393 1350 267 1354 b 365 1135 239 1203 253 1156 z m 446 1182 b 350 1225 406 1171 357 1171 b 382 1288 346 1263 361 1281 b 486 1246 422 1300 479 1297 b 446 1182 490 1218 485 1193 z "},"̃":{"ha":0,"x_min":0,"x_max":0,"o":"m 463 1218 l 439 1244 b 296 1332 383 1307 346 1332 b 90 1183 167 1332 57 1290 b 249 1164 113 1111 210 1107 l 301 1240 b 356 1240 318 1265 335 1265 l 382 1208 b 522 1126 432 1147 472 1126 b 722 1268 651 1126 735 1161 b 569 1294 714 1340 617 1363 l 517 1218 b 463 1218 500 1193 483 1196 z "},"̄":{"ha":0,"x_min":0,"x_max":0,"o":"m 231 1165 l 604 1156 b 701 1256 689 1153 715 1200 b 550 1308 689 1307 653 1324 l 233 1263 b 169 1210 193 1257 169 1240 b 231 1165 169 1178 189 1167 z "},"̦":{"ha":0,"x_min":0,"x_max":0,"o":"m 297 -110 l 289 -306 b 338 -340 288 -342 313 -356 l 532 -221 b 489 -36 611 -172 588 -71 b 297 -110 411 -8 301 -11 z "},"̧":{"ha":0,"x_min":0,"x_max":0,"o":"m 164 -157 b 315 -267 156 -214 211 -246 b 658 -147 497 -300 658 -261 b 538 -40 658 -87 594 -40 b 460 -53 501 -40 481 -53 b 468 29 438 -53 443 -43 l 396 29 l 332 -133 l 300 -107 b 164 -157 249 -64 174 -89 z m 472 -215 b 439 -140 419 -215 404 -162 b 536 -110 481 -114 508 -110 b 583 -150 565 -110 583 -125 b 472 -215 583 -182 536 -215 z "},"̨":{"ha":0,"x_min":0,"x_max":0,"o":"m 272 -33 b 467 -278 194 -153 308 -278 b 621 -172 554 -278 621 -239 b 489 -115 621 -103 550 -99 l 388 -142 b 324 -106 347 -153 324 -133 b 364 -51 324 -81 333 -67 l 479 7 b 496 36 494 14 496 25 l 325 49 z "},"¨":{"ha":833,"x_min":0,"x_max":0,"o":"m 688 1224 b 643 1332 707 1279 682 1314 b 457 1297 578 1361 483 1375 b 514 1183 443 1254 444 1214 b 688 1224 578 1154 658 1142 z m 386 1288 b 290 1354 372 1346 332 1361 b 154 1224 219 1343 133 1304 b 263 1160 165 1181 189 1147 b 386 1288 333 1171 407 1204 z "},"˙":{"ha":833,"x_min":0,"x_max":0,"o":"m 572 1214 b 499 1332 585 1285 547 1319 b 288 1254 415 1353 303 1351 b 376 1132 279 1200 290 1153 b 572 1214 458 1111 556 1111 z "},"`":{"ha":833,"x_min":0,"x_max":0,"o":"m 201 1165 l 456 1117 b 481 1161 485 1111 499 1146 l 278 1328 b 119 1288 222 1374 139 1353 b 201 1165 103 1233 122 1181 z "},"´":{"ha":833,"x_min":0,"x_max":0,"o":"m 360 1117 l 614 1165 b 696 1288 693 1181 713 1233 b 538 1328 676 1353 593 1374 l 335 1161 b 360 1117 317 1146 331 1111 z "},"˝":{"ha":833,"x_min":0,"x_max":0,"o":"m 529 1097 l 775 1178 b 840 1310 851 1204 864 1258 b 678 1329 813 1372 728 1382 l 499 1139 b 529 1097 482 1121 500 1089 z m 250 1114 l 457 1201 b 506 1319 522 1228 529 1276 b 364 1325 478 1372 403 1375 l 221 1147 b 250 1114 208 1131 226 1104 z "},"ˆ":{"ha":833,"x_min":0,"x_max":0,"o":"m 415 1314 b 451 1292 428 1314 440 1307 l 529 1179 b 604 1128 558 1138 579 1128 b 693 1238 658 1128 693 1167 b 604 1340 693 1290 669 1335 b 415 1349 542 1346 478 1350 b 226 1340 353 1350 289 1346 b 138 1238 161 1335 138 1290 b 226 1128 138 1167 172 1128 b 301 1179 251 1128 272 1138 l 379 1292 b 415 1314 390 1307 403 1314 z "},"ˇ":{"ha":833,"x_min":0,"x_max":0,"o":"m 415 1163 b 379 1185 403 1163 390 1169 l 301 1297 b 226 1349 272 1339 251 1349 b 138 1239 172 1349 138 1310 b 226 1136 138 1186 161 1142 b 415 1128 289 1131 353 1126 b 604 1136 478 1126 542 1131 b 693 1239 669 1142 693 1186 b 604 1349 693 1310 658 1349 b 529 1297 579 1349 558 1339 l 451 1185 b 415 1163 440 1169 428 1163 z "},"˘":{"ha":833,"x_min":0,"x_max":0,"o":"m 415 1121 b 686 1281 574 1117 686 1157 b 615 1349 686 1326 649 1349 b 522 1283 574 1349 543 1332 b 415 1160 493 1215 475 1160 b 308 1283 356 1160 338 1215 b 215 1349 288 1332 257 1349 b 144 1281 182 1349 144 1326 b 415 1121 144 1157 257 1117 z "}}}
